<?xml version="1.0" encoding="UTF-8" standalone="no"?>
<svg
   width="675.03315"
   height="423.65484"
   viewBox="0 0 675.03315 423.65484"
   role="img"
   artist="Katerina Limpitsouni"
   source="https://undraw.co/"
   version="1.1"
   id="svg13"
   sodipodi:docname="favorites.svg"
   inkscape:version="1.4.2 (ebf0e940, 2025-05-08)"
   xmlns:inkscape="http://www.inkscape.org/namespaces/inkscape"
   xmlns:sodipodi="http://sodipodi.sourceforge.net/DTD/sodipodi-0.dtd"
   xmlns="http://www.w3.org/2000/svg"
   xmlns:svg="http://www.w3.org/2000/svg">
  <defs
     id="defs13">
    <meshgradient
       inkscape:collect="always"
       id="meshgradient17"
       gradientUnits="userSpaceOnUse"
       x="155.22589"
       y="34.243534">
      <meshrow
         id="meshrow17">
        <meshpatch
           id="meshpatch17">
          <stop
             path="c 31.6064,0  63.2129,0  94.8193,0"
             style="stop-color:#ffffff;stop-opacity:1"
             id="stop17" />
          <stop
             path="c 0,30.3782  0,60.7565  0,91.1347"
             style="stop-color:#ffd42a;stop-opacity:1"
             id="stop18" />
          <stop
             path="c -31.6064,0  -63.2129,0  -94.8193,0"
             style="stop-color:#ffffff;stop-opacity:1"
             id="stop19" />
          <stop
             path="c 0,-30.3782  0,-60.7565  0,-91.1347"
             style="stop-color:#ffd42a;stop-opacity:1"
             id="stop20" />
        </meshpatch>
      </meshrow>
    </meshgradient>
    <meshgradient
       inkscape:collect="always"
       id="meshgradient20"
       gradientUnits="userSpaceOnUse"
       x="161.15329"
       y="197.90793">
      <meshrow
         id="meshrow20">
        <meshpatch
           id="meshpatch20">
          <stop
             path="c 33.2167,0  66.4335,0  99.6502,0"
             style="stop-color:#ffffff;stop-opacity:1"
             id="stop21" />
          <stop
             path="c 0,31.1868  0,62.3735  0,93.5603"
             style="stop-color:#ffd42a;stop-opacity:1"
             id="stop22" />
          <stop
             path="c -33.2167,0  -66.4335,0  -99.6502,0"
             style="stop-color:#ffffff;stop-opacity:1"
             id="stop23" />
          <stop
             path="c 0,-31.1868  0,-62.3735  0,-93.5603"
             style="stop-color:#ffd42a;stop-opacity:1"
             id="stop24" />
        </meshpatch>
      </meshrow>
    </meshgradient>
    <meshgradient
       inkscape:collect="always"
       id="meshgradient24"
       gradientUnits="userSpaceOnUse"
       x="344.06216"
       y="209.51018">
      <meshrow
         id="meshrow24">
        <meshpatch
           id="meshpatch24">
          <stop
             path="c 25.1034,0  50.2067,0  75.3101,0"
             style="stop-color:#ffffff;stop-opacity:1"
             id="stop25" />
          <stop
             path="c 0,24.1351  0,48.2701  0,72.4052"
             style="stop-color:#ffd42a;stop-opacity:1"
             id="stop26" />
          <stop
             path="c -25.1034,0  -50.2067,0  -75.3101,0"
             style="stop-color:#ffffff;stop-opacity:1"
             id="stop27" />
          <stop
             path="c 0,-24.1351  0,-48.2701  0,-72.4052"
             style="stop-color:#ffd42a;stop-opacity:1"
             id="stop28" />
        </meshpatch>
      </meshrow>
    </meshgradient>
    <meshgradient
       inkscape:collect="always"
       id="meshgradient28"
       gradientUnits="userSpaceOnUse"
       x="249.07256"
       y="143.71655">
      <meshrow
         id="meshrow28">
        <meshpatch
           id="meshpatch28">
          <stop
             path="c 23.5749,0  47.1499,0  70.7248,0"
             style="stop-color:#ffffff;stop-opacity:1"
             id="stop29" />
          <stop
             path="c 0,23.9794  0,47.9587  0,71.9381"
             style="stop-color:#ffcc00;stop-opacity:1"
             id="stop30" />
          <stop
             path="c -23.5749,0  -47.1499,0  -70.7248,0"
             style="stop-color:#ffffff;stop-opacity:1"
             id="stop31" />
          <stop
             path="c 0,-23.9794  0,-47.9587  0,-71.9381"
             style="stop-color:#ffcc00;stop-opacity:1"
             id="stop32" />
        </meshpatch>
      </meshrow>
    </meshgradient>
    <meshgradient
       inkscape:collect="always"
       id="meshgradient32"
       gradientUnits="userSpaceOnUse"
       x="303.6644"
       y="32.016773">
      <meshrow
         id="meshrow32">
        <meshpatch
           id="meshpatch32">
          <stop
             path="c 35.2739,0  70.5478,0  105.822,0"
             style="stop-color:#ffffff;stop-opacity:1"
             id="stop33" />
          <stop
             path="c 0,35.879  0,71.7579  0,107.637"
             style="stop-color:#ffcc00;stop-opacity:1"
             id="stop34" />
          <stop
             path="c -35.2739,0  -70.5478,0  -105.822,0"
             style="stop-color:#ffffff;stop-opacity:1"
             id="stop35" />
          <stop
             path="c 0,-35.879  0,-71.7579  0,-107.637"
             style="stop-color:#ffcc00;stop-opacity:1"
             id="stop36" />
        </meshpatch>
      </meshrow>
    </meshgradient>
    <meshgradient
       inkscape:collect="always"
       id="meshgradient36"
       gradientUnits="userSpaceOnUse"
       x="19.465734"
       y="112.62358">
      <meshrow
         id="meshrow36">
        <meshpatch
           id="meshpatch36">
          <stop
             path="c 35.2739,0  70.5478,0  105.822,0"
             style="stop-color:#ffffff;stop-opacity:1"
             id="stop37" />
          <stop
             path="c 0,35.879  0,71.758  0,107.637"
             style="stop-color:#ffcc00;stop-opacity:1"
             id="stop38" />
          <stop
             path="c -35.2739,0  -70.5478,0  -105.822,0"
             style="stop-color:#ffffff;stop-opacity:1"
             id="stop39" />
          <stop
             path="c 0,-35.879  0,-71.758  0,-107.637"
             style="stop-color:#ffcc00;stop-opacity:1"
             id="stop40" />
        </meshpatch>
      </meshrow>
    </meshgradient>
  </defs>
  <sodipodi:namedview
     id="namedview13"
     pagecolor="#ffffff"
     bordercolor="#000000"
     borderopacity="0.25"
     inkscape:showpageshadow="2"
     inkscape:pageopacity="0.0"
     inkscape:pagecheckerboard="0"
     inkscape:deskcolor="#d1d1d1"
     inkscape:zoom="1.2325321"
     inkscape:cx="341.16759"
     inkscape:cy="211.75919"
     inkscape:window-width="1920"
     inkscape:window-height="937"
     inkscape:window-x="173"
     inkscape:window-y="31"
     inkscape:window-maximized="0"
     inkscape:current-layer="svg13" />
  <path
     d="m 225.94525,125.36976 c -2.04739,-0.008 -4.03903,-0.66787 -5.68665,-1.8833 l -13.70576,-9.95753 c -2.33502,-1.69953 -5.49956,-1.69953 -7.83459,0 l -13.70573,9.95753 c -7.58204,5.50912 -17.78421,-1.90248 -14.88852,-10.81611 l 5.23458,-16.111707 c 0.89798,-2.7462 -0.0803,-5.758 -2.42065,-7.45234 l -13.70576,-9.95753 c -7.58189,-5.509457 -3.68486,-17.502241 5.68739,-17.50249 h 16.94089 c 2.88874,0.0053 5.45022,-1.855673 6.338,-4.60461 l 5.23531,-16.1117 c 2.89548,-8.915253 15.50823,-8.915253 18.40371,0 l 5.23532,16.1117 c 0.88777,2.748918 3.44923,4.609855 6.33794,4.60461 h 16.9408 c 9.37226,2.49e-4 13.26928,11.993033 5.68739,17.50249 l -13.70576,9.95753 c -2.34035,1.69433 -3.31864,4.70614 -2.42066,7.45234 l 5.23459,16.111707 c 1.3437,3.98589 -0.0845,8.38133 -3.51448,10.81611 -1.64788,1.21543 -3.63975,1.87502 -5.68736,1.8833 z"
     fill="#6c63ff"
     id="path2-3"
     style="fill:url(#meshgradient17);fill-opacity:1"
     sodipodi:nodetypes="ccccccccccccccccccccccc" />
  <path
     d="m 235.48531,291.46818 a 10.140369,9.9026214 0 0 1 -5.97872,-1.9336 l -14.40969,-10.2235 a 6.9985996,6.8345131 0 0 0 -8.23697,0 l -14.40966,10.2235 a 10.171752,9.9332687 0 0 1 -15.6532,-11.10502 l 5.50343,-16.54206 a 6.9906092,6.8267101 0 0 0 -2.54498,-7.65139 l -14.40968,-10.2235 a 10.172309,9.9338128 0 0 1 5.97949,-17.96999 h 17.81098 a 6.9890112,6.8251495 0 0 0 6.66352,-4.7276 l 5.50419,-16.54205 a 10.171909,9.9334227 0 0 1 19.34893,0 l 5.50421,16.54205 a 6.9890006,6.8251392 0 0 0 6.66345,4.7276 h 17.81088 a 10.172309,9.9338128 0 0 1 5.9795,17.96999 l -14.40968,10.2235 a 6.9905987,6.8266998 0 0 0 -2.54499,7.65139 l 5.50343,16.54206 a 10.02004,9.7851144 0 0 1 -3.69497,11.10502 10.142682,9.9048801 0 0 1 -5.97947,1.9336 z"
     fill="#6c63ff"
     id="path2-8"
     style="fill:url(#meshgradient20);stroke-width:1.03896;fill-opacity:1" />
  <path
     d="m 400.23815,281.9154 a 7.6635265,7.6635265 0 0 1 -4.51839,-1.49639 l -10.89004,-7.91185 a 5.289152,5.289152 0 0 0 -6.22504,0 l -10.89002,7.91185 a 7.6872434,7.6872434 0 0 1 -11.82982,-8.59404 l 4.15919,-12.80171 a 5.2831133,5.2831133 0 0 0 -1.92335,-5.92133 l -10.89004,-7.91185 a 7.6876649,7.6876649 0 0 1 4.51897,-13.90677 h 13.46054 a 5.2819056,5.2819056 0 0 0 5.03592,-3.65864 l 4.15976,-12.8017 a 7.6873628,7.6873628 0 0 1 14.62285,0 l 4.15977,12.8017 a 5.2818977,5.2818977 0 0 0 5.03587,3.65864 h 13.46046 a 7.6876649,7.6876649 0 0 1 4.51898,13.90677 l -10.89004,7.91185 a 5.2831054,5.2831054 0 0 0 -1.92336,5.92133 l 4.15919,12.80171 a 7.572589,7.572589 0 0 1 -2.79246,8.59404 7.6652742,7.6652742 0 0 1 -4.51894,1.49639 z"
     fill="#6c63ff"
     id="path2-5"
     style="fill:url(#meshgradient24);stroke-width:0.794559;fill-opacity:1" />
  <path
     d="m 267.3844,215.6546 a 7.7543925,8.19727 0 0 1 -4.56875,-1.59798 7.6597759,8.0972495 0 0 1 -2.8249,-9.18887 l 3.83002,-12.45815 a 4.168317,4.4063825 0 0 0 -1.51782,-4.9378 l -10.02587,-7.70038 a 7.7738718,8.2178618 0 0 1 4.56962,-14.86626 h 12.3921 a 4.166715,4.4046891 0 0 0 3.97313,-3.05213 l 3.83002,-12.45816 a 7.7739595,8.2179545 0 0 1 14.78686,0 l 3.82916,12.45816 a 4.167666,4.4056943 0 0 0 3.97356,3.05213 h 12.3921 a 7.7740546,8.2180551 0 0 1 4.56962,14.86626 l -10.02543,7.70038 a 4.1665468,4.4045112 0 0 0 -1.51823,4.9378 l 3.82967,12.45815 a 7.7742229,8.2182329 0 0 1 -11.96327,9.18794 L 286.891,206.35623 a 4.1674246,4.4054391 0 0 0 -4.91198,0 l -10.02543,7.69946 a 7.7486943,8.1912463 0 0 1 -4.56919,1.59891 z m 17.05082,-13.94756 a 7.7583571,8.201461 0 0 1 4.56875,1.57386 l 10.02543,7.69946 a 4.1778774,4.416489 0 0 0 6.42977,-4.93779 l -3.82916,-12.45815 a 7.7538585,8.1967055 0 0 1 2.82446,-9.18794 l 10.025,-7.70039 a 4.1781261,4.4167519 0 0 0 -2.45578,-7.98993 h -12.3921 a 7.7539098,8.1967596 0 0 1 -7.39321,-5.67831 l -3.8296,-12.45815 a 4.1781992,4.4168292 0 0 0 -7.94756,0 l -3.8296,12.45815 a 7.7529296,8.1957235 0 0 1 -7.39277,5.67831 h -12.3921 a 4.1781261,4.4167519 0 0 0 -2.45621,7.98993 l 10.02586,7.70039 a 7.7551972,8.1981206 0 0 1 2.82403,9.18794 l -3.83001,12.45815 a 4.1781041,4.4167287 0 0 0 6.42977,4.93779 l 10.02587,-7.69946 a 7.760632,8.2038658 0 0 1 4.56916,-1.57386 z"
     fill="#3f3d56"
     id="path13-6"
     style="fill:url(#meshgradient28);stroke-width:0.752076;fill-opacity:1" />
  <path
     d="m 331.0634,139.65369 a 11.602468,12.265121 0 0 1 -6.83597,-2.39097 11.460898,12.115466 0 0 1 -4.22674,-13.7488 l 5.73065,-18.64044 a 6.2368218,6.593026 0 0 0 -2.27103,-7.388147 L 308.45915,85.963679 a 11.631614,12.295931 0 0 1 6.83727,-22.243561 h 18.54162 a 6.2344248,6.5904922 0 0 0 5.94477,-4.566733 l 5.73065,-18.640455 a 11.631745,12.29607 0 0 1 22.12476,0 l 5.72936,18.640455 a 6.2358477,6.5919963 0 0 0 5.94541,4.566733 h 18.54162 a 11.631887,12.29622 0 0 1 6.83726,22.243561 l -15.00049,11.521654 a 6.2341731,6.5902261 0 0 0 -2.27164,7.388147 l 5.73012,18.64044 a 11.632139,12.296487 0 0 1 -17.89998,13.74741 l -14.99984,-11.52028 a 6.2354865,6.5916144 0 0 0 -7.34952,0 l -15.00049,11.52028 a 11.593942,12.256108 0 0 1 -6.83663,2.39236 z m 25.5122,-20.86896 a 11.6084,12.271392 0 0 1 6.83596,2.35488 l 15.0005,11.52027 a 6.2511265,6.6081478 0 0 0 9.62051,-7.38814 l -5.72936,-18.64044 a 11.601669,12.264276 0 0 1 4.22608,-13.747397 l 14.99985,-11.52167 a 6.2514986,6.6085411 0 0 0 -3.67444,-11.95489 h -18.54162 a 11.601746,12.264357 0 0 1 -11.06205,-8.49614 l -5.73002,-18.64044 a 6.2516079,6.6086568 0 0 0 -11.89149,0 l -5.73002,18.64044 a 11.600279,12.262807 0 0 1 -11.06139,8.49614 H 315.2965 a 6.2514986,6.6085411 0 0 0 -3.67509,11.95489 l 15.00114,11.52167 a 11.603672,12.266394 0 0 1 4.22543,13.747397 l -5.73063,18.64044 a 6.2514657,6.6085064 0 0 0 9.62051,7.38814 l 15.00116,-11.52027 a 11.611804,12.27499 0 0 1 6.83658,-2.35488 z"
     fill="#3f3d56"
     id="path13-6-9"
     style="fill:url(#meshgradient32);stroke-width:1.12529;fill-opacity:1" />
  <path
     d="m 46.864735,220.26051 a 11.602468,12.265121 0 0 1 -6.83597,-2.39097 11.460898,12.115466 0 0 1 -4.22674,-13.7488 l 5.73065,-18.64044 a 6.2368218,6.593026 0 0 0 -2.27103,-7.38815 L 24.260485,166.5705 a 11.631614,12.295931 0 0 1 6.83727,-22.24357 h 18.54162 a 6.2344248,6.5904922 0 0 0 5.94477,-4.56673 l 5.73065,-18.64046 a 11.631745,12.29607 0 0 1 22.12476,0 l 5.72936,18.64046 a 6.2358477,6.5919963 0 0 0 5.94541,4.56673 h 18.541615 a 11.631887,12.29622 0 0 1 6.83726,22.24357 l -15.00049,11.52165 a 6.2341731,6.5902261 0 0 0 -2.27164,7.38815 l 5.73012,18.64044 a 11.632139,12.296487 0 0 1 -17.899975,13.74741 l -14.99984,-11.52028 a 6.2354865,6.5916144 0 0 0 -7.34952,0 l -15.00049,11.52028 a 11.593942,12.256108 0 0 1 -6.83663,2.39236 z m 25.5122,-20.86896 a 11.6084,12.271392 0 0 1 6.83596,2.35488 l 15.0005,11.52027 a 6.2511265,6.6081478 0 0 0 9.620505,-7.38814 l -5.729355,-18.64044 a 11.601669,12.264276 0 0 1 4.226075,-13.7474 l 14.99985,-11.52167 a 6.2514986,6.6085411 0 0 0 -3.67444,-11.95489 H 95.114415 a 11.601746,12.264357 0 0 1 -11.06205,-8.49614 l -5.73002,-18.64044 a 6.2516079,6.6086568 0 0 0 -11.89149,0 l -5.73002,18.64044 a 11.600279,12.262807 0 0 1 -11.06139,8.49614 h -18.54161 a 6.2514986,6.6085411 0 0 0 -3.67509,11.95489 l 15.00114,11.52167 a 11.603672,12.266394 0 0 1 4.22543,13.7474 l -5.73063,18.64044 a 6.2514657,6.6085064 0 0 0 9.62051,7.38814 l 15.00116,-11.52027 a 11.611804,12.27499 0 0 1 6.83658,-2.35488 z"
     fill="#3f3d56"
     id="path13-6-9-2"
     style="fill:url(#meshgradient36);stroke-width:1.12529;fill-opacity:1" />
  <script
     id="mesh_polyfill"
     type="text/javascript">
!function(){const t=&quot;http://www.w3.org/2000/svg&quot;,e=&quot;http://www.w3.org/1999/xlink&quot;,s=&quot;http://www.w3.org/1999/xhtml&quot;,r=2;if(document.createElementNS(t,&quot;meshgradient&quot;).x)return;const n=(t,e,s,r)=&gt;{let n=new x(.5*(e.x+s.x),.5*(e.y+s.y)),o=new x(.5*(t.x+e.x),.5*(t.y+e.y)),i=new x(.5*(s.x+r.x),.5*(s.y+r.y)),a=new x(.5*(n.x+o.x),.5*(n.y+o.y)),h=new x(.5*(n.x+i.x),.5*(n.y+i.y)),l=new x(.5*(a.x+h.x),.5*(a.y+h.y));return[[t,o,a,l],[l,h,i,r]]},o=t=&gt;{let e=t[0].distSquared(t[1]),s=t[2].distSquared(t[3]),r=.25*t[0].distSquared(t[2]),n=.25*t[1].distSquared(t[3]),o=e&gt;s?e:s,i=r&gt;n?r:n;return 18*(o&gt;i?o:i)},i=(t,e)=&gt;Math.sqrt(t.distSquared(e)),a=(t,e)=&gt;t.scale(2/3).add(e.scale(1/3)),h=t=&gt;{let e,s,r,n,o,i,a,h=new g;return t.match(/(\w+\(\s*[^)]+\))+/g).forEach(t=&gt;{let l=t.match(/[\w.-]+/g),d=l.shift();switch(d){case&quot;translate&quot;:2===l.length?e=new g(1,0,0,1,l[0],l[1]):(console.error(&quot;mesh.js: translate does not have 2 arguments!&quot;),e=new g(1,0,0,1,0,0)),h=h.append(e);break;case&quot;scale&quot;:1===l.length?s=new g(l[0],0,0,l[0],0,0):2===l.length?s=new g(l[0],0,0,l[1],0,0):(console.error(&quot;mesh.js: scale does not have 1 or 2 arguments!&quot;),s=new g(1,0,0,1,0,0)),h=h.append(s);break;case&quot;rotate&quot;:if(3===l.length&amp;&amp;(e=new g(1,0,0,1,l[1],l[2]),h=h.append(e)),l[0]){r=l[0]*Math.PI/180;let t=Math.cos(r),e=Math.sin(r);Math.abs(t)&lt;1e-16&amp;&amp;(t=0),Math.abs(e)&lt;1e-16&amp;&amp;(e=0),a=new g(t,e,-e,t,0,0),h=h.append(a)}else console.error(&quot;math.js: No argument to rotate transform!&quot;);3===l.length&amp;&amp;(e=new g(1,0,0,1,-l[1],-l[2]),h=h.append(e));break;case&quot;skewX&quot;:l[0]?(r=l[0]*Math.PI/180,n=Math.tan(r),o=new g(1,0,n,1,0,0),h=h.append(o)):console.error(&quot;math.js: No argument to skewX transform!&quot;);break;case&quot;skewY&quot;:l[0]?(r=l[0]*Math.PI/180,n=Math.tan(r),i=new g(1,n,0,1,0,0),h=h.append(i)):console.error(&quot;math.js: No argument to skewY transform!&quot;);break;case&quot;matrix&quot;:6===l.length?h=h.append(new g(...l)):console.error(&quot;math.js: Incorrect number of arguments for matrix!&quot;);break;default:console.error(&quot;mesh.js: Unhandled transform type: &quot;+d)}}),h},l=t=&gt;{let e=[],s=t.split(/[ ,]+/);for(let t=0,r=s.length-1;t&lt;r;t+=2)e.push(new x(parseFloat(s[t]),parseFloat(s[t+1])));return e},d=(t,e)=&gt;{for(let s in e)t.setAttribute(s,e[s])},c=(t,e,s,r,n)=&gt;{let o,i,a=[0,0,0,0];for(let h=0;h&lt;3;++h)e[h]&lt;t[h]&amp;&amp;e[h]&lt;s[h]||t[h]&lt;e[h]&amp;&amp;s[h]&lt;e[h]?a[h]=0:(a[h]=.5*((e[h]-t[h])/r+(s[h]-e[h])/n),o=Math.abs(3*(e[h]-t[h])/r),i=Math.abs(3*(s[h]-e[h])/n),a[h]&gt;o?a[h]=o:a[h]&gt;i&amp;&amp;(a[h]=i));return a},u=[[1,0,0,0,0,0,0,0,0,0,0,0,0,0,0,0],[0,0,0,0,1,0,0,0,0,0,0,0,0,0,0,0],[-3,3,0,0,-2,-1,0,0,0,0,0,0,0,0,0,0],[2,-2,0,0,1,1,0,0,0,0,0,0,0,0,0,0],[0,0,0,0,0,0,0,0,1,0,0,0,0,0,0,0],[0,0,0,0,0,0,0,0,0,0,0,0,1,0,0,0],[0,0,0,0,0,0,0,0,-3,3,0,0,-2,-1,0,0],[0,0,0,0,0,0,0,0,2,-2,0,0,1,1,0,0],[-3,0,3,0,0,0,0,0,-2,0,-1,0,0,0,0,0],[0,0,0,0,-3,0,3,0,0,0,0,0,-2,0,-1,0],[9,-9,-9,9,6,3,-6,-3,6,-6,3,-3,4,2,2,1],[-6,6,6,-6,-3,-3,3,3,-4,4,-2,2,-2,-2,-1,-1],[2,0,-2,0,0,0,0,0,1,0,1,0,0,0,0,0],[0,0,0,0,2,0,-2,0,0,0,0,0,1,0,1,0],[-6,6,6,-6,-4,-2,4,2,-3,3,-3,3,-2,-1,-2,-1],[4,-4,-4,4,2,2,-2,-2,2,-2,2,-2,1,1,1,1]],f=t=&gt;{let e=[];for(let s=0;s&lt;16;++s){e[s]=0;for(let r=0;r&lt;16;++r)e[s]+=u[s][r]*t[r]}return e},p=(t,e,s)=&gt;{const r=e*e,n=s*s,o=e*e*e,i=s*s*s;return t[0]+t[1]*e+t[2]*r+t[3]*o+t[4]*s+t[5]*s*e+t[6]*s*r+t[7]*s*o+t[8]*n+t[9]*n*e+t[10]*n*r+t[11]*n*o+t[12]*i+t[13]*i*e+t[14]*i*r+t[15]*i*o},y=t=&gt;{let e=[],s=[],r=[];for(let s=0;s&lt;4;++s)e[s]=[],e[s][0]=n(t[0][s],t[1][s],t[2][s],t[3][s]),e[s][1]=[],e[s][1].push(...n(...e[s][0][0])),e[s][1].push(...n(...e[s][0][1])),e[s][2]=[],e[s][2].push(...n(...e[s][1][0])),e[s][2].push(...n(...e[s][1][1])),e[s][2].push(...n(...e[s][1][2])),e[s][2].push(...n(...e[s][1][3]));for(let t=0;t&lt;8;++t){s[t]=[];for(let r=0;r&lt;4;++r)s[t][r]=[],s[t][r][0]=n(e[0][2][t][r],e[1][2][t][r],e[2][2][t][r],e[3][2][t][r]),s[t][r][1]=[],s[t][r][1].push(...n(...s[t][r][0][0])),s[t][r][1].push(...n(...s[t][r][0][1])),s[t][r][2]=[],s[t][r][2].push(...n(...s[t][r][1][0])),s[t][r][2].push(...n(...s[t][r][1][1])),s[t][r][2].push(...n(...s[t][r][1][2])),s[t][r][2].push(...n(...s[t][r][1][3]))}for(let t=0;t&lt;8;++t){r[t]=[];for(let e=0;e&lt;8;++e)r[t][e]=[],r[t][e][0]=s[t][0][2][e],r[t][e][1]=s[t][1][2][e],r[t][e][2]=s[t][2][2][e],r[t][e][3]=s[t][3][2][e]}return r};class x{constructor(t,e){this.x=t||0,this.y=e||0}toString(){return`(x=${this.x}, y=${this.y})`}clone(){return new x(this.x,this.y)}add(t){return new x(this.x+t.x,this.y+t.y)}scale(t){return void 0===t.x?new x(this.x*t,this.y*t):new x(this.x*t.x,this.y*t.y)}distSquared(t){let e=this.x-t.x,s=this.y-t.y;return e*e+s*s}transform(t){let e=this.x*t.a+this.y*t.c+t.e,s=this.x*t.b+this.y*t.d+t.f;return new x(e,s)}}class g{constructor(t,e,s,r,n,o){void 0===t?(this.a=1,this.b=0,this.c=0,this.d=1,this.e=0,this.f=0):(this.a=t,this.b=e,this.c=s,this.d=r,this.e=n,this.f=o)}toString(){return`affine: ${this.a} ${this.c} ${this.e} \n       ${this.b} ${this.d} ${this.f}`}append(t){t instanceof g||console.error(&quot;mesh.js: argument to Affine.append is not affine!&quot;);let e=this.a*t.a+this.c*t.b,s=this.b*t.a+this.d*t.b,r=this.a*t.c+this.c*t.d,n=this.b*t.c+this.d*t.d,o=this.a*t.e+this.c*t.f+this.e,i=this.b*t.e+this.d*t.f+this.f;return new g(e,s,r,n,o,i)}}class w{constructor(t,e){this.nodes=t,this.colors=e}paintCurve(t,e){if(o(this.nodes)&gt;r){const s=n(...this.nodes);let r=[[],[]],o=[[],[]];for(let t=0;t&lt;4;++t)r[0][t]=this.colors[0][t],r[1][t]=(this.colors[0][t]+this.colors[1][t])/2,o[0][t]=r[1][t],o[1][t]=this.colors[1][t];let i=new w(s[0],r),a=new w(s[1],o);i.paintCurve(t,e),a.paintCurve(t,e)}else{let s=Math.round(this.nodes[0].x);if(s&gt;=0&amp;&amp;s&lt;e){let r=4*(~~this.nodes[0].y*e+s);t[r]=Math.round(this.colors[0][0]),t[r+1]=Math.round(this.colors[0][1]),t[r+2]=Math.round(this.colors[0][2]),t[r+3]=Math.round(this.colors[0][3])}}}}class m{constructor(t,e){this.nodes=t,this.colors=e}split(){let t=[[],[],[],[]],e=[[],[],[],[]],s=[[[],[]],[[],[]]],r=[[[],[]],[[],[]]];for(let s=0;s&lt;4;++s){const r=n(this.nodes[0][s],this.nodes[1][s],this.nodes[2][s],this.nodes[3][s]);t[0][s]=r[0][0],t[1][s]=r[0][1],t[2][s]=r[0][2],t[3][s]=r[0][3],e[0][s]=r[1][0],e[1][s]=r[1][1],e[2][s]=r[1][2],e[3][s]=r[1][3]}for(let t=0;t&lt;4;++t)s[0][0][t]=this.colors[0][0][t],s[0][1][t]=this.colors[0][1][t],s[1][0][t]=(this.colors[0][0][t]+this.colors[1][0][t])/2,s[1][1][t]=(this.colors[0][1][t]+this.colors[1][1][t])/2,r[0][0][t]=s[1][0][t],r[0][1][t]=s[1][1][t],r[1][0][t]=this.colors[1][0][t],r[1][1][t]=this.colors[1][1][t];return[new m(t,s),new m(e,r)]}paint(t,e){let s,n=!1;for(let t=0;t&lt;4;++t)if((s=o([this.nodes[0][t],this.nodes[1][t],this.nodes[2][t],this.nodes[3][t]]))&gt;r){n=!0;break}if(n){let s=this.split();s[0].paint(t,e),s[1].paint(t,e)}else{new w([...this.nodes[0]],[...this.colors[0]]).paintCurve(t,e)}}}class b{constructor(t){this.readMesh(t),this.type=t.getAttribute(&quot;type&quot;)||&quot;bilinear&quot;}readMesh(t){let e=[[]],s=[[]],r=Number(t.getAttribute(&quot;x&quot;)),n=Number(t.getAttribute(&quot;y&quot;));e[0][0]=new x(r,n);let o=t.children;for(let t=0,r=o.length;t&lt;r;++t){e[3*t+1]=[],e[3*t+2]=[],e[3*t+3]=[],s[t+1]=[];let r=o[t].children;for(let n=0,o=r.length;n&lt;o;++n){let o=r[n].children;for(let r=0,i=o.length;r&lt;i;++r){let i=r;0!==t&amp;&amp;++i;let h,d=o[r].getAttribute(&quot;path&quot;),c=&quot;l&quot;;null!=d&amp;&amp;(c=(h=d.match(/\s*([lLcC])\s*(.*)/))[1]);let u=l(h[2]);switch(c){case&quot;l&quot;:0===i?(e[3*t][3*n+3]=u[0].add(e[3*t][3*n]),e[3*t][3*n+1]=a(e[3*t][3*n],e[3*t][3*n+3]),e[3*t][3*n+2]=a(e[3*t][3*n+3],e[3*t][3*n])):1===i?(e[3*t+3][3*n+3]=u[0].add(e[3*t][3*n+3]),e[3*t+1][3*n+3]=a(e[3*t][3*n+3],e[3*t+3][3*n+3]),e[3*t+2][3*n+3]=a(e[3*t+3][3*n+3],e[3*t][3*n+3])):2===i?(0===n&amp;&amp;(e[3*t+3][3*n+0]=u[0].add(e[3*t+3][3*n+3])),e[3*t+3][3*n+1]=a(e[3*t+3][3*n],e[3*t+3][3*n+3]),e[3*t+3][3*n+2]=a(e[3*t+3][3*n+3],e[3*t+3][3*n])):(e[3*t+1][3*n]=a(e[3*t][3*n],e[3*t+3][3*n]),e[3*t+2][3*n]=a(e[3*t+3][3*n],e[3*t][3*n]));break;case&quot;L&quot;:0===i?(e[3*t][3*n+3]=u[0],e[3*t][3*n+1]=a(e[3*t][3*n],e[3*t][3*n+3]),e[3*t][3*n+2]=a(e[3*t][3*n+3],e[3*t][3*n])):1===i?(e[3*t+3][3*n+3]=u[0],e[3*t+1][3*n+3]=a(e[3*t][3*n+3],e[3*t+3][3*n+3]),e[3*t+2][3*n+3]=a(e[3*t+3][3*n+3],e[3*t][3*n+3])):2===i?(0===n&amp;&amp;(e[3*t+3][3*n+0]=u[0]),e[3*t+3][3*n+1]=a(e[3*t+3][3*n],e[3*t+3][3*n+3]),e[3*t+3][3*n+2]=a(e[3*t+3][3*n+3],e[3*t+3][3*n])):(e[3*t+1][3*n]=a(e[3*t][3*n],e[3*t+3][3*n]),e[3*t+2][3*n]=a(e[3*t+3][3*n],e[3*t][3*n]));break;case&quot;c&quot;:0===i?(e[3*t][3*n+1]=u[0].add(e[3*t][3*n]),e[3*t][3*n+2]=u[1].add(e[3*t][3*n]),e[3*t][3*n+3]=u[2].add(e[3*t][3*n])):1===i?(e[3*t+1][3*n+3]=u[0].add(e[3*t][3*n+3]),e[3*t+2][3*n+3]=u[1].add(e[3*t][3*n+3]),e[3*t+3][3*n+3]=u[2].add(e[3*t][3*n+3])):2===i?(e[3*t+3][3*n+2]=u[0].add(e[3*t+3][3*n+3]),e[3*t+3][3*n+1]=u[1].add(e[3*t+3][3*n+3]),0===n&amp;&amp;(e[3*t+3][3*n+0]=u[2].add(e[3*t+3][3*n+3]))):(e[3*t+2][3*n]=u[0].add(e[3*t+3][3*n]),e[3*t+1][3*n]=u[1].add(e[3*t+3][3*n]));break;case&quot;C&quot;:0===i?(e[3*t][3*n+1]=u[0],e[3*t][3*n+2]=u[1],e[3*t][3*n+3]=u[2]):1===i?(e[3*t+1][3*n+3]=u[0],e[3*t+2][3*n+3]=u[1],e[3*t+3][3*n+3]=u[2]):2===i?(e[3*t+3][3*n+2]=u[0],e[3*t+3][3*n+1]=u[1],0===n&amp;&amp;(e[3*t+3][3*n+0]=u[2])):(e[3*t+2][3*n]=u[0],e[3*t+1][3*n]=u[1]);break;default:console.error(&quot;mesh.js: &quot;+c+&quot; invalid path type.&quot;)}if(0===t&amp;&amp;0===n||r&gt;0){let e=window.getComputedStyle(o[r]).stopColor.match(/^rgb\s*\(\s*(\d+)\s*,\s*(\d+)\s*,\s*(\d+)\s*\)$/i),a=window.getComputedStyle(o[r]).stopOpacity,h=255;a&amp;&amp;(h=Math.floor(255*a)),e&amp;&amp;(0===i?(s[t][n]=[],s[t][n][0]=Math.floor(e[1]),s[t][n][1]=Math.floor(e[2]),s[t][n][2]=Math.floor(e[3]),s[t][n][3]=h):1===i?(s[t][n+1]=[],s[t][n+1][0]=Math.floor(e[1]),s[t][n+1][1]=Math.floor(e[2]),s[t][n+1][2]=Math.floor(e[3]),s[t][n+1][3]=h):2===i?(s[t+1][n+1]=[],s[t+1][n+1][0]=Math.floor(e[1]),s[t+1][n+1][1]=Math.floor(e[2]),s[t+1][n+1][2]=Math.floor(e[3]),s[t+1][n+1][3]=h):3===i&amp;&amp;(s[t+1][n]=[],s[t+1][n][0]=Math.floor(e[1]),s[t+1][n][1]=Math.floor(e[2]),s[t+1][n][2]=Math.floor(e[3]),s[t+1][n][3]=h))}}e[3*t+1][3*n+1]=new x,e[3*t+1][3*n+2]=new x,e[3*t+2][3*n+1]=new x,e[3*t+2][3*n+2]=new x,e[3*t+1][3*n+1].x=(-4*e[3*t][3*n].x+6*(e[3*t][3*n+1].x+e[3*t+1][3*n].x)+-2*(e[3*t][3*n+3].x+e[3*t+3][3*n].x)+3*(e[3*t+3][3*n+1].x+e[3*t+1][3*n+3].x)+-1*e[3*t+3][3*n+3].x)/9,e[3*t+1][3*n+2].x=(-4*e[3*t][3*n+3].x+6*(e[3*t][3*n+2].x+e[3*t+1][3*n+3].x)+-2*(e[3*t][3*n].x+e[3*t+3][3*n+3].x)+3*(e[3*t+3][3*n+2].x+e[3*t+1][3*n].x)+-1*e[3*t+3][3*n].x)/9,e[3*t+2][3*n+1].x=(-4*e[3*t+3][3*n].x+6*(e[3*t+3][3*n+1].x+e[3*t+2][3*n].x)+-2*(e[3*t+3][3*n+3].x+e[3*t][3*n].x)+3*(e[3*t][3*n+1].x+e[3*t+2][3*n+3].x)+-1*e[3*t][3*n+3].x)/9,e[3*t+2][3*n+2].x=(-4*e[3*t+3][3*n+3].x+6*(e[3*t+3][3*n+2].x+e[3*t+2][3*n+3].x)+-2*(e[3*t+3][3*n].x+e[3*t][3*n+3].x)+3*(e[3*t][3*n+2].x+e[3*t+2][3*n].x)+-1*e[3*t][3*n].x)/9,e[3*t+1][3*n+1].y=(-4*e[3*t][3*n].y+6*(e[3*t][3*n+1].y+e[3*t+1][3*n].y)+-2*(e[3*t][3*n+3].y+e[3*t+3][3*n].y)+3*(e[3*t+3][3*n+1].y+e[3*t+1][3*n+3].y)+-1*e[3*t+3][3*n+3].y)/9,e[3*t+1][3*n+2].y=(-4*e[3*t][3*n+3].y+6*(e[3*t][3*n+2].y+e[3*t+1][3*n+3].y)+-2*(e[3*t][3*n].y+e[3*t+3][3*n+3].y)+3*(e[3*t+3][3*n+2].y+e[3*t+1][3*n].y)+-1*e[3*t+3][3*n].y)/9,e[3*t+2][3*n+1].y=(-4*e[3*t+3][3*n].y+6*(e[3*t+3][3*n+1].y+e[3*t+2][3*n].y)+-2*(e[3*t+3][3*n+3].y+e[3*t][3*n].y)+3*(e[3*t][3*n+1].y+e[3*t+2][3*n+3].y)+-1*e[3*t][3*n+3].y)/9,e[3*t+2][3*n+2].y=(-4*e[3*t+3][3*n+3].y+6*(e[3*t+3][3*n+2].y+e[3*t+2][3*n+3].y)+-2*(e[3*t+3][3*n].y+e[3*t][3*n+3].y)+3*(e[3*t][3*n+2].y+e[3*t+2][3*n].y)+-1*e[3*t][3*n].y)/9}}this.nodes=e,this.colors=s}paintMesh(t,e){let s=(this.nodes.length-1)/3,r=(this.nodes[0].length-1)/3;if(&quot;bilinear&quot;===this.type||s&lt;2||r&lt;2){let n;for(let o=0;o&lt;s;++o)for(let s=0;s&lt;r;++s){let r=[];for(let t=3*o,e=3*o+4;t&lt;e;++t)r.push(this.nodes[t].slice(3*s,3*s+4));let i=[];i.push(this.colors[o].slice(s,s+2)),i.push(this.colors[o+1].slice(s,s+2)),(n=new m(r,i)).paint(t,e)}}else{let n,o,a,h,l,d,u;const x=s,g=r;s++,r++;let w=new Array(s);for(let t=0;t&lt;s;++t){w[t]=new Array(r);for(let e=0;e&lt;r;++e)w[t][e]=[],w[t][e][0]=this.nodes[3*t][3*e],w[t][e][1]=this.colors[t][e]}for(let t=0;t&lt;s;++t)for(let e=0;e&lt;r;++e)0!==t&amp;&amp;t!==x&amp;&amp;(n=i(w[t-1][e][0],w[t][e][0]),o=i(w[t+1][e][0],w[t][e][0]),w[t][e][2]=c(w[t-1][e][1],w[t][e][1],w[t+1][e][1],n,o)),0!==e&amp;&amp;e!==g&amp;&amp;(n=i(w[t][e-1][0],w[t][e][0]),o=i(w[t][e+1][0],w[t][e][0]),w[t][e][3]=c(w[t][e-1][1],w[t][e][1],w[t][e+1][1],n,o));for(let t=0;t&lt;r;++t){w[0][t][2]=[],w[x][t][2]=[];for(let e=0;e&lt;4;++e)n=i(w[1][t][0],w[0][t][0]),o=i(w[x][t][0],w[x-1][t][0]),w[0][t][2][e]=n&gt;0?2*(w[1][t][1][e]-w[0][t][1][e])/n-w[1][t][2][e]:0,w[x][t][2][e]=o&gt;0?2*(w[x][t][1][e]-w[x-1][t][1][e])/o-w[x-1][t][2][e]:0}for(let t=0;t&lt;s;++t){w[t][0][3]=[],w[t][g][3]=[];for(let e=0;e&lt;4;++e)n=i(w[t][1][0],w[t][0][0]),o=i(w[t][g][0],w[t][g-1][0]),w[t][0][3][e]=n&gt;0?2*(w[t][1][1][e]-w[t][0][1][e])/n-w[t][1][3][e]:0,w[t][g][3][e]=o&gt;0?2*(w[t][g][1][e]-w[t][g-1][1][e])/o-w[t][g-1][3][e]:0}for(let s=0;s&lt;x;++s)for(let r=0;r&lt;g;++r){let n=i(w[s][r][0],w[s+1][r][0]),o=i(w[s][r+1][0],w[s+1][r+1][0]),c=i(w[s][r][0],w[s][r+1][0]),x=i(w[s+1][r][0],w[s+1][r+1][0]),g=[[],[],[],[]];for(let t=0;t&lt;4;++t){(d=[])[0]=w[s][r][1][t],d[1]=w[s+1][r][1][t],d[2]=w[s][r+1][1][t],d[3]=w[s+1][r+1][1][t],d[4]=w[s][r][2][t]*n,d[5]=w[s+1][r][2][t]*n,d[6]=w[s][r+1][2][t]*o,d[7]=w[s+1][r+1][2][t]*o,d[8]=w[s][r][3][t]*c,d[9]=w[s+1][r][3][t]*x,d[10]=w[s][r+1][3][t]*c,d[11]=w[s+1][r+1][3][t]*x,d[12]=0,d[13]=0,d[14]=0,d[15]=0,u=f(d);for(let e=0;e&lt;9;++e){g[t][e]=[];for(let s=0;s&lt;9;++s)g[t][e][s]=p(u,e/8,s/8),g[t][e][s]&gt;255?g[t][e][s]=255:g[t][e][s]&lt;0&amp;&amp;(g[t][e][s]=0)}}h=[];for(let t=3*s,e=3*s+4;t&lt;e;++t)h.push(this.nodes[t].slice(3*r,3*r+4));l=y(h);for(let s=0;s&lt;8;++s)for(let r=0;r&lt;8;++r)(a=new m(l[s][r],[[[g[0][s][r],g[1][s][r],g[2][s][r],g[3][s][r]],[g[0][s][r+1],g[1][s][r+1],g[2][s][r+1],g[3][s][r+1]]],[[g[0][s+1][r],g[1][s+1][r],g[2][s+1][r],g[3][s+1][r]],[g[0][s+1][r+1],g[1][s+1][r+1],g[2][s+1][r+1],g[3][s+1][r+1]]]])).paint(t,e)}}}transform(t){if(t instanceof x)for(let e=0,s=this.nodes.length;e&lt;s;++e)for(let s=0,r=this.nodes[0].length;s&lt;r;++s)this.nodes[e][s]=this.nodes[e][s].add(t);else if(t instanceof g)for(let e=0,s=this.nodes.length;e&lt;s;++e)for(let s=0,r=this.nodes[0].length;s&lt;r;++s)this.nodes[e][s]=this.nodes[e][s].transform(t)}scale(t){for(let e=0,s=this.nodes.length;e&lt;s;++e)for(let s=0,r=this.nodes[0].length;s&lt;r;++s)this.nodes[e][s]=this.nodes[e][s].scale(t)}}document.querySelectorAll(&quot;rect,circle,ellipse,path,text&quot;).forEach((r,n)=&gt;{let o=r.getAttribute(&quot;id&quot;);o||(o=&quot;patchjs_shape&quot;+n,r.setAttribute(&quot;id&quot;,o));const i=r.style.fill.match(/^url\(\s*&quot;?\s*#([^\s&quot;]+)&quot;?\s*\)/),a=r.style.stroke.match(/^url\(\s*&quot;?\s*#([^\s&quot;]+)&quot;?\s*\)/);if(i&amp;&amp;i[1]){const a=document.getElementById(i[1]);if(a&amp;&amp;&quot;meshgradient&quot;===a.nodeName){const i=r.getBBox();let l=document.createElementNS(s,&quot;canvas&quot;);d(l,{width:i.width,height:i.height});const c=l.getContext(&quot;2d&quot;);let u=c.createImageData(i.width,i.height);const f=new b(a);&quot;objectBoundingBox&quot;===a.getAttribute(&quot;gradientUnits&quot;)&amp;&amp;f.scale(new x(i.width,i.height));const p=a.getAttribute(&quot;gradientTransform&quot;);null!=p&amp;&amp;f.transform(h(p)),&quot;userSpaceOnUse&quot;===a.getAttribute(&quot;gradientUnits&quot;)&amp;&amp;f.transform(new x(-i.x,-i.y)),f.paintMesh(u.data,l.width),c.putImageData(u,0,0);const y=document.createElementNS(t,&quot;image&quot;);d(y,{width:i.width,height:i.height,x:i.x,y:i.y});let g=l.toDataURL();y.setAttributeNS(e,&quot;xlink:href&quot;,g),r.parentNode.insertBefore(y,r),r.style.fill=&quot;none&quot;;const w=document.createElementNS(t,&quot;use&quot;);w.setAttributeNS(e,&quot;xlink:href&quot;,&quot;#&quot;+o);const m=&quot;patchjs_clip&quot;+n,M=document.createElementNS(t,&quot;clipPath&quot;);M.setAttribute(&quot;id&quot;,m),M.appendChild(w),r.parentElement.insertBefore(M,r),y.setAttribute(&quot;clip-path&quot;,&quot;url(#&quot;+m+&quot;)&quot;),u=null,l=null,g=null}}if(a&amp;&amp;a[1]){const o=document.getElementById(a[1]);if(o&amp;&amp;&quot;meshgradient&quot;===o.nodeName){const i=parseFloat(r.style.strokeWidth.slice(0,-2))*(parseFloat(r.style.strokeMiterlimit)||parseFloat(r.getAttribute(&quot;stroke-miterlimit&quot;))||1),a=r.getBBox(),l=Math.trunc(a.width+i),c=Math.trunc(a.height+i),u=Math.trunc(a.x-i/2),f=Math.trunc(a.y-i/2);let p=document.createElementNS(s,&quot;canvas&quot;);d(p,{width:l,height:c});const y=p.getContext(&quot;2d&quot;);let g=y.createImageData(l,c);const w=new b(o);&quot;objectBoundingBox&quot;===o.getAttribute(&quot;gradientUnits&quot;)&amp;&amp;w.scale(new x(l,c));const m=o.getAttribute(&quot;gradientTransform&quot;);null!=m&amp;&amp;w.transform(h(m)),&quot;userSpaceOnUse&quot;===o.getAttribute(&quot;gradientUnits&quot;)&amp;&amp;w.transform(new x(-u,-f)),w.paintMesh(g.data,p.width),y.putImageData(g,0,0);const M=document.createElementNS(t,&quot;image&quot;);d(M,{width:l,height:c,x:0,y:0});let S=p.toDataURL();M.setAttributeNS(e,&quot;xlink:href&quot;,S);const k=&quot;pattern_clip&quot;+n,A=document.createElementNS(t,&quot;pattern&quot;);d(A,{id:k,patternUnits:&quot;userSpaceOnUse&quot;,width:l,height:c,x:u,y:f}),A.appendChild(M),o.parentNode.appendChild(A),r.style.stroke=&quot;url(#&quot;+k+&quot;)&quot;,g=null,p=null,S=null}}})}();
</script>
</svg>
