<?xml version="1.0" encoding="UTF-8" standalone="no"?>
<svg
   width="857.75789"
   height="609.99815"
   viewBox="0 0 857.75789 609.99815"
   role="img"
   artist="Katerina Limpitsouni"
   source="https://undraw.co/"
   version="1.1"
   id="svg62"
   sodipodi:docname="categories.svg"
   inkscape:version="1.4.2 (ebf0e940, 2025-05-08)"
   xmlns:inkscape="http://www.inkscape.org/namespaces/inkscape"
   xmlns:sodipodi="http://sodipodi.sourceforge.net/DTD/sodipodi-0.dtd"
   xmlns="http://www.w3.org/2000/svg"
   xmlns:svg="http://www.w3.org/2000/svg">
  <defs
     id="defs62" />
  <sodipodi:namedview
     id="namedview62"
     pagecolor="#ffffff"
     bordercolor="#000000"
     borderopacity="0.25"
     inkscape:showpageshadow="2"
     inkscape:pageopacity="0.0"
     inkscape:pagecheckerboard="0"
     inkscape:deskcolor="#d1d1d1"
     inkscape:zoom="0.96997069"
     inkscape:cx="428.36346"
     inkscape:cy="296.91619"
     inkscape:window-width="1920"
     inkscape:window-height="937"
     inkscape:window-x="0"
     inkscape:window-y="25"
     inkscape:window-maximized="1"
     inkscape:current-layer="svg62" />
  <path
     d="m 306.43132,124.37281 c -1.75098,0.003 -3.16989,1.52134 -3.17182,3.39601 v 59.51016 c 0.002,1.87466 1.42084,3.39387 3.17182,3.39601 h 78.62111 c 1.75097,-0.003 3.16989,-1.52135 3.17181,-3.39601 v -59.51016 c -0.002,-1.87467 -1.42084,-3.39388 -3.17181,-3.39601 z"
     fill="#e6e6e6"
     id="path18"
     style="stroke-width:0.53307" />
  <path
     d="m 356.77708,187.77884 h -48.1242 c -1.88453,-0.003 -3.41171,-1.63739 -3.41377,-3.65505 v -53.97518 c 0.003,-2.01767 1.52924,-3.65279 3.41377,-3.65506 h 74.17842 c 1.88457,0.003 3.41179,1.63736 3.41389,3.65506 v 26.08028 c -0.0184,17.41637 -13.20094,31.53023 -29.46811,31.54995 z"
     fill="#ffffff"
     id="path19"
     style="stroke-width:0.53307" />
  <path
     d="m 337.92595,141.43074 h -11.43599 c -0.60313,0 -1.09208,-0.52349 -1.09208,-1.16924 0,-0.64575 0.48895,-1.16923 1.09208,-1.16923 h 11.43596 c 0.60313,0 1.09209,0.52348 1.09209,1.16923 0,0.64575 -0.48897,1.16924 -1.09209,1.16924 z"
     fill="#6c63ff"
     id="path20"
     style="stroke-width:0.53307" />
  <path
     d="M 363.56158,146.21296 H 326.49 c -0.60313,0 -1.09209,-0.52348 -1.09209,-1.16924 0,-0.64575 0.48896,-1.16924 1.09209,-1.16924 h 37.07158 c 0.60314,0 1.09209,0.52349 1.09209,1.16924 0,0.64576 -0.48896,1.16924 -1.09209,1.16924 z"
     fill="#e6e6e6"
     id="path21"
     style="stroke-width:0.53307" />
  <path
     d="M 363.56158,151.70229 H 326.49 c -0.60313,0 -1.09209,-0.52349 -1.09209,-1.16925 0,-0.64575 0.48896,-1.16924 1.09209,-1.16924 h 37.07158 c 0.60314,0 1.09209,0.52349 1.09209,1.16924 0,0.64576 -0.48896,1.16925 -1.09209,1.16925 z"
     fill="#e6e6e6"
     id="path22"
     style="stroke-width:0.53307" />
  <path
     d="M 363.56158,157.19161 H 326.49 c -0.60313,0 -1.09209,-0.52349 -1.09209,-1.16924 0,-0.64575 0.48896,-1.16924 1.09209,-1.16924 h 37.07158 c 0.60314,0 1.09209,0.52349 1.09209,1.16924 0,0.64575 -0.48896,1.16924 -1.09209,1.16924 z"
     fill="#e6e6e6"
     id="path23"
     style="stroke-width:0.53307" />
  <path
     d="M 363.56158,162.68094 H 326.49 c -0.60313,0 -1.09209,-0.52349 -1.09209,-1.16924 0,-0.64576 0.48896,-1.16925 1.09209,-1.16925 h 37.07158 c 0.60314,0 1.09209,0.52349 1.09209,1.16925 0,0.64575 -0.48896,1.16924 -1.09209,1.16924 z"
     fill="#e6e6e6"
     id="path24"
     style="stroke-width:0.53307" />
  <path
     d="m 393.28537,165.92147 h -15.51933 c -3.08631,0 -5.58827,2.6787 -5.58827,5.98304 v 0 c 0,3.30436 -2.50195,5.98308 -5.58827,5.98308 h -51.73958 c -3.08631,0 -5.58828,-2.67872 -5.58828,-5.98306 v -2e-5 l -1.02302,-6.06519 0.0664,0.0822 -0.0664,-0.0822 -9.37859,-12.8013 c -0.62267,-0.86368 -1.58717,-1.36529 -2.60617,-1.35543 h -17.58837 c -1.8283,0.003 -3.30987,1.58858 -3.31205,3.54603 l -0.36317,10.61069 h -6.64935 c -5.87338,0 -10.6347,5.09767 -10.6347,11.38599 v 74.15675 c 0,5.58036 4.22528,10.10413 9.43741,10.10413 h 126.14173 c 5.20905,-0.007 9.42984,-4.52708 9.43484,-10.10411 v -75.35922 c 0,-5.57883 -4.22413,-10.10138 -9.43484,-10.10138 v 0 z"
     fill="#e6e6e6"
     id="path25"
     style="stroke-width:0.53307" />
  <path
     d="m 308.24374,165.56549 h -32.8903 V 154.9548 c 0.003,-1.95745 1.48376,-3.54369 3.31206,-3.54603 h 17.58838 c 1.01901,-0.01 1.98351,0.49175 2.60617,1.35543 z"
     fill="#cccccc"
     id="path26"
     style="stroke-width:0.53307" />
  <path
     d="M 325.08434,253.3262 H 270.1661 c -3.61964,-0.005 -6.55291,-3.14487 -6.55701,-7.02022 v -16.08024 c 0.004,-3.87534 2.93737,-7.01583 6.55701,-7.02021 h 65.91476 c 3.61965,0.005 6.55292,3.14487 6.55701,7.02021 v 4.30686 c -0.011,10.37455 -7.86351,18.78184 -17.55353,18.7936 z"
     fill="#ffffff"
     id="path27"
     style="stroke-width:0.53307" />
  <path
     d="m 285.97488,235.33502 h -13.55511 c -1.83625,0 -3.32483,-1.59374 -3.32483,-3.55971 0,-1.96597 1.48858,-3.55972 3.32483,-3.55972 h 13.55511 c 1.83625,-0.003 3.32675,1.58915 3.32912,3.55512 0.003,1.96599 -1.48429,3.56177 -3.32055,3.56431 h -0.008 z"
     fill="#6c63ff"
     id="path28"
     style="stroke-width:0.53307" />
  <path
     d="m 332.01107,246.56182 h -59.5913 c -1.83625,0 -3.32483,-1.59375 -3.32483,-3.55971 0,-1.96597 1.48858,-3.55971 3.32483,-3.55971 h 59.5913 c 1.83624,-0.003 3.32677,1.58914 3.32913,3.55511 0.003,1.96599 -1.4843,3.56178 -3.32054,3.56432 h -0.008 z"
     fill="#6c63ff"
     id="path29"
     style="stroke-width:0.53307" />
  <path
     d="m 397.60113,270.36104 c -7.44433,0 -13.47914,-6.46113 -13.47914,-14.43136 0,-7.97023 6.03481,-14.43136 13.47914,-14.43136 7.44432,0 13.47913,6.46113 13.47913,14.43136 v 0 c 0,7.97023 -6.03481,14.43136 -13.47913,14.43136 z"
     fill="#6c63ff"
     id="path48"
     style="stroke-width:0.53307" />
  <path
     d="m 402.91964,254.50613 h -3.98887 v -4.27071 c 0,-0.78622 -0.59529,-1.42357 -1.32964,-1.42357 -0.73434,0 -1.32965,0.63736 -1.32965,1.42357 v 4.27071 h -3.98893 c -0.73434,0 -1.32961,0.63735 -1.32961,1.42359 0,0.78622 0.59528,1.42354 1.32961,1.42354 h 3.98893 v 4.27072 c 0,0.78622 0.59531,1.42358 1.32965,1.42358 0.73435,0 1.32964,-0.63736 1.32964,-1.42358 v -4.27072 h 3.98887 c 0.73434,0 1.32961,-0.63736 1.32961,-1.42354 0,-0.78619 -0.59527,-1.42359 -1.32961,-1.42359 z"
     fill="#ffffff"
     id="path49"
     style="stroke-width:0.53307" />
  <path
     d="m 504.56635,126.66574 c -1.24551,0.002 -2.25481,1.08217 -2.25618,2.41566 v 42.33087 c 10e-4,1.33349 1.01067,2.41414 2.25618,2.41566 h 55.92492 c 1.2455,-0.002 2.25481,-1.08217 2.25618,-2.41566 V 129.0814 c -10e-4,-1.33349 -1.01068,-2.41414 -2.25618,-2.41566 z"
     fill="#e6e6e6"
     id="path18-8"
     style="stroke-width:0.379184" />
  <path
     d="M 540.37839,171.76785 H 506.1466 c -1.34051,-0.002 -2.42683,-1.16472 -2.42829,-2.59993 v -38.39373 c 0.002,-1.43521 1.08778,-2.5983 2.42829,-2.59992 h 52.76473 c 1.34054,0.002 2.42688,1.16469 2.42838,2.59992 v 18.55148 c -0.0131,12.38864 -9.39013,22.42814 -20.96132,22.44218 z"
     fill="#ffffff"
     id="path19-0"
     style="stroke-width:0.379184" />
  <path
     d="m 526.96917,138.79942 h -8.13467 c -0.42902,0 -0.77682,-0.37236 -0.77682,-0.8317 0,-0.45934 0.3478,-0.83171 0.77682,-0.83171 h 8.13465 c 0.42902,0 0.77682,0.37237 0.77682,0.83171 0,0.45934 -0.3478,0.8317 -0.77682,0.8317 z"
     fill="#6c63ff"
     id="path20-4"
     style="fill:#ff5555;stroke-width:0.379184" />
  <path
     d="m 545.20436,142.20112 h -26.36983 c -0.42902,0 -0.77683,-0.37237 -0.77683,-0.8317 0,-0.45934 0.34781,-0.83171 0.77683,-0.83171 h 26.36983 c 0.42902,0 0.77682,0.37237 0.77682,0.83171 0,0.45933 -0.3478,0.8317 -0.77682,0.8317 z"
     fill="#e6e6e6"
     id="path21-6"
     style="stroke-width:0.379184" />
  <path
     d="m 545.20436,146.1058 h -26.36983 c -0.42902,0 -0.77683,-0.37237 -0.77683,-0.83171 0,-0.45934 0.34781,-0.83171 0.77683,-0.83171 h 26.36983 c 0.42902,0 0.77682,0.37237 0.77682,0.83171 0,0.45934 -0.3478,0.83171 -0.77682,0.83171 z"
     fill="#e6e6e6"
     id="path22-0"
     style="stroke-width:0.379184" />
  <path
     d="m 545.20436,150.01047 h -26.36983 c -0.42902,0 -0.77683,-0.37236 -0.77683,-0.8317 0,-0.45934 0.34781,-0.83171 0.77683,-0.83171 h 26.36983 c 0.42902,0 0.77682,0.37237 0.77682,0.83171 0,0.45934 -0.3478,0.8317 -0.77682,0.8317 z"
     fill="#e6e6e6"
     id="path23-3"
     style="stroke-width:0.379184" />
  <path
     d="m 545.20436,153.91515 h -26.36983 c -0.42902,0 -0.77683,-0.37236 -0.77683,-0.8317 0,-0.45934 0.34781,-0.83171 0.77683,-0.83171 h 26.36983 c 0.42902,0 0.77682,0.37237 0.77682,0.83171 0,0.45934 -0.3478,0.8317 -0.77682,0.8317 z"
     fill="#e6e6e6"
     id="path24-2"
     style="stroke-width:0.379184" />
  <path
     d="M 566.34754,156.22021 H 555.3083 c -2.19536,0 -3.97506,1.90543 -3.97506,4.25588 v 0 c 0,2.35045 -1.77969,4.25589 -3.97505,4.25589 h -36.8035 c -2.19536,0 -3.97507,-1.90543 -3.97507,-4.25588 v -1e-5 l -0.7277,-4.31431 0.0473,0.0584 -0.0473,-0.0584 -6.6712,-9.10585 c -0.44291,-0.61435 -1.12898,-0.97116 -1.85382,-0.96415 h -12.511 c -1.3005,0.002 -2.35438,1.13 -2.35593,2.52237 l -0.25833,7.54762 h -4.72982 c -4.17787,0 -7.5647,3.62609 -7.5647,8.09911 v 52.74931 c 0,3.96944 3.00553,7.1873 6.71304,7.1873 h 89.72737 c 3.70531,-0.005 6.70765,-3.22021 6.71121,-7.18729 v -53.60466 c 0,-3.96834 -3.00471,-7.18533 -6.71121,-7.18533 v 0 z"
     fill="#e6e6e6"
     id="path25-6"
     style="stroke-width:0.379184" />
  <path
     d="m 505.85556,155.967 h -23.39559 v -7.54762 c 0.002,-1.39238 1.05544,-2.52071 2.35594,-2.52237 h 12.51101 c 0.72484,-0.007 1.41091,0.3498 1.85382,0.96415 z"
     fill="#cccccc"
     id="path26-9"
     style="stroke-width:0.379184" />
  <path
     d="m 517.83465,218.39311 h -39.06454 c -2.57473,-0.003 -4.66124,-2.23701 -4.66415,-4.99363 v -11.43823 c 0.003,-2.75662 2.08942,-4.99052 4.66415,-4.99363 h 46.88661 c 2.57473,0.003 4.66123,2.23701 4.66414,4.99363 v 3.06356 c -0.008,7.37965 -5.59349,13.35993 -12.48621,13.3683 z"
     fill="#ffffff"
     id="path27-4"
     style="stroke-width:0.379184" />
  <path
     d="m 490.01524,205.5956 h -9.64205 c -1.30616,0 -2.36503,-1.13367 -2.36503,-2.53211 0,-1.39844 1.05887,-2.5321 2.36503,-2.5321 h 9.64205 c 1.30616,-0.002 2.36639,1.13039 2.36807,2.52884 0.002,1.39844 -1.0558,2.53356 -2.36198,2.53537 h -0.006 z"
     fill="#6c63ff"
     id="path28-1"
     style="fill:#ff5555;stroke-width:0.379184" />
  <path
     d="m 522.76179,213.58146 h -42.3886 c -1.30616,0 -2.36503,-1.13366 -2.36503,-2.5321 0,-1.39844 1.05887,-2.5321 2.36503,-2.5321 h 42.3886 c 1.30616,-0.002 2.3664,1.1304 2.36808,2.52883 0.002,1.39845 -1.05581,2.53357 -2.36197,2.53538 h -0.006 z"
     fill="#6c63ff"
     id="path29-3"
     style="fill:#ff5555;stroke-width:0.379184" />
  <path
     d="m 569.41743,230.51037 c -5.29531,0 -9.58801,-4.59595 -9.58801,-10.26534 0,-5.66941 4.2927,-10.26535 9.58801,-10.26535 5.29531,0 9.588,4.59594 9.588,10.26535 v 0 c 0,5.66939 -4.29269,10.26534 -9.588,10.26534 z"
     fill="#6c63ff"
     id="path48-7"
     style="fill:#ff5555;stroke-width:0.379184" />
  <path
     d="m 573.2006,219.23242 h -2.83736 v -3.03784 c 0,-0.55926 -0.42345,-1.01262 -0.94581,-1.01262 -0.52235,0 -0.94581,0.45336 -0.94581,1.01262 v 3.03784 h -2.83741 c -0.52235,0 -0.94578,0.45337 -0.94578,1.01263 0,0.55925 0.42343,1.0126 0.94578,1.0126 h 2.83741 v 3.03785 c 0,0.55926 0.42346,1.01263 0.94581,1.01263 0.52236,0 0.94581,-0.45337 0.94581,-1.01263 v -3.03785 h 2.83736 c 0.52236,0 0.94579,-0.45337 0.94579,-1.0126 0,-0.55923 -0.42343,-1.01263 -0.94579,-1.01263 z"
     fill="#ffffff"
     id="path49-8"
     style="fill:#ffffff;stroke-width:0.379184" />
  <path
     d="m 454.83874,238.43972 c -1.41863,0.002 -2.56822,1.23258 -2.56978,2.75141 v 48.21447 c 0.002,1.51883 1.15115,2.74968 2.56978,2.75142 h 63.69795 c 1.41862,-0.002 2.56821,-1.23259 2.56977,-2.75142 v -48.21447 c -0.002,-1.51883 -1.15115,-2.74968 -2.56977,-2.75141 z"
     fill="#e6e6e6"
     id="path18-8-3"
     style="stroke-width:0.431887" />
  <path
     d="m 495.62831,289.81059 h -38.98969 c -1.52683,-0.002 -2.76413,-1.3266 -2.7658,-2.96128 v -43.7301 c 0.002,-1.63469 1.23897,-2.95944 2.7658,-2.96129 h 60.09854 c 1.52685,0.002 2.76419,1.32657 2.7659,2.96129 v 21.12995 c -0.0149,14.11056 -10.69526,25.54545 -23.87475,25.56143 z"
     fill="#ffffff"
     id="path19-0-8"
     style="stroke-width:0.431887" />
  <path
     d="m 480.35534,252.25987 h -9.26531 c -0.48866,0 -0.8848,-0.42412 -0.8848,-0.94731 0,-0.52318 0.39615,-0.9473 0.8848,-0.9473 h 9.26528 c 0.48866,0 0.8848,0.42412 0.8848,0.9473 0,0.52319 -0.39615,0.94731 -0.8848,0.94731 z"
     fill="#6c63ff"
     id="path20-4-1"
     style="fill:#008000;stroke-width:0.431887" />
  <path
     d="m 501.12505,256.13437 h -30.035 c -0.48864,0 -0.88479,-0.42412 -0.88479,-0.9473 0,-0.52319 0.39615,-0.94731 0.88479,-0.94731 h 30.035 c 0.48865,0 0.88479,0.42412 0.88479,0.94731 0,0.52318 -0.39614,0.9473 -0.88479,0.9473 z"
     fill="#e6e6e6"
     id="path21-6-5"
     style="stroke-width:0.431887" />
  <path
     d="m 501.12505,260.58176 h -30.035 c -0.48864,0 -0.88479,-0.42412 -0.88479,-0.94731 0,-0.52318 0.39615,-0.9473 0.88479,-0.9473 h 30.035 c 0.48865,0 0.88479,0.42412 0.88479,0.9473 0,0.52319 -0.39614,0.94731 -0.88479,0.94731 z"
     fill="#e6e6e6"
     id="path22-0-3"
     style="stroke-width:0.431887" />
  <path
     d="m 501.12505,265.02915 h -30.035 c -0.48864,0 -0.88479,-0.42412 -0.88479,-0.9473 0,-0.52318 0.39615,-0.94731 0.88479,-0.94731 h 30.035 c 0.48865,0 0.88479,0.42413 0.88479,0.94731 0,0.52318 -0.39614,0.9473 -0.88479,0.9473 z"
     fill="#e6e6e6"
     id="path23-3-5"
     style="stroke-width:0.431887" />
  <path
     d="m 501.12505,269.47655 h -30.035 c -0.48864,0 -0.88479,-0.42412 -0.88479,-0.94731 0,-0.52318 0.39615,-0.94731 0.88479,-0.94731 h 30.035 c 0.48865,0 0.88479,0.42413 0.88479,0.94731 0,0.52319 -0.39614,0.94731 -0.88479,0.94731 z"
     fill="#e6e6e6"
     id="path24-2-4"
     style="stroke-width:0.431887" />
  <path
     d="m 525.20693,272.10198 h -12.57359 c -2.50049,0 -4.52755,2.17027 -4.52755,4.84741 v 0 c 0,2.67714 -2.02706,4.84741 -4.52756,4.84741 h -41.91884 c -2.50049,0 -4.52755,-2.17025 -4.52755,-4.8474 v -1e-5 l -0.82886,-4.91396 0.0539,0.0665 -0.0539,-0.0665 -7.59842,-10.37147 c -0.50447,-0.69974 -1.2859,-1.10615 -2.11148,-1.09815 h -14.24991 c -1.48127,0.002 -2.68163,1.28704 -2.68339,2.87294 l -0.29424,8.59667 h -5.38722 c -4.75855,0 -8.61612,4.13008 -8.61612,9.2248 v 60.08098 c 0,4.52115 3.42327,8.18626 7.64609,8.18626 h 102.19863 c 4.22031,-0.006 7.63995,-3.66778 7.644,-8.18625 v -61.0552 c 0,-4.5199 -3.42233,-8.18403 -7.644,-8.18403 v 0 z"
     fill="#e6e6e6"
     id="path25-6-3"
     style="stroke-width:0.431887" />
  <path
     d="m 456.30714,271.81357 h -26.64736 v -8.59666 c 0.002,-1.5859 1.20213,-2.87106 2.68339,-2.87295 h 14.24992 c 0.82558,-0.008 1.60702,0.39841 2.11149,1.09815 z"
     fill="#cccccc"
     id="path26-9-6"
     style="stroke-width:0.431887" />
  <path
     d="m 469.95121,342.91634 h -44.49415 c -2.9326,-0.004 -5.3091,-2.54794 -5.31242,-5.68771 V 324.2006 c 0.003,-3.13977 2.37982,-5.68415 5.31242,-5.68771 h 53.40341 c 2.93259,0.004 5.3091,2.54794 5.31241,5.68771 v 3.48937 c -0.009,8.40534 -6.37093,15.21683 -14.22167,15.22637 z"
     fill="#ffffff"
     id="path27-4-5"
     style="stroke-width:0.431887" />
  <path
     d="m 438.26515,328.34008 h -10.9822 c -1.4877,0 -2.69374,-1.29124 -2.69374,-2.88404 0,-1.59281 1.20604,-2.88404 2.69374,-2.88404 h 10.9822 c 1.48771,-0.002 2.6953,1.28751 2.69722,2.88032 0.002,1.59282 -1.20255,2.8857 -2.69027,2.88776 h -0.007 z"
     fill="#6c63ff"
     id="path28-1-9"
     style="fill:#008000;stroke-width:0.431887" />
  <path
     d="m 475.56317,337.43591 h -48.28022 c -1.4877,0 -2.69374,-1.29124 -2.69374,-2.88404 0,-1.59281 1.20604,-2.88404 2.69374,-2.88404 h 48.28022 c 1.4877,-0.002 2.69531,1.28751 2.69723,2.88032 0.002,1.59282 -1.20257,2.88571 -2.69027,2.88776 h -0.007 z"
     fill="#6c63ff"
     id="path29-3-5"
     style="fill:#008000;stroke-width:0.431887" />
  <path
     d="m 528.70351,356.71778 c -6.03131,0 -10.92065,-5.23474 -10.92065,-11.69213 0,-6.4574 4.88934,-11.69214 10.92065,-11.69214 6.0313,0 10.92064,5.23474 10.92064,11.69214 v 0 c 0,6.45739 -4.88934,11.69213 -10.92064,11.69213 z"
     fill="#6c63ff"
     id="path48-7-4"
     style="fill:#008000;stroke-width:0.431887" />
  <path
     d="m 533.01251,343.8723 h -3.23173 v -3.46008 c 0,-0.63699 -0.48231,-1.15336 -1.07727,-1.15336 -0.59496,0 -1.07727,0.51637 -1.07727,1.15336 v 3.46008 h -3.23178 c -0.59496,0 -1.07724,0.51638 -1.07724,1.15337 0,0.63699 0.48228,1.15334 1.07724,1.15334 h 3.23178 v 3.46009 c 0,0.63699 0.48231,1.15337 1.07727,1.15337 0.59496,0 1.07727,-0.51638 1.07727,-1.15337 v -3.46009 h 3.23173 c 0.59496,0 1.07724,-0.51638 1.07724,-1.15334 0,-0.63696 -0.48229,-1.15337 -1.07724,-1.15337 z"
     fill="#ffffff"
     id="path49-8-9"
     style="fill:#ffffff;stroke-width:0.431887" />
</svg>
