<?xml version="1.0" encoding="UTF-8" standalone="no"?>
<!-- Generator: Adobe Illustrator 24.0.1, SVG Export Plug-In . SVG Version: 6.00 Build 0)  -->

<svg
   version="1.1"
   id="svg62"
   inkscape:version="1.4.2 (ebf0e940, 2025-05-08)"
   sodipodi:docname="emptyCategoriesIcon.svg"
   x="0px"
   y="0px"
   viewBox="0 0 124.1 102.06239"
   xml:space="preserve"
   width="124.1"
   height="102.06239"
   xmlns:inkscape="http://www.inkscape.org/namespaces/inkscape"
   xmlns:sodipodi="http://sodipodi.sourceforge.net/DTD/sodipodi-0.dtd"
   xmlns="http://www.w3.org/2000/svg"
   xmlns:svg="http://www.w3.org/2000/svg"><defs
   id="defs1" />
<style
   type="text/css"
   id="style1">
	.st0{fill:#E6E6E6;}
	.st1{fill:#FFFFFF;}
	.st2{fill:#6C63FF;}
	.st3{fill:#CCCCCC;}
	.st4{fill:#FF5555;}
	.st5{fill:#008000;}
</style>
<sodipodi:namedview
   bordercolor="#000000"
   borderopacity="0.25"
   id="namedview62"
   inkscape:current-layer="svg62"
   inkscape:cx="52.707778"
   inkscape:cy="42.913668"
   inkscape:deskcolor="#d1d1d1"
   inkscape:pagecheckerboard="0"
   inkscape:pageopacity="0.0"
   inkscape:showpageshadow="2"
   inkscape:window-height="942"
   inkscape:window-maximized="0"
   inkscape:window-width="1920"
   inkscape:window-x="0"
   inkscape:window-y="25"
   inkscape:zoom="3.8798828"
   pagecolor="#ffffff">
	</sodipodi:namedview>




























<path
   id="path18-8-3"
   class="st0"
   d="m 39.3,0.1 c -1.4,0 -2.6,1.2 -2.6,2.8 V 51 c 0,1.5 1.2,2.7 2.6,2.8 H 103 c 1.4,0 2.6,-1.2 2.6,-2.8 V 2.8 C 105.6,1.3 104.4,0.1 103,0 H 39.3 Z" />
<path
   id="path19-0-8"
   class="st1"
   d="M 80.029779,50.884521 H 41.335771 c -1.48823,0 -2.778031,-1.279775 -2.778031,-2.953327 V 4.911067 c 0,-1.575108 1.190585,-2.953327 2.778031,-2.953327 h 59.628459 c 1.48823,0 2.77803,1.279775 2.77803,2.953327 v 20.771732 c 0,13.97908 -10.616047,25.201722 -23.712481,25.201722 z"
   style="stroke-width:0.988291" />





<path
   id="path25-6-3"
   class="st0"
   d="M 109.7,17.462396 H 97.1 c -2.5,0 -4.5,2.2 -4.5,4.8 v 0 c 0,2.7 -2,4.8 -4.5,4.8 H 46.2 c -2.5,0 -4.5,-2.2 -4.5,-4.8 v 0 l -0.8,-4.9 0.1,0.1 -0.1,-0.1 -7.6,-10.4 c -0.5,-0.7 -1.3,-1.1 -2.1,-1.1 H 17 c -1.5,0 -2.7,1.3 -2.7,2.9 l -0.3,8.6 H 8.6 c -4.8,0 -8.6,4.1 -8.6,9.2 v 60.2 c 0,4.5 3.4,8.2 7.6,8.2 h 102.2 c 4.2,0 7.6,-3.7 7.6,-8.2 v -61.1 c -0.1,-4.5 -3.5,-8.2 -7.7,-8.2 z" />
<path
   id="path26-9-6"
   class="st3"
   d="M 40.8,17.162396 H 14.2 v -8.6 c 0,-1.6 1.2,-2.9 2.7,-2.9 h 14.2 c 0.8,0 1.6,0.4 2.1,1.1 z" />
<path
   id="path27-4-5"
   class="st1"
   d="M 54.4,88.262396 H 9.9 c -2.9,0 -5.3,-2.5 -5.3,-5.7 v -13 c 0,-3.1 2.4,-5.7 5.3,-5.7 h 53.4 c 2.9,0 5.3,2.5 5.3,5.7 v 3.5 c 0.1,8.4 -6.3,15.2 -14.2,15.2 z" />
<path
   id="path28-1-9"
   class="st5"
   d="m 22.8,73.762396 h -11 c -1.5,0 -2.7,-1.3 -2.7,-2.9 0,-1.6 1.2,-2.9 2.7,-2.9 h 11 c 1.5,0 2.7,1.3 2.7,2.9 0,1.6 -1.2,2.9 -2.7,2.9 z" />
<path
   id="path29-3-5"
   class="st5"
   d="M 60.1,82.862396 H 11.8 c -1.5,0 -2.7,-1.3 -2.7,-2.9 0,-1.6 1.2,-2.9 2.7,-2.9 h 48.3 c 1.5,0 2.7,1.3 2.7,2.9 0,1.6 -1.2,2.9 -2.7,2.9 z" />
<path
   id="path48-7-4"
   class="st5"
   d="m 113.2,102.0624 c -6,0 -10.9,-5.200004 -10.9,-11.700004 0,-6.5 4.9,-11.7 10.9,-11.7 6,0 10.9,5.2 10.9,11.7 v 0 c 0,6.5 -4.9,11.700004 -10.9,11.700004 z" />
<path
   id="path49-8-9"
   class="st1"
   d="m 117.5,89.262396 h -3.2 v -3.5 c 0,-0.6 -0.5,-1.2 -1.1,-1.2 -0.6,0 -1.1,0.5 -1.1,1.2 v 3.5 h -3.2 c -0.6,0 -1.1,0.5 -1.1,1.2 0,0.7 0.5,1.2 1.1,1.2 h 3.2 v 3.5 c 0,0.6 0.5,1.2 1.1,1.2 0.6,0 1.1,-0.5 1.1,-1.2 v -3.5 h 3.2 c 0.6,0 1.1,-0.5 1.1,-1.2 0,-0.7 -0.5,-1.2 -1.1,-1.2 z" />
</svg>
