<?xml version="1.0" encoding="utf-8"?>
<!-- Generator: Adobe Illustrator 24.0.1, SVG Export Plug-In . SVG Version: 6.00 Build 0)  -->
<svg version="1.1"
	 id="svg62" inkscape:version="1.4.2 (ebf0e940, 2025-05-08)" sodipodi:docname="emptyCategoriesIcon.svg" xmlns:inkscape="http://www.inkscape.org/namespaces/inkscape" xmlns:sodipodi="http://sodipodi.sourceforge.net/DTD/sodipodi-0.dtd" xmlns:svg="http://www.w3.org/2000/svg"
	 xmlns="http://www.w3.org/2000/svg" xmlns:xlink="http://www.w3.org/1999/xlink" x="0px" y="0px" viewBox="0 0 321.3 232.3"
	 style="enable-background:new 0 0 321.3 232.3;" xml:space="preserve">
<style type="text/css">
	.st0{fill:#E6E6E6;}
	.st1{fill:#FFFFFF;}
	.st2{fill:#6C63FF;}
	.st3{fill:#CCCCCC;}
	.st4{fill:#FF5555;}
	.st5{fill:#008000;}
</style>
<sodipodi:namedview  bordercolor="#000000" borderopacity="0.25" id="namedview62" inkscape:current-layer="svg62" inkscape:cx="170.62371" inkscape:cy="172.68563" inkscape:deskcolor="#d1d1d1" inkscape:pagecheckerboard="0" inkscape:pageopacity="0.0" inkscape:showpageshadow="2" inkscape:window-height="940" inkscape:window-maximized="0" inkscape:window-width="976" inkscape:window-x="0" inkscape:window-y="25" inkscape:zoom="0.96997069" pagecolor="#ffffff">
	</sodipodi:namedview>
<path id="path18" class="st0" d="M48.7,0c-1.8,0-3.2,1.5-3.2,3.4v59.5c0,1.9,1.4,3.4,3.2,3.4h78.6c1.8,0,3.2-1.5,3.2-3.4V3.4
	c0-1.9-1.4-3.4-3.2-3.4H48.7z"/>
<path id="path19" class="st1" d="M99.1,63.4H50.9c-1.9,0-3.4-1.6-3.4-3.7v-54c0-2,1.5-3.7,3.4-3.7h74.2c1.9,0,3.4,1.6,3.4,3.7v26.1
	C128.5,49.3,115.3,63.4,99.1,63.4z"/>
<path id="path20" class="st2" d="M80.2,17.1H68.8c-0.6,0-1.1-0.5-1.1-1.2c0-0.6,0.5-1.2,1.1-1.2h11.4c0.6,0,1.1,0.5,1.1,1.2
	S80.8,17.1,80.2,17.1L80.2,17.1z"/>
<path id="path21" class="st0" d="M105.9,21.8H68.8c-0.6,0-1.1-0.5-1.1-1.2c0-0.6,0.5-1.2,1.1-1.2h37.1c0.6,0,1.1,0.5,1.1,1.2
	C106.9,21.3,106.5,21.8,105.9,21.8z"/>
<path id="path22" class="st0" d="M105.9,27.3H68.8c-0.6,0-1.1-0.5-1.1-1.2c0-0.6,0.5-1.2,1.1-1.2h37.1c0.6,0,1.1,0.5,1.1,1.2
	C106.9,26.8,106.5,27.3,105.9,27.3z"/>
<path id="path23" class="st0" d="M105.9,32.8H68.8c-0.6,0-1.1-0.5-1.1-1.2c0-0.6,0.5-1.2,1.1-1.2h37.1c0.6,0,1.1,0.5,1.1,1.2
	S106.5,32.8,105.9,32.8z"/>
<path id="path24" class="st0" d="M105.9,38.3H68.8c-0.6,0-1.1-0.5-1.1-1.2c0-0.6,0.5-1.2,1.1-1.2h37.1c0.6,0,1.1,0.5,1.1,1.2
	C106.9,37.8,106.5,38.3,105.9,38.3z"/>
<path id="path25" class="st0" d="M135.6,41.5h-15.5c-3.1,0-5.6,2.7-5.6,6l0,0c0,3.3-2.5,6-5.6,6H57.1c-3.1,0-5.6-2.7-5.6-6v0l-1-6.1
	l0.1,0.1l-0.1-0.1l-9.4-12.8c-0.6-0.9-1.6-1.4-2.6-1.4H21c-1.8,0-3.3,1.6-3.3,3.5l-0.4,10.6h-6.6C4.8,41.5,0,46.6,0,52.9V127
	c0,5.6,4.2,10.1,9.4,10.1h126.1c5.2,0,9.4-4.5,9.4-10.1V51.7C145,46.1,140.8,41.5,135.6,41.5L135.6,41.5z"/>
<path id="path26" class="st3" d="M50.5,41.2H17.6V30.6c0-2,1.5-3.5,3.3-3.5h17.6c1,0,2,0.5,2.6,1.4L50.5,41.2z"/>
<path id="path27" class="st1" d="M67.4,129H12.5c-3.6,0-6.6-3.1-6.6-7v-16.1c0-3.9,2.9-7,6.6-7h65.9c3.6,0,6.6,3.1,6.6,7v4.3
	C84.9,120.5,77.1,128.9,67.4,129z"/>
<path id="path28" class="st2" d="M28.3,111H14.7c-1.8,0-3.3-1.6-3.3-3.6c0-2,1.5-3.6,3.3-3.6h13.6c1.8,0,3.3,1.6,3.3,3.6
	C31.6,109.4,30.1,111,28.3,111L28.3,111L28.3,111z"/>
<path id="path29" class="st2" d="M74.3,122.2H14.7c-1.8,0-3.3-1.6-3.3-3.6c0-2,1.5-3.6,3.3-3.6h59.6c1.8,0,3.3,1.6,3.3,3.6
	C77.6,120.6,76.1,122.2,74.3,122.2L74.3,122.2L74.3,122.2z"/>
<path id="path48" class="st2" d="M139.9,146c-7.4,0-13.5-6.5-13.5-14.4s6-14.4,13.5-14.4c7.4,0,13.5,6.5,13.5,14.4l0,0
	C153.4,139.5,147.3,146,139.9,146z"/>
<path id="path49" class="st1" d="M145.2,130.1h-4v-4.3c0-0.8-0.6-1.4-1.3-1.4s-1.3,0.6-1.3,1.4v4.3h-4c-0.7,0-1.3,0.6-1.3,1.4
	c0,0.8,0.6,1.4,1.3,1.4h4v4.3c0,0.8,0.6,1.4,1.3,1.4s1.3-0.6,1.3-1.4V133h4c0.7,0,1.3-0.6,1.3-1.4
	C146.5,130.8,145.9,130.1,145.2,130.1z"/>
<path id="path18-8" class="st0" d="M246.9,2.3c-1.2,0-2.3,1.1-2.3,2.4V47c0,1.3,1,2.4,2.3,2.4h55.9c1.2,0,2.3-1.1,2.3-2.4V4.7
	c0-1.3-1-2.4-2.3-2.4L246.9,2.3z"/>
<path id="path19-0" class="st1" d="M282.7,47.4h-34.2c-1.3,0-2.4-1.2-2.4-2.6V6.4c0-1.4,1.1-2.6,2.4-2.6h52.8c1.3,0,2.4,1.2,2.4,2.6
	V25C303.6,37.3,294.2,47.4,282.7,47.4z"/>
<path id="path20-4" class="st4" d="M269.3,14.4h-8.1c-0.4,0-0.8-0.4-0.8-0.8s0.3-0.8,0.8-0.8h8.1c0.4,0,0.8,0.4,0.8,0.8
	S269.7,14.4,269.3,14.4L269.3,14.4z"/>
<path id="path21-6" class="st0" d="M287.5,17.8h-26.4c-0.4,0-0.8-0.4-0.8-0.8c0-0.5,0.3-0.8,0.8-0.8h26.4c0.4,0,0.8,0.4,0.8,0.8
	C288.3,17.5,287.9,17.8,287.5,17.8z"/>
<path id="path22-0" class="st0" d="M287.5,21.7h-26.4c-0.4,0-0.8-0.4-0.8-0.8c0-0.5,0.3-0.8,0.8-0.8h26.4c0.4,0,0.8,0.4,0.8,0.8
	C288.3,21.4,287.9,21.7,287.5,21.7z"/>
<path id="path23-3" class="st0" d="M287.5,25.6h-26.4c-0.4,0-0.8-0.4-0.8-0.8s0.3-0.8,0.8-0.8h26.4c0.4,0,0.8,0.4,0.8,0.8
	C288.3,25.3,287.9,25.6,287.5,25.6z"/>
<path id="path24-2" class="st0" d="M287.5,29.5h-26.4c-0.4,0-0.8-0.4-0.8-0.8s0.3-0.8,0.8-0.8h26.4c0.4,0,0.8,0.4,0.8,0.8
	C288.3,29.2,287.9,29.5,287.5,29.5z"/>
<path id="path25-6" class="st0" d="M308.6,31.8h-11c-2.2,0-4,1.9-4,4.3l0,0c0,2.4-1.8,4.3-4,4.3h-36.8c-2.2,0-4-1.9-4-4.3v0
	l-0.7-4.3l0,0.1l0-0.1l-6.7-9.1c-0.4-0.6-1.1-1-1.9-1h-12.5c-1.3,0-2.4,1.1-2.4,2.5l-0.3,7.5h-4.7c-4.2,0-7.6,3.6-7.6,8.1v52.7
	c0,4,3,7.2,6.7,7.2h89.7c3.7,0,6.7-3.2,6.7-7.2V39C315.4,35.1,312.3,31.8,308.6,31.8L308.6,31.8z"/>
<path id="path26-9" class="st3" d="M248.1,31.6h-23.4V24c0-1.4,1.1-2.5,2.4-2.5h12.5c0.7,0,1.4,0.3,1.9,1L248.1,31.6z"/>
<path id="path27-4" class="st1" d="M260.1,94h-39.1c-2.6,0-4.7-2.2-4.7-5V77.6c0-2.8,2.1-5,4.7-5H268c2.6,0,4.7,2.2,4.7,5v3.1
	C272.6,88,267,94,260.1,94z"/>
<path id="path28-1" class="st4" d="M232.3,81.2h-9.6c-1.3,0-2.4-1.1-2.4-2.5c0-1.4,1.1-2.5,2.4-2.5h9.6c1.3,0,2.4,1.1,2.4,2.5
	C234.7,80.1,233.6,81.2,232.3,81.2L232.3,81.2L232.3,81.2z"/>
<path id="path29-3" class="st4" d="M265.1,89.2h-42.4c-1.3,0-2.4-1.1-2.4-2.5s1.1-2.5,2.4-2.5h42.4c1.3,0,2.4,1.1,2.4,2.5
	C267.4,88.1,266.4,89.2,265.1,89.2L265.1,89.2L265.1,89.2z"/>
<path id="path48-7" class="st4" d="M311.7,106.1c-5.3,0-9.6-4.6-9.6-10.3c0-5.7,4.3-10.3,9.6-10.3s9.6,4.6,9.6,10.3l0,0
	C321.3,101.5,317,106.1,311.7,106.1z"/>
<path id="path49-8" class="st1" d="M315.5,94.9h-2.8v-3c0-0.6-0.4-1-0.9-1s-0.9,0.5-0.9,1v3h-2.8c-0.5,0-0.9,0.5-0.9,1
	c0,0.6,0.4,1,0.9,1h2.8v3c0,0.6,0.4,1,0.9,1c0.5,0,0.9-0.5,0.9-1v-3h2.8c0.5,0,0.9-0.5,0.9-1C316.4,95.3,316,94.9,315.5,94.9z"/>
<path id="path18-8-3" class="st0" d="M197.1,114.1c-1.4,0-2.6,1.2-2.6,2.8V165c0,1.5,1.2,2.7,2.6,2.8h63.7c1.4,0,2.6-1.2,2.6-2.8
	v-48.2c0-1.5-1.2-2.7-2.6-2.8H197.1z"/>
<path id="path19-0-8" class="st1" d="M237.9,165.4h-39c-1.5,0-2.8-1.3-2.8-3v-43.7c0-1.6,1.2-3,2.8-3H259c1.5,0,2.8,1.3,2.8,3v21.1
	C261.8,154,251.1,165.4,237.9,165.4z"/>
<path id="path20-4-1" class="st5" d="M222.6,127.9h-9.3c-0.5,0-0.9-0.4-0.9-0.9c0-0.5,0.4-0.9,0.9-0.9h9.3c0.5,0,0.9,0.4,0.9,0.9
	C223.5,127.5,223.1,127.9,222.6,127.9L222.6,127.9z"/>
<path id="path21-6-5" class="st0" d="M243.4,131.8h-30c-0.5,0-0.9-0.4-0.9-0.9c0-0.5,0.4-0.9,0.9-0.9h30c0.5,0,0.9,0.4,0.9,0.9
	C244.3,131.3,243.9,131.8,243.4,131.8z"/>
<path id="path22-0-3" class="st0" d="M243.4,136.2h-30c-0.5,0-0.9-0.4-0.9-0.9c0-0.5,0.4-0.9,0.9-0.9h30c0.5,0,0.9,0.4,0.9,0.9
	C244.3,135.8,243.9,136.2,243.4,136.2z"/>
<path id="path23-3-5" class="st0" d="M243.4,140.7h-30c-0.5,0-0.9-0.4-0.9-0.9s0.4-0.9,0.9-0.9h30c0.5,0,0.9,0.4,0.9,0.9
	S243.9,140.7,243.4,140.7z"/>
<path id="path24-2-4" class="st0" d="M243.4,145.1h-30c-0.5,0-0.9-0.4-0.9-0.9c0-0.5,0.4-0.9,0.9-0.9h30c0.5,0,0.9,0.4,0.9,0.9
	C244.3,144.7,243.9,145.1,243.4,145.1z"/>
<path id="path25-6-3" class="st0" d="M267.5,147.7h-12.6c-2.5,0-4.5,2.2-4.5,4.8l0,0c0,2.7-2,4.8-4.5,4.8H204
	c-2.5,0-4.5-2.2-4.5-4.8v0l-0.8-4.9l0.1,0.1l-0.1-0.1l-7.6-10.4c-0.5-0.7-1.3-1.1-2.1-1.1h-14.2c-1.5,0-2.7,1.3-2.7,2.9l-0.3,8.6
	h-5.4c-4.8,0-8.6,4.1-8.6,9.2V217c0,4.5,3.4,8.2,7.6,8.2h102.2c4.2,0,7.6-3.7,7.6-8.2v-61.1C275.1,151.4,271.7,147.7,267.5,147.7
	L267.5,147.7z"/>
<path id="path26-9-6" class="st3" d="M198.6,147.4H172v-8.6c0-1.6,1.2-2.9,2.7-2.9h14.2c0.8,0,1.6,0.4,2.1,1.1L198.6,147.4z"/>
<path id="path27-4-5" class="st1" d="M212.2,218.5h-44.5c-2.9,0-5.3-2.5-5.3-5.7v-13c0-3.1,2.4-5.7,5.3-5.7h53.4
	c2.9,0,5.3,2.5,5.3,5.7v3.5C226.5,211.7,220.1,218.5,212.2,218.5L212.2,218.5z"/>
<path id="path28-1-9" class="st5" d="M180.6,204h-11c-1.5,0-2.7-1.3-2.7-2.9c0-1.6,1.2-2.9,2.7-2.9h11c1.5,0,2.7,1.3,2.7,2.9
	C183.3,202.7,182.1,204,180.6,204L180.6,204L180.6,204z"/>
<path id="path29-3-5" class="st5" d="M217.9,213.1h-48.3c-1.5,0-2.7-1.3-2.7-2.9c0-1.6,1.2-2.9,2.7-2.9h48.3c1.5,0,2.7,1.3,2.7,2.9
	C220.6,211.8,219.4,213.1,217.9,213.1L217.9,213.1L217.9,213.1z"/>
<path id="path48-7-4" class="st5" d="M271,232.3c-6,0-10.9-5.2-10.9-11.7c0-6.5,4.9-11.7,10.9-11.7s10.9,5.2,10.9,11.7l0,0
	C281.9,227.1,277,232.3,271,232.3z"/>
<path id="path49-8-9" class="st1" d="M275.3,219.5h-3.2V216c0-0.6-0.5-1.2-1.1-1.2s-1.1,0.5-1.1,1.2v3.5h-3.2
	c-0.6,0-1.1,0.5-1.1,1.2s0.5,1.2,1.1,1.2h3.2v3.5c0,0.6,0.5,1.2,1.1,1.2s1.1-0.5,1.1-1.2v-3.5h3.2c0.6,0,1.1-0.5,1.1-1.2
	S275.9,219.5,275.3,219.5z"/>
</svg>
