<?xml version="1.0" encoding="UTF-8" standalone="no"?>
<!-- Created with Inkscape (http://www.inkscape.org/) -->

<svg
   width="210mm"
   height="297mm"
   viewBox="0 0 210 297"
   version="1.1"
   id="svg1"
   inkscape:version="1.4.2 (ebf0e940, 2025-05-08)"
   sodipodi:docname="hat.svg"
   xmlns:inkscape="http://www.inkscape.org/namespaces/inkscape"
   xmlns:sodipodi="http://sodipodi.sourceforge.net/DTD/sodipodi-0.dtd"
   xmlns="http://www.w3.org/2000/svg"
   xmlns:svg="http://www.w3.org/2000/svg">
  <sodipodi:namedview
     id="namedview1"
     pagecolor="#ffffff"
     bordercolor="#000000"
     borderopacity="0.25"
     inkscape:showpageshadow="2"
     inkscape:pageopacity="0.0"
     inkscape:pagecheckerboard="0"
     inkscape:deskcolor="#d1d1d1"
     inkscape:document-units="mm"
     inkscape:zoom="0.70199214"
     inkscape:cx="396.72809"
     inkscape:cy="561.25984"
     inkscape:window-width="976"
     inkscape:window-height="937"
     inkscape:window-x="0"
     inkscape:window-y="25"
     inkscape:window-maximized="0"
     inkscape:current-layer="layer1" />
  <defs
     id="defs1" />
  <g
     inkscape:label="Layer 1"
     inkscape:groupmode="layer"
     id="layer1">
    <path
       id="path8-5"
       style="display:inline;fill:#000000;stroke-width:0.264583"
       inkscape:label="hat"
       d="m 94.088535,41.831261 c -11.4722,0.58077 -21.050385,10.244474 -18.742524,22.496301 0.09168,0.486696 -6.58e-4,0.772255 -0.406177,1.254187 -4.40945,5.240334 0.852579,15.950103 5.996021,12.20339 0.036,-0.02625 0.0694,-0.05069 0.10076,-0.07286 0.021,-0.01971 0.0426,-0.03889 0.0646,-0.05736 0.0422,-0.03794 0.0856,-0.07475 0.13126,-0.10852 0.0457,-0.03456 0.0498,-0.03759 0.091,-0.07235 0.002,-0.0015 0.004,-0.0028 0.006,-0.0041 0.0215,-0.03186 0.0473,-0.06474 0.0755,-0.0956 0.0157,-0.01579 0.0321,-0.03108 0.0486,-0.04599 0.0108,-0.01523 0.0215,-0.03039 0.0326,-0.04548 0.13406,-0.201372 0.26093,-0.407327 0.39894,-0.606165 0.18151,-0.251378 0.36331,-0.502591 0.58395,-0.721919 0.16151,-0.170085 0.32094,-0.354923 0.48989,-0.533301 0.14119,-0.135532 0.284,-0.269567 0.42995,-0.399976 0.0955,-0.08572 0.15281,-0.148048 0.28835,-0.28577 0.17342,-0.169744 0.35475,-0.330229 0.52245,-0.505913 0.23041,-0.210156 0.43443,-0.448131 0.67334,-0.649572 0.31073,-0.261325 0.63237,-0.508225 0.94982,-0.761194 0.45045,-0.355338 0.90359,-0.707536 1.37149,-1.03973 0.44822,-0.320095 0.90117,-0.633367 1.3472,-0.956531 0.48464,-0.348954 0.97848,-0.685035 1.47175,-1.021643 0.50615,-0.350647 1.01038,-0.704119 1.51722,-1.053682 0.47262,-0.331094 0.94926,-0.655531 1.43557,-0.96635 0.52433,-0.334346 1.05598,-0.657272 1.57665,-0.997355 0.61792,-0.401505 1.2352,-0.804923 1.87688,-1.167887 0.48506,-0.264293 0.97608,-0.516128 1.46555,-0.772046 0.49725,-0.260112 0.99366,-0.521257 1.49086,-0.781348 0.49932,-0.277239 1.010195,-0.532002 1.518765,-0.791683 0.7485,-0.385683 1.50264,-0.760314 2.24948,-1.149283 0.87227,-0.439658 1.75169,-0.865028 2.6262,-1.300179 0.8581,-0.406682 1.72115,-0.802909 2.58847,-1.189592 0.90384,-0.409953 1.80384,-0.82754 2.70164,-1.25057 0.71226,-0.330224 1.42659,-0.655988 2.14457,-0.973584 0.50485,-0.215897 1.01575,-0.416892 1.51722,-0.640787 0.34715,-0.142474 0.69136,-0.293972 1.04593,-0.417546 0.3084,-0.114555 0.62047,-0.218361 0.93845,-0.303341 0.10449,-0.0265 0.2092,-0.05062 0.31471,-0.07183 3.2e-4,-1.65e-4 0.001,-3.45e-4 0.002,-5.17e-4 l 5.2e-4,-5.16e-4 c 0.098,-0.05087 0.1979,-0.09833 0.2961,-0.148828 0.11741,-0.0609 0.23924,-0.113107 0.36277,-0.160197 0.0676,-0.02386 0.13501,-0.0478 0.20309,-0.06976 4.16525,-4.279521 -3.59492,-13.241681 -10.32185,-10.684102 -0.50706,0.192784 -0.74681,0.138692 -1.74098,-0.391191 -3.87497,-2.065318 -7.909575,-2.880779 -11.733645,-2.687174 z M 200.12857,215.8041 c -0.0376,0.097 -0.076,0.19407 -0.1142,0.29094 0.17158,-0.0833 0.34128,-0.16773 0.50849,-0.25322 -0.13144,-0.0125 -0.26301,-0.0248 -0.39429,-0.0377 z" />
  </g>
</svg>
