<svg width="424" height="553" viewBox="0 0 424 553" fill="none" xmlns="http://www.w3.org/2000/svg">
<path d="M209.151 0C227.612 0.0360711 245.418 7.02722 259.184 19.6455C259.858 20.2213 262.4 22.4702 268.209 29.0146C268.303 29.0785 268.399 29.1424 268.493 29.2061C268.496 29.2083 268.504 29.2146 268.506 29.2158C268.731 29.4885 268.96 29.7595 269.182 30.0342C269.447 30.3765 269.702 30.7265 269.936 31.0908C270.133 31.4011 270.33 31.7124 270.518 32.0283C270.582 32.1254 270.649 32.2242 270.717 32.3193C271.231 33.2415 271.735 34.1679 272.25 35.0889C272.287 35.1544 272.324 35.2206 272.362 35.2861C272.858 36.174 273.344 37.0676 273.879 37.9326C274.162 38.4118 274.452 38.8882 274.706 39.3838C274.882 39.7377 275.061 40.0902 275.249 40.4385C275.255 40.4494 275.261 40.4607 275.267 40.4717C275.665 41.1568 276.052 41.8485 276.429 42.5459C276.493 42.6336 276.562 42.7185 276.634 42.7998C276.642 42.8081 276.646 42.8157 276.654 42.8232L276.658 42.8252L276.662 42.833C276.75 42.9408 276.799 42.9937 276.898 43.124C277.239 43.9373 277.711 44.9596 278.316 46.2686C280.914 51.892 283.126 56.7117 287.012 65.2119C288.689 68.8792 288.69 68.8795 297.021 68.415C299.248 68.2905 301.311 68.2958 303.211 68.4268C303.302 68.4568 303.404 68.4799 303.518 68.4932C304.081 68.559 304.643 68.6232 305.204 68.7021C305.383 68.7301 305.566 68.7513 305.743 68.79C305.859 68.8049 305.975 68.8329 306.092 68.8408C306.15 68.8446 306.206 68.8616 306.262 68.876C306.356 68.888 306.449 68.8971 306.543 68.8994C306.609 68.9047 306.676 68.9085 306.74 68.9229C306.837 68.9441 306.933 68.9649 307.032 68.9736C307.132 68.9951 307.233 69.0253 307.336 69.0303C307.424 69.0416 307.509 69.0549 307.594 69.0771C307.697 69.0979 307.805 69.111 307.907 69.1396C308.009 69.1608 308.113 69.1758 308.213 69.2041C308.299 69.2218 308.386 69.2316 308.467 69.2646C308.567 69.2926 308.67 69.3128 308.767 69.3506C308.848 69.3721 308.923 69.4097 309.002 69.4346C309.134 69.481 309.265 69.5311 309.403 69.5557C309.546 69.5878 309.688 69.6202 309.833 69.6455C310.023 69.6871 310.217 69.7183 310.409 69.7549C310.546 69.7804 310.684 69.8058 310.821 69.833C310.832 69.8427 310.844 69.8576 310.855 69.8682C310.866 69.8771 310.874 69.8928 310.877 69.9033C322.607 74.08 322.094 86.1227 307.522 100.481C302.645 105.287 302.645 105.289 301.08 113.399C296.299 138.171 281.738 154.07 258.274 160.139C255.572 160.837 253.232 161.534 253.075 161.688C252.918 161.843 255.781 165.742 259.436 170.351C263.091 174.96 268.458 181.775 271.362 185.494C295.409 216.296 310.261 233.199 313.871 233.876C317.837 234.62 328.659 230.973 366.054 216.283C374.682 212.894 383.713 209.722 386.125 209.237C410.102 204.422 430.008 229.131 420.958 252.342C420.943 252.34 420.93 252.341 420.926 252.342V252.345L420.93 252.347C420.938 252.349 420.945 252.348 420.957 252.349C420.931 252.414 420.904 252.481 420.877 252.547C420.859 252.592 420.855 252.644 420.863 252.693C420.847 252.739 420.835 252.786 420.824 252.832C420.812 252.866 420.797 252.913 420.79 252.936C420.773 252.989 420.758 253.045 420.75 253.1L420.749 253.104V253.107C420.712 253.186 420.693 253.271 420.682 253.355C420.671 253.404 420.673 253.448 420.671 253.486C420.651 253.571 420.632 253.656 420.621 253.742V253.746C420.613 253.769 420.609 253.792 420.605 253.811C420.587 253.833 420.575 253.856 420.56 253.879C420.421 254.076 420.303 254.281 420.197 254.498C420.19 254.508 420.169 254.544 420.113 254.65C419.906 255.001 419.925 254.969 419.786 255.229C419.702 255.436 419.691 255.381 419.511 255.742C419.471 255.827 419.432 255.915 419.402 256.004L419.398 256.006C419.362 256.046 419.234 256.405 419.167 256.611C419.064 256.837 419.119 256.83 418.98 257.059C418.908 257.219 418.845 257.336 418.712 257.541C418.593 257.701 418.483 257.935 418.41 258.057C418.391 258.086 418.38 258.114 418.365 258.137L418.338 258.163C418.289 258.226 418.208 258.327 418.141 258.419C418.064 258.481 417.993 258.62 417.932 258.698C417.781 258.96 417.745 258.913 417.618 259.132C417.532 259.235 417.435 259.349 417.26 259.562C417.008 259.895 417.065 259.81 416.901 260.013C416.897 260.016 416.889 260.026 416.885 260.029C416.781 260.141 416.646 260.298 416.608 260.328C416.418 260.492 416.243 260.677 416.073 260.855C415.92 260.965 415.682 261.208 415.481 261.377C415.137 261.583 414.788 261.78 414.442 261.984C413.969 262.264 413.477 262.515 412.985 262.76C412.349 263.06 411.721 263.38 411.071 263.648C410.199 264.056 409.313 264.433 408.45 264.859C407.393 265.346 406.339 265.837 405.288 266.334C404.41 266.767 403.525 267.183 402.639 267.6C402.112 267.857 401.591 268.128 401.049 268.354C400.58 268.549 400.117 268.761 399.653 268.967C399.191 269.182 398.731 269.401 398.274 269.627C397.845 269.853 397.392 270.031 396.973 270.277C396.535 270.486 396.098 270.694 395.67 270.922C395.184 271.173 394.665 271.357 394.163 271.574C393.423 271.872 392.685 272.175 391.95 272.484C391.081 272.844 390.205 273.191 389.356 273.598C388.686 273.906 388.035 274.249 387.372 274.57C386.671 274.922 385.977 275.289 385.268 275.625C384.685 275.893 384.105 276.17 383.495 276.373C382.922 276.573 382.354 276.783 381.772 276.955C381.237 277.132 380.695 277.292 380.174 277.512C379.754 277.686 379.34 277.872 378.928 278.066C378.552 278.244 378.165 278.399 377.78 278.557C377.319 278.764 376.841 278.938 376.381 279.15C375.864 279.362 375.351 279.581 374.844 279.814C374.46 279.968 374.078 280.126 373.7 280.289C373.332 280.44 372.974 280.614 372.62 280.793C372.361 280.92 372.114 281.063 371.846 281.17C371.561 281.279 371.279 281.393 370.991 281.492C370.533 281.634 370.079 281.792 369.624 281.941C369.117 282.118 368.606 282.285 368.108 282.483C367.788 282.612 367.472 282.749 367.159 282.896C366.896 283.046 366.585 283.117 366.325 283.274C366.144 283.375 365.965 283.477 365.792 283.59C365.771 283.594 365.748 283.598 365.729 283.602C365.394 283.671 365.052 283.724 364.729 283.838C364.673 283.864 364.551 283.918 364.499 283.963L364.495 283.965C364.432 283.994 364.374 284.021 364.307 284.051C364.203 284.101 364.092 284.134 363.987 284.182C363.823 284.258 363.662 284.34 363.5 284.422C363.328 284.511 363.156 284.608 363 284.727C362.616 284.919 362.168 285.149 361.649 285.414C359.996 286.257 356.082 287.966 352.95 289.211C349.817 290.456 341.715 293.982 334.944 297.049C318.84 304.343 311.896 306.161 304.752 304.949C296.856 303.61 283.126 298.928 279.981 296.502C273.96 291.858 269.474 288.073 265.596 284.361C263.366 282.227 261.405 280.634 261.239 280.822C261.072 281.014 259.286 286.755 257.27 293.582C255.253 300.411 251.693 311.771 249.356 318.828C245.103 331.658 245.107 331.66 249.231 335.93C261.625 348.762 305.778 401.296 317.668 417.357C321.934 423.119 327.751 430.977 330.594 434.818C338.43 445.403 345.264 454.976 350.797 463.121C353.544 467.164 356.022 470.8 356.303 471.201C356.592 471.611 362.195 469.538 369.108 466.463C393.623 455.556 403.568 454.751 414.145 462.818C428.328 473.637 418.795 490.844 380.235 524.029C340.46 558.26 330.988 559.285 310.235 531.602C263.959 469.873 189.949 389.666 185.514 396.438C183.547 399.441 169.166 419.416 163.188 427.447C147.124 449.03 141.588 454.904 108.954 485.023C83.0504 508.93 83.6459 508.013 90.9263 512.842C108.54 524.525 117.16 544.394 106.942 549.76C102.618 552.03 68.622 553.873 58.479 552.387C34.9888 548.945 0.826962 520.626 0.115723 504.006C-0.517249 489.211 -0.0943151 488.638 43.8423 444.941C83.3758 405.624 82.7125 406.405 100.635 378.168C125.399 339.153 124.665 340.553 125.217 331.219C125.698 323.086 127.228 315.825 134.209 288.537C139.866 266.43 143.369 250.413 142.465 250.793C141.12 251.359 116.674 262.679 109.993 265.83C102.019 269.591 101.379 270.475 87.1724 297.32C66.3906 336.589 45.7097 345.781 25.3911 324.783C10.3181 309.206 11.6976 301.225 38.1528 250.9C56.828 215.375 54.2548 217.7 105.133 190.393C120.072 182.375 137.141 173.197 143.065 170C155.146 163.48 169.043 156.838 175.17 154.654C179.796 153.006 180.06 152.577 177.233 151.289C167.36 146.791 151.567 132.081 147.167 123.285C146.592 122.137 146.144 121.241 145.774 120.557C145.741 120.491 145.704 120.425 145.665 120.357C145.663 120.354 145.66 120.351 145.659 120.348C145.653 120.337 145.645 120.325 145.639 120.314C145.502 120.082 145.356 119.854 145.204 119.631C145.097 119.47 144.997 119.302 144.885 119.145L144.883 119.141L144.879 119.139V119.135C144.86 119.101 144.84 119.064 144.819 119.031C144.75 118.923 144.679 118.82 144.604 118.715C144.581 118.679 144.556 118.641 144.532 118.604C144.29 118.15 143.957 117.293 143.68 116.711C143.676 116.701 143.673 116.69 143.668 116.68C143.574 116.484 143.497 116.279 143.415 116.078C143.321 115.818 143.219 115.56 143.112 115.305C143.108 115.296 143.104 115.284 143.1 115.275C142.945 114.898 142.806 114.515 142.655 114.137C142.54 113.834 142.394 113.544 142.252 113.254C142.144 113.021 142.044 112.785 141.926 112.557C141.829 112.366 141.73 112.176 141.624 111.99C141.541 111.835 141.466 111.687 141.387 111.529C141.315 111.332 141.201 111.154 141.12 110.961C141.008 110.724 140.899 110.485 140.78 110.252C140.754 110.179 140.715 110.109 140.678 110.039C140.649 109.966 140.622 109.92 140.592 109.848C140.59 109.84 140.587 109.832 140.584 109.824C140.548 109.739 140.507 109.655 140.467 109.57C140.376 109.344 140.287 109.12 140.198 108.898C140.183 108.799 140.129 108.711 140.086 108.621C140.071 108.589 140.058 108.555 140.047 108.521C140.05 108.528 140.055 108.537 140.057 108.541C140.06 108.543 140.065 108.546 140.067 108.547L140.071 108.549L140.075 108.547L140.077 108.543V108.539C140.071 108.487 139.947 108.257 139.917 108.197L139.913 108.189C139.912 108.186 139.91 108.183 139.909 108.18C139.654 107.541 139.414 106.93 139.192 106.363C139.186 106.205 139.157 106.03 139.1 105.84C139.082 105.779 139.065 105.718 139.043 105.658C139.006 105.502 138.971 105.344 138.928 105.189C138.926 105.182 138.919 105.163 138.917 105.156C138.898 105.058 138.874 104.96 138.838 104.865C138.813 104.8 138.791 104.702 138.754 104.592C138.724 104.507 138.72 104.484 138.667 104.291C138.629 104.187 138.617 104.141 138.573 103.986C138.561 103.955 138.55 103.924 138.538 103.893C138.533 103.881 138.524 103.849 138.52 103.842L138.518 103.846C138.511 103.82 138.504 103.794 138.495 103.768C138.479 103.679 138.454 103.558 138.44 103.531C138.424 103.484 138.411 103.444 138.401 103.416C138.388 103.358 138.373 103.302 138.354 103.246C138.353 103.242 138.351 103.238 138.35 103.234C138.329 103.175 138.305 103.115 138.276 103.059C138.167 102.855 138.219 102.973 138.147 102.822C138.108 102.754 138.068 102.687 138.022 102.625C135.256 94.4658 133.844 85.8884 133.844 77.25C133.845 56.7619 141.779 37.1131 155.902 22.626C170.025 8.13895 189.179 7.40747e-05 209.151 0Z" fill="black"/>
</svg>
