<svg width="187" height="176" viewBox="0 0 187 176" fill="none" xmlns="http://www.w3.org/2000/svg">
<path d="M83.8989 0.330017C84.7886 0.330017 85.6782 0.330532 86.5679 0.345642C86.9608 0.353201 87.354 0.366344 87.7456 0.40033C88.0588 0.43017 88.3728 0.465553 88.687 0.48822C89.2302 0.722318 89.9178 0.950767 90.7026 1.14838C95.7123 2.41003 100.296 7.09655 102.513 13.2265C104.932 19.913 106.648 23.6978 107.257 23.6992C107.555 23.6971 114.16 21.7777 121.941 19.4316C148.875 11.3104 153.482 14.0599 164.25 44.6562C166.578 51.2719 171.245 64.1887 174.621 73.3652C194.195 126.57 194.397 126.129 142.189 145.051C133.439 148.222 118.772 153.678 109.595 157.178C39.3241 183.974 36.9166 183.487 21.2476 139.262C17.859 129.697 12.6511 115.76 9.67529 108.291C5.58466 98.0236 3.30378 91.5512 1.99561 86.4394L1.75146 85.7636L1.73682 85.5644C0.252031 79.3654 0.480069 75.4743 2.08447 71.0468C4.70302 63.8208 7.31566 62.0795 24.8169 55.9023C36.6474 51.7266 38.4346 50.8057 36.7427 49.7597C34.9721 48.6654 31.029 36.7857 31.4341 33.7656C31.6143 32.4141 31.7465 31.5788 31.6294 31.1718C31.66 30.9738 31.6932 30.7769 31.731 30.58C31.782 30.2452 31.8453 29.9137 31.9126 29.582C31.9606 29.3496 31.9916 29.1144 32.0513 28.8847C32.1567 28.4012 32.2858 27.9223 32.4165 27.4453C32.5854 26.7123 32.855 26.0109 33.1294 25.3124C33.4121 24.5741 33.7611 23.8686 34.1392 23.1757C34.6786 22.2448 35.2212 21.3159 35.7603 20.3847C36.1499 19.738 36.5278 19.082 36.9399 18.4492C37.3228 17.8608 37.7927 17.3414 38.27 16.83C39.1845 15.9699 40.1747 15.1947 41.1567 14.414C41.6202 14.0568 42.0853 13.702 42.5513 13.3476C43.2907 13.0771 44.0323 12.8088 44.772 12.539C46.4172 11.9349 48.0579 11.3157 49.6978 10.6972C50.8775 10.2423 52.0705 9.82264 53.2544 9.37885C54.2383 8.98989 55.2227 8.60218 56.1978 8.19135C57.061 7.80996 57.9274 7.43425 58.7817 7.03314C59.7781 6.57092 60.7852 6.13049 61.8052 5.7226C62.837 5.31392 63.8838 4.94354 64.9087 4.51752C66.0163 4.07478 67.1246 3.63138 68.2349 3.19525C69.4308 2.72598 70.6297 2.26848 71.8696 1.92572C73.0975 1.56106 74.337 1.23313 75.5728 0.896423C76.1069 0.75569 76.6439 0.619138 77.1821 0.49408C77.5563 0.46915 77.9308 0.446562 78.3052 0.427673C79.3089 0.389893 80.3132 0.376371 81.3169 0.33783C82.1769 0.318949 83.0387 0.333795 83.8989 0.330017ZM75.2915 15.6386C75.0164 15.65 74.7584 15.7265 74.5054 15.8281C74.3266 15.89 74.1675 15.9919 73.9995 16.0761C73.765 16.1936 73.5228 16.2934 73.2788 16.3886C72.9683 16.5061 72.6582 16.628 72.3511 16.7538C72.0236 16.8727 71.701 17.0032 71.3784 17.1347C71.1057 17.2424 70.8343 17.3593 70.5601 17.4628C70.2707 17.5641 69.9848 17.6732 69.7026 17.7929C69.4598 17.8877 69.226 18.0106 68.9839 18.1074C68.7116 18.2241 68.4405 18.3424 68.1655 18.4531C67.8577 18.5841 67.5438 18.7019 67.2378 18.8378C66.9738 18.9428 66.713 19.0575 66.4546 19.1757C66.1898 19.2989 65.9205 19.4179 65.6558 19.5429C65.357 19.6645 65.0578 19.7865 64.7632 19.9179C64.4682 20.0361 64.1659 20.1327 63.8706 20.249C63.5121 20.3766 63.149 20.4863 62.7886 20.6083C62.4354 20.736 62.0736 20.841 61.7144 20.9501C61.3857 21.0461 61.0569 21.1417 60.7358 21.2607C60.3615 21.3919 60.0012 21.5602 59.6382 21.7197C59.3062 21.8592 58.9935 22.04 58.6792 22.2138C58.4583 22.3598 58.2218 22.4791 57.9956 22.6161C57.7936 22.72 57.5877 22.8146 57.3804 22.9072C57.13 23.0208 56.8807 23.1378 56.6284 23.247C56.3742 23.3709 56.1192 23.4947 55.8608 23.6103C55.5976 23.7357 55.3341 23.8591 55.0659 23.9736C54.817 24.0741 54.5898 24.2202 54.3511 24.3408C54.1795 24.4261 54.0099 24.5189 53.8472 24.6201C53.6949 24.7269 53.5352 24.819 53.3804 24.9228C53.2087 25.0436 53.069 25.1519 52.9312 25.2587C52.818 25.3494 52.6803 25.4728 52.5405 25.6201C52.4167 25.7477 52.3156 25.8716 52.2163 25.9951C52.1861 26.02 51.9989 26.2919 51.9565 26.3466C51.9249 26.3677 51.9031 26.4026 51.8843 26.4365V26.4404L51.8804 26.4423L51.8784 26.4462C51.6597 26.7047 52.0124 26.2898 51.7358 26.6161C51.6407 26.7488 51.5449 26.8795 51.4565 27.0165L51.4487 27.0204L51.4468 27.0244C51.4227 27.054 51.3515 27.1503 51.3452 27.1611C51.247 27.3156 51.2137 27.3686 51.2104 27.374C51.1497 27.4717 51.0821 27.5657 51.021 27.663C50.9115 27.8179 50.8237 27.974 50.7554 28.1533C50.759 28.1421 50.7607 28.1302 50.7612 28.1269L50.7593 28.1308C50.745 28.1579 50.6845 28.3107 50.6616 28.3515C50.5317 28.6302 50.5375 28.6094 50.4429 28.8515C50.3753 29.0906 50.3139 29.2759 50.2534 29.5214C50.2228 29.6415 50.2041 29.7643 50.189 29.8867V29.8906L50.1851 29.8984C50.1439 30.006 50.106 30.1175 50.0796 30.2304L50.0737 30.2421V30.2499L50.0698 30.2558L50.0679 30.2597C50.0642 30.267 50.0613 30.2744 50.0601 30.2783C49.9921 30.4598 49.9536 30.65 49.9233 30.8408C49.9196 30.8498 49.9152 30.865 49.9077 30.8837C49.8911 30.9267 49.8798 30.9693 49.8647 31.0126C49.8013 31.2196 49.7822 31.436 49.7671 31.6513C49.7574 31.7802 49.7564 31.9096 49.7563 32.038C49.755 32.1312 49.7547 32.2209 49.7544 32.3115C49.7431 32.5392 49.785 32.7634 49.8462 32.9814C49.8575 33.0256 49.8611 33.0718 49.8687 33.1171C49.8464 33.1959 49.9783 33.5107 49.9858 33.5742C50.0048 33.7434 50.0561 33.9066 50.1128 34.0663C50.1201 34.0785 50.1238 34.0933 50.1274 34.1044C50.1122 34.7035 50.2684 35.1402 50.5103 35.4218C51.0741 37.5881 52.0697 40.2811 53.3501 43.7646C53.5905 44.4187 54.2467 44.6077 55.0884 44.2665C55.8334 43.9647 61.3311 41.8736 67.3052 39.6171C92.3631 30.1524 91.025 30.7921 90.4966 28.4833C89.0835 22.3106 81.7184 15.9748 77.0063 15.7831C76.9261 15.7803 76.8464 15.7806 76.7681 15.7812C76.6613 15.7604 76.5533 15.7415 76.4458 15.7226C76.2029 15.6845 75.9565 15.6656 75.7114 15.6542C75.5726 15.6467 75.4304 15.6426 75.2915 15.6425V15.6386Z" fill="black"/>
</svg>
