<svg width="173" height="139" viewBox="0 0 173 139" fill="none" xmlns="http://www.w3.org/2000/svg">
<path d="M78.6134 0.104492C93.0665 -0.627239 108.316 2.45492 122.961 10.2607C126.718 12.2633 127.625 12.4678 129.541 11.7393C154.966 2.07282 184.296 35.9455 168.553 52.1201C168.296 52.2031 168.041 52.2936 167.785 52.3838C167.319 52.5617 166.858 52.7591 166.414 52.9893C166.043 53.1801 165.663 53.3615 165.293 53.5537C165.29 53.5543 165.287 53.5553 165.286 53.5557C164.888 53.6358 164.492 53.727 164.097 53.8271C162.895 54.1483 161.715 54.5407 160.55 54.9736C159.21 55.4406 157.909 56.0133 156.597 56.5518C154.702 57.3979 152.77 58.1577 150.862 58.9736C148.149 60.1739 145.449 61.4053 142.757 62.6533C139.364 64.2521 135.962 65.8305 132.546 67.3799C129.268 68.8413 126.006 70.339 122.763 71.876C119.458 73.5206 116.134 75.1284 112.837 76.79C110.014 78.2601 107.164 79.6761 104.335 81.1338C102.413 82.1152 100.482 83.0782 98.5949 84.126C96.7158 85.109 94.8394 86.096 92.9601 87.0791C91.1102 88.0463 89.2543 88.9982 87.4211 89.9971C84.9959 91.3689 82.6627 92.8937 80.3273 94.4111C78.3595 95.6964 76.35 96.9171 74.3683 98.1807C72.5304 99.3554 70.7287 100.582 68.9425 101.833C67.027 103.154 65.1211 104.49 63.2082 105.815C61.3439 107.088 59.4773 108.358 57.6457 109.677C55.96 110.898 54.2478 112.082 52.5539 113.292C50.7855 114.547 49.0727 115.879 47.3703 117.222C46.1705 118.178 44.9548 119.111 43.7804 120.099C42.8775 120.86 42.1063 121.759 41.2355 122.554C40.6017 123.218 39.9163 123.824 39.2609 124.466C38.7487 124.986 38.5319 125.222 38.1711 125.546C37.6195 126.039 37.0796 126.545 36.5461 127.058C35.9076 127.732 35.3049 128.43 34.6945 129.073C33.8606 129.902 33.1734 130.852 32.4875 131.802C31.9659 132.553 31.4863 133.332 30.9796 134.093C30.9377 134.15 30.8964 134.207 30.8556 134.265C30.7933 134.321 30.7313 134.379 30.672 134.438C30.5655 134.555 30.4681 134.679 30.3869 134.8C30.3793 134.805 30.3719 134.81 30.3644 134.815C30.2088 134.947 30.1933 134.958 30.0207 135.089C29.8481 135.216 29.684 135.356 29.5246 135.499C29.4414 135.569 29.3598 135.641 29.2804 135.716C29.1619 135.8 29.0356 135.892 28.8996 135.991C9.45979 150.152 -10.4282 109.674 6.23746 89.8682C7.77004 88.0468 8.11906 86.9673 7.77261 85.1279C-0.950011 38.8218 35.251 2.29758 78.6105 0.102539L78.6134 0.104492Z" fill="black"/>
</svg>
