<?xml version="1.0" encoding="UTF-8" standalone="no"?>
<!-- Generator: Adobe Illustrator 24.0.1, SVG Export Plug-In . SVG Version: 6.00 Build 0)  -->

<svg
   version="1.1"
   id="svg23"
   inkscape:version="1.4.2 (ebf0e940, 2025-05-08)"
   sodipodi:docname="emptyNumbersIconLong.svg"
   x="0px"
   y="0px"
   viewBox="0 0 343.89999 118"
   xml:space="preserve"
   width="343.89999"
   height="118"
   xmlns:inkscape="http://www.inkscape.org/namespaces/inkscape"
   xmlns:sodipodi="http://sodipodi.sourceforge.net/DTD/sodipodi-0.dtd"
   xmlns="http://www.w3.org/2000/svg"
   xmlns:svg="http://www.w3.org/2000/svg"><defs
   id="defs1" />
<style
   type="text/css"
   id="style1">
	.st0{fill:#008080;}
	.st1{fill:#B3B3B3;}
</style>
<sodipodi:namedview
   bordercolor="#000000"
   borderopacity="0.25"
   id="namedview23"
   inkscape:current-layer="svg23"
   inkscape:cx="214.39313"
   inkscape:cy="-10.907123"
   inkscape:deskcolor="#d1d1d1"
   inkscape:pagecheckerboard="0"
   inkscape:pageopacity="0.0"
   inkscape:showpageshadow="2"
   inkscape:window-height="937"
   inkscape:window-maximized="0"
   inkscape:window-width="1920"
   inkscape:window-x="0"
   inkscape:window-y="25"
   inkscape:zoom="1.4669313"
   pagecolor="#ffffff">
	</sodipodi:namedview>
<path
   id="path10"
   class="st0"
   d="M 121.4,32 C 117.9,32 115,29.1 115,25.6 V 6.4 c 0,-3.5 2.9,-6.4 6.4,-6.4 3.5,0 6.4,2.9 6.4,6.4 v 19.2 c 0,3.6 -2.9,6.4 -6.4,6.4 z" />
<path
   id="path11"
   class="st0"
   d="m 138.5,32 c -3.5,0 -6.4,-2.9 -6.4,-6.4 V 6.4 c 0,-3.5 2.9,-6.4 6.4,-6.4 3.5,0 6.4,2.9 6.4,6.4 v 19.2 c 0,3.6 -2.9,6.4 -6.4,6.4 z" />
<path
   id="path12"
   class="st0"
   d="m 155.5,32 c -3.5,0 -6.4,-2.9 -6.4,-6.4 V 6.4 c 0,-3.5 2.9,-6.4 6.4,-6.4 3.5,0 6.4,2.9 6.4,6.4 v 19.2 c 0.1,3.6 -2.8,6.4 -6.4,6.4 z" />
<path
   id="path13"
   class="st0"
   d="m 181.9,32 c -3.5,0 -6.4,-2.9 -6.4,-6.4 V 6.4 c 0,-3.5 2.9,-6.4 6.4,-6.4 3.5,0 6.4,2.9 6.4,6.4 v 19.2 c 0,3.6 -2.9,6.4 -6.4,6.4 z" />
<path
   id="path14"
   class="st0"
   d="m 199,32 c -3.5,0 -6.4,-2.9 -6.4,-6.4 V 6.4 c 0,-3.5 2.9,-6.4 6.4,-6.4 3.5,0 6.4,2.9 6.4,6.4 v 19.2 c 0,3.6 -2.9,6.4 -6.4,6.4 z" />
<path
   id="path15"
   class="st0"
   d="m 216.1,32 c -3.5,0 -6.4,-2.9 -6.4,-6.4 V 6.4 c 0,-3.5 2.9,-6.4 6.4,-6.4 3.5,0 6.4,2.9 6.4,6.4 v 19.2 c 0,3.6 -2.9,6.4 -6.4,6.4 z" />






<path
   id="path10-39"
   class="st0"
   d="m 121.8,118 c -3.5,0 -6.4,-2.9 -6.4,-6.4 V 92.4 c 0,-3.5 2.9,-6.4 6.4,-6.4 3.5,0 6.4,2.9 6.4,6.4 v 19.2 c 0,3.5 -2.9,6.4 -6.4,6.4 z" />
<path
   id="path11-8"
   class="st0"
   d="m 138.9,118 c -3.5,0 -6.4,-2.9 -6.4,-6.4 V 92.4 c 0,-3.5 2.9,-6.4 6.4,-6.4 3.5,0 6.4,2.9 6.4,6.4 v 19.2 c 0,3.5 -2.9,6.4 -6.4,6.4 z" />
<path
   id="path12-6"
   class="st0"
   d="m 155.9,118 c -3.5,0 -6.4,-2.9 -6.4,-6.4 V 92.4 c 0,-3.5 2.9,-6.4 6.4,-6.4 3.5,0 6.4,2.9 6.4,6.4 v 19.2 c 0.1,3.5 -2.8,6.4 -6.4,6.4 z" />
<path
   id="path13-57"
   class="st0"
   d="m 182.3,118 c -3.5,0 -6.4,-2.9 -6.4,-6.4 V 92.4 c 0,-3.5 2.9,-6.4 6.4,-6.4 3.5,0 6.4,2.9 6.4,6.4 v 19.2 c 0,3.5 -2.9,6.4 -6.4,6.4 z" />
<path
   id="path14-6"
   class="st0"
   d="m 199.4,118 c -3.5,0 -6.4,-2.9 -6.4,-6.4 V 92.4 c 0,-3.5 2.9,-6.4 6.4,-6.4 3.5,0 6.4,2.9 6.4,6.4 v 19.2 c 0,3.5 -2.9,6.4 -6.4,6.4 z" />
<path
   id="path15-27"
   class="st0"
   d="m 216.5,118 c -3.5,0 -6.4,-2.9 -6.4,-6.4 V 92.4 c 0,-3.5 2.9,-6.4 6.4,-6.4 3.5,0 6.4,2.9 6.4,6.4 v 19.2 c 0,3.5 -2.9,6.4 -6.4,6.4 z" />





<path
   id="path10-3"
   class="st0"
   d="m 121.4,74.6 c -3.5,0 -6.4,-2.9 -6.4,-6.4 V 48.9 c 0,-3.5 2.9,-6.4 6.4,-6.4 3.5,0 6.4,2.9 6.4,6.4 v 19.2 c 0,3.6 -2.9,6.4 -6.4,6.5 z" />
<path
   id="path11-9"
   class="st0"
   d="m 138.5,74.6 c -3.5,0 -6.4,-2.9 -6.4,-6.4 V 48.9 c 0,-3.5 2.9,-6.4 6.4,-6.4 3.5,0 6.4,2.9 6.4,6.4 v 19.2 c 0,3.6 -2.9,6.4 -6.4,6.5 z" />
<path
   id="path12-0"
   class="st0"
   d="m 155.6,74.6 c -3.5,0 -6.4,-2.9 -6.4,-6.4 V 48.9 c 0,-3.5 2.9,-6.4 6.4,-6.4 3.5,0 6.4,2.9 6.4,6.4 v 19.2 c 0,3.6 -2.9,6.4 -6.4,6.5 z" />
<path
   id="path13-5"
   class="st0"
   d="m 181.9,74.6 c -3.5,0 -6.4,-2.9 -6.4,-6.4 V 48.9 c 0,-3.5 2.9,-6.4 6.4,-6.4 3.5,0 6.4,2.9 6.4,6.4 v 19.2 c 0,3.6 -2.8,6.4 -6.4,6.5 z" />
<path
   id="path14-2"
   class="st0"
   d="m 199,74.6 c -3.5,0 -6.4,-2.9 -6.4,-6.4 V 48.9 c 0,-3.5 2.9,-6.4 6.4,-6.4 3.5,0 6.4,2.9 6.4,6.4 v 19.2 c 0,3.6 -2.8,6.4 -6.4,6.5 z" />
<path
   id="path15-2"
   class="st0"
   d="m 216.1,74.6 c -3.5,0 -6.4,-2.9 -6.4,-6.4 V 48.9 c 0,-3.5 2.9,-6.4 6.4,-6.4 3.5,0 6.4,2.9 6.4,6.4 v 0 19.2 c 0,3.6 -2.8,6.4 -6.4,6.5 z" /><path
   id="path10-4"
   class="st0"
   d="M 242.4,32 C 238.9,32 236,29.1 236,25.6 V 6.4 c 0,-3.5 2.9,-6.4 6.4,-6.4 3.5,0 6.4,2.9 6.4,6.4 v 19.2 c 0,3.6 -2.9,6.4 -6.4,6.4 z"
   style="fill:#008080" /><path
   id="path11-0"
   class="st0"
   d="m 259.5,32 c -3.5,0 -6.4,-2.9 -6.4,-6.4 V 6.4 c 0,-3.5 2.9,-6.4 6.4,-6.4 3.5,0 6.4,2.9 6.4,6.4 v 19.2 c 0,3.6 -2.9,6.4 -6.4,6.4 z"
   style="fill:#008080" /><path
   id="path12-09"
   class="st0"
   d="m 276.5,32 c -3.5,0 -6.4,-2.9 -6.4,-6.4 V 6.4 c 0,-3.5 2.9,-6.4 6.4,-6.4 3.5,0 6.4,2.9 6.4,6.4 v 19.2 c 0.1,3.6 -2.8,6.4 -6.4,6.4 z"
   style="fill:#008080" /><path
   id="path13-3"
   class="st0"
   d="m 302.9,32 c -3.5,0 -6.4,-2.9 -6.4,-6.4 V 6.4 c 0,-3.5 2.9,-6.4 6.4,-6.4 3.5,0 6.4,2.9 6.4,6.4 v 19.2 c 0,3.6 -2.9,6.4 -6.4,6.4 z"
   style="fill:#008080" /><path
   id="path14-7"
   class="st0"
   d="m 320,32 c -3.5,0 -6.4,-2.9 -6.4,-6.4 V 6.4 c 0,-3.5 2.9,-6.4 6.4,-6.4 3.5,0 6.4,2.9 6.4,6.4 v 19.2 c 0,3.6 -2.9,6.4 -6.4,6.4 z"
   style="fill:#008080" /><path
   id="path15-5"
   class="st0"
   d="m 337.1,32 c -3.5,0 -6.4,-2.9 -6.4,-6.4 V 6.4 c 0,-3.5 2.9,-6.4 6.4,-6.4 3.5,0 6.4,2.9 6.4,6.4 v 19.2 c 0,3.6 -2.9,6.4 -6.4,6.4 z"
   style="fill:#008080" /><path
   id="path10-39-7"
   class="st0"
   d="m 242.8,118 c -3.5,0 -6.4,-2.9 -6.4,-6.4 V 92.4 c 0,-3.5 2.9,-6.4 6.4,-6.4 3.5,0 6.4,2.9 6.4,6.4 v 19.2 c 0,3.5 -2.9,6.4 -6.4,6.4 z"
   style="fill:#008080" /><path
   id="path11-8-2"
   class="st0"
   d="m 259.9,118 c -3.5,0 -6.4,-2.9 -6.4,-6.4 V 92.4 c 0,-3.5 2.9,-6.4 6.4,-6.4 3.5,0 6.4,2.9 6.4,6.4 v 19.2 c 0,3.5 -2.9,6.4 -6.4,6.4 z"
   style="fill:#008080" /><path
   id="path12-6-9"
   class="st0"
   d="m 276.9,118 c -3.5,0 -6.4,-2.9 -6.4,-6.4 V 92.4 c 0,-3.5 2.9,-6.4 6.4,-6.4 3.5,0 6.4,2.9 6.4,6.4 v 19.2 c 0.1,3.5 -2.8,6.4 -6.4,6.4 z"
   style="fill:#008080" /><path
   id="path13-57-7"
   class="st0"
   d="m 303.3,118 c -3.5,0 -6.4,-2.9 -6.4,-6.4 V 92.4 c 0,-3.5 2.9,-6.4 6.4,-6.4 3.5,0 6.4,2.9 6.4,6.4 v 19.2 c 0,3.5 -2.9,6.4 -6.4,6.4 z"
   style="fill:#008080" /><path
   id="path14-6-5"
   class="st0"
   d="m 320.4,118 c -3.5,0 -6.4,-2.9 -6.4,-6.4 V 92.4 c 0,-3.5 2.9,-6.4 6.4,-6.4 3.5,0 6.4,2.9 6.4,6.4 v 19.2 c 0,3.5 -2.9,6.4 -6.4,6.4 z"
   style="fill:#008080" /><path
   id="path15-27-6"
   class="st0"
   d="m 337.5,118 c -3.5,0 -6.4,-2.9 -6.4,-6.4 V 92.4 c 0,-3.5 2.9,-6.4 6.4,-6.4 3.5,0 6.4,2.9 6.4,6.4 v 19.2 c 0,3.5 -2.9,6.4 -6.4,6.4 z"
   style="fill:#008080" /><path
   id="path10-3-5"
   class="st0"
   d="m 242.4,74.6 c -3.5,0 -6.4,-2.9 -6.4,-6.4 V 48.9 c 0,-3.5 2.9,-6.4 6.4,-6.4 3.5,0 6.4,2.9 6.4,6.4 v 19.2 c 0,3.6 -2.9,6.4 -6.4,6.5 z"
   style="fill:#008080" /><path
   id="path11-9-3"
   class="st0"
   d="m 259.5,74.6 c -3.5,0 -6.4,-2.9 -6.4,-6.4 V 48.9 c 0,-3.5 2.9,-6.4 6.4,-6.4 3.5,0 6.4,2.9 6.4,6.4 v 19.2 c 0,3.6 -2.9,6.4 -6.4,6.5 z"
   style="fill:#008080" /><path
   id="path12-0-0"
   class="st0"
   d="m 276.6,74.6 c -3.5,0 -6.4,-2.9 -6.4,-6.4 V 48.9 c 0,-3.5 2.9,-6.4 6.4,-6.4 3.5,0 6.4,2.9 6.4,6.4 v 19.2 c 0,3.6 -2.9,6.4 -6.4,6.5 z"
   style="fill:#008080" /><path
   id="path13-5-4"
   class="st0"
   d="m 302.9,74.6 c -3.5,0 -6.4,-2.9 -6.4,-6.4 V 48.9 c 0,-3.5 2.9,-6.4 6.4,-6.4 3.5,0 6.4,2.9 6.4,6.4 v 19.2 c 0,3.6 -2.8,6.4 -6.4,6.5 z"
   style="fill:#008080" /><path
   id="path14-2-8"
   class="st0"
   d="m 320,74.6 c -3.5,0 -6.4,-2.9 -6.4,-6.4 V 48.9 c 0,-3.5 2.9,-6.4 6.4,-6.4 3.5,0 6.4,2.9 6.4,6.4 v 19.2 c 0,3.6 -2.8,6.4 -6.4,6.5 z"
   style="fill:#008080" /><path
   id="path15-2-5"
   class="st0"
   d="m 337.1,74.6 c -3.5,0 -6.4,-2.9 -6.4,-6.4 V 48.9 c 0,-3.5 2.9,-6.4 6.4,-6.4 3.5,0 6.4,2.9 6.4,6.4 v 0 19.2 c 0,3.6 -2.8,6.4 -6.4,6.5 z"
   style="fill:#008080" />




<path
   id="path23"
   class="st1"
   d="M 89.726033,32 H 10.273973 C 4.6232872,32 0,24.799999 0,16 0,7.1999999 4.6232872,0 10.273973,0 h 79.45206 C 95.376713,0 100,7.1999999 100,16 c 0,8.799999 -4.452056,16 -10.273967,16 z"
   style="fill:#cccccc;stroke-width:2.13688" /><path
   id="path23-9"
   class="st1"
   d="M 89.726033,74.5 H 10.273973 C 4.6232872,74.5 0,67.299999 0,58.5 c 0,-8.8 4.6232872,-16 10.273973,-16 h 79.45206 C 95.376713,42.5 100,49.7 100,58.5 c 0,8.799999 -4.452056,16 -10.273967,16 z"
   style="fill:#cccccc;stroke-width:2.13688" /><path
   id="path23-9-9"
   class="st1"
   d="M 89.726031,118 H 10.273974 C 4.6232876,118 0,110.8 0,102 0,93.2 4.6232876,86 10.273974,86 H 89.726031 C 95.376713,86 100,93.2 100,102 c 0,8.8 -4.452056,16 -10.273969,16 z"
   style="fill:#cccccc;stroke-width:2.13688" />




</svg>
