<?xml version="1.0" encoding="UTF-8" standalone="no"?>
<!-- Created with Inkscape (http://www.inkscape.org/) -->

<svg
   width="210mm"
   height="297mm"
   viewBox="0 0 210 297"
   version="1.1"
   id="svg1"
   inkscape:version="1.4.2 (ebf0e940, 2025-05-08)"
   sodipodi:docname="figure.svg"
   xmlns:inkscape="http://www.inkscape.org/namespaces/inkscape"
   xmlns:sodipodi="http://sodipodi.sourceforge.net/DTD/sodipodi-0.dtd"
   xmlns="http://www.w3.org/2000/svg"
   xmlns:svg="http://www.w3.org/2000/svg">
  <sodipodi:namedview
     id="namedview1"
     pagecolor="#ffffff"
     bordercolor="#000000"
     borderopacity="0.25"
     inkscape:showpageshadow="2"
     inkscape:pageopacity="0.0"
     inkscape:pagecheckerboard="0"
     inkscape:deskcolor="#d1d1d1"
     inkscape:document-units="mm"
     inkscape:zoom="0.70199214"
     inkscape:cx="262.82345"
     inkscape:cy="561.25984"
     inkscape:window-width="976"
     inkscape:window-height="937"
     inkscape:window-x="0"
     inkscape:window-y="25"
     inkscape:window-maximized="0"
     inkscape:current-layer="layer1" />
  <defs
     id="defs1" />
  <g
     inkscape:label="Layer 1"
     inkscape:groupmode="layer"
     id="layer1">
    <path
       id="path8-8"
       style="display:inline;fill:#000000;stroke-width:0.264583"
       d="m 64.862842,36.512499 a 19.92494,20.439438 0 0 0 -19.924882,20.439063 19.92494,20.439438 0 0 0 1.105359,6.713802 c 0.01224,0.01648 0.02282,0.03414 0.03307,0.05219 0.01895,0.03993 0.0053,0.0086 0.03411,0.06253 0.0077,0.01503 0.01417,0.03071 0.01964,0.04651 3.59e-4,10e-4 6.83e-4,0.0021 10e-4,0.0031 0.005,0.01481 0.0091,0.02969 0.0124,0.04496 0.0026,0.0075 0.006,0.01788 0.01033,0.03049 l 5.17e-4,5.17e-4 c 0.0038,0.007 0.0098,0.03847 0.01395,0.06201 0.0024,0.0069 0.0043,0.01385 0.0062,0.02067 l 5.17e-4,-5.16e-4 v -5.17e-4 h 5.17e-4 v 5.17e-4 c 0.0011,0.002 0.0029,0.0098 0.0041,0.01292 0.0032,0.0083 0.0063,0.0164 0.0093,0.0248 0.01166,0.04101 0.01499,0.05298 0.02481,0.08062 0.01425,0.0512 0.01525,0.05718 0.02325,0.07958 0.0096,0.02927 0.01562,0.05508 0.02222,0.07235 0.0093,0.02495 0.01565,0.0509 0.02067,0.077 v 5.17e-4 h 5.17e-4 c 6.13e-4,0.0018 0.0019,0.0064 0.0026,0.0083 0.01144,0.04094 0.02069,0.08266 0.03049,0.124024 0.0056,0.01592 0.01019,0.03189 0.01499,0.04806 0.01507,0.05027 0.02284,0.09655 0.02429,0.138493 0.05866,0.14982 0.122327,0.311622 0.189653,0.48059 3.76e-4,9.43e-4 7.25e-4,0.0016 0.001,0.0026 v 5.17e-4 h 5.17e-4 v 5.17e-4 c 9.6e-5,2.16e-4 3.91e-4,8.37e-4 5.17e-4,0.001 l 5.16e-4,5.17e-4 c 0.008,0.01569 0.04037,0.07619 0.04186,0.08992 v 5.17e-4 5.17e-4 5.16e-4 h -5.16e-4 v 5.17e-4 5.17e-4 h -5.17e-4 -5.17e-4 -5.17e-4 l -5.16e-4,-5.17e-4 c -4.68e-4,-3.01e-4 -0.0017,-0.0011 -0.0026,-0.0016 L 46.58117,65.2301 c -5e-4,-0.0011 -0.0014,-0.003 -0.0021,-0.0047 0.0027,0.009 0.0063,0.01776 0.01033,0.02635 0.01122,0.02393 0.02549,0.04707 0.02946,0.07338 0.02352,0.05863 0.04715,0.117942 0.07131,0.177767 0.01057,0.02234 0.02138,0.04449 0.03101,0.06718 5.93e-4,0.0021 0.0014,0.0041 0.0021,0.0062 0.0078,0.01928 0.01487,0.03127 0.02274,0.05064 0.0098,0.01845 0.02003,0.03686 0.02687,0.05633 0.03163,0.06174 0.06039,0.124836 0.08992,0.187586 0.02147,0.05106 0.0516,0.09822 0.0708,0.150378 0.02084,0.04169 0.0406,0.08084 0.06253,0.121957 0.02822,0.04915 0.05438,0.09941 0.0801,0.149861 0.03123,0.06036 0.0576,0.122945 0.0863,0.184485 0.0376,0.0769 0.07613,0.153428 0.106453,0.233578 0.0401,0.100233 0.07676,0.201452 0.117823,0.301273 7.2e-5,1.32e-4 -7.3e-5,3.85e-4 0,5.17e-4 9.98e-4,0.0024 0.0021,0.0048 0.0031,0.0072 0.02827,0.06752 0.05539,0.135778 0.0801,0.204638 0.02187,0.05327 0.04211,0.107224 0.06718,0.159164 0.0011,0.0027 0.002,0.0056 0.0031,0.0083 0.07327,0.154122 0.161336,0.380763 0.225309,0.500745 0.0064,0.01008 0.01293,0.01982 0.01912,0.02945 0.01976,0.02786 0.03853,0.05492 0.05684,0.08372 0.0056,0.0088 0.01082,0.01829 0.01602,0.02739 v 5.17e-4 5.17e-4 h 5.17e-4 l 5.16e-4,5.17e-4 5.17e-4,5.17e-4 v 5.16e-4 h 5.17e-4 v 5.17e-4 h -5.17e-4 c 0.02952,0.04168 0.05607,0.08556 0.08423,0.128158 0.04023,0.05914 0.07881,0.119313 0.115238,0.180867 l 5.17e-4,5.17e-4 c 0.0015,0.0028 0.0031,0.0055 0.0047,0.0083 4.66e-4,7.95e-4 0.0011,0.0018 0.0016,0.0026 0.01041,0.01777 0.0202,0.03538 0.02894,0.05271 0.09803,0.181115 0.216473,0.418131 0.368453,0.72192 1.164257,2.32722 5.342815,6.21915 7.95507,7.40937 0.747886,0.34076 0.678154,0.45423 -0.545703,0.89039 -1.62122,0.57777 -5.298177,2.33506 -8.494572,4.06021 -1.567384,0.84594 -6.083592,3.27416 -10.03608,5.39554 -13.461641,7.22513 -12.780776,6.61002 -17.721916,16.009358 -6.999641,13.31515 -7.364618,15.4268 -3.376538,19.54816 5.375962,5.55562 10.847771,3.12367 16.346289,-7.26622 3.758961,-7.10286 3.928277,-7.33677 6.037874,-8.33179 1.767711,-0.83377 8.236008,-3.829 8.591724,-3.97857 0.239047,-0.10051 -0.687833,4.13723 -2.184363,9.98647 -1.847207,7.21987 -2.25198,9.14116 -2.379183,11.29285 -0.146005,2.46975 0.0481,2.09929 -6.503995,12.42197 -4.742081,7.47105 -4.566551,7.26444 -15.026473,17.66714 -11.624918,11.56132 -11.736794,11.71303 -11.56932,15.62747 0.18814,4.39748 9.226809,11.89008 15.441951,12.80077 2.683673,0.39323 11.678616,-0.0943 12.822474,-0.69505 2.703466,-1.41976 0.422732,-6.67668 -4.237468,-9.76788 -1.926264,-1.27773 -2.083854,-1.03499 4.769735,-7.36028 8.634654,-7.96907 10.099128,-9.52311 14.349512,-15.23369 1.581701,-2.12509 5.386768,-7.41016 5.907133,-8.20467 1.173399,-1.79157 20.755148,19.4298 32.999018,35.76216 5.49102,7.32459 7.99704,7.05339 18.520828,-2.00349 10.2025,-8.78036 12.72474,-13.3331 8.97206,-16.1954 -2.7985,-2.13452 -5.42966,-1.92146 -11.91607,0.96428 -1.82916,0.81378 -3.3118,1.3623 -3.3879,1.25367 -0.0745,-0.10624 -0.7301,-1.06824 -1.45676,-2.13785 -1.46409,-2.15505 -3.272218,-4.68791 -5.345408,-7.48842 -0.7524,-1.01636 -2.29137,-3.09534 -3.41995,-4.61988 -3.14595,-4.24967 -14.82809,-18.14914 -18.10742,-21.54442 -1.09117,-1.12974 -1.09229,-1.13006 0.0331,-4.52478 0.61824,-1.86711 1.56035,-4.87285 2.09393,-6.6797 0.53358,-1.80686 1.00607,-3.32612 1.05007,-3.37602 0.044,-0.0498 0.56282,0.37163 1.1529,0.93638 1.02609,0.98204 2.21285,1.98337 3.80597,3.2122 0.83212,0.64184 4.46477,1.88071 6.55412,2.23501 1.89002,0.32049 3.72723,-0.16047 7.98814,-2.09031 1.79158,-0.81144 3.935338,-1.74443 4.764048,-2.07378 0.82871,-0.32936 1.86444,-0.78154 2.30167,-1.00459 0.13741,-0.0701 0.2558,-0.13112 0.3576,-0.18191 0.0411,-0.0313 0.0866,-0.0569 0.13229,-0.0806 0.0427,-0.0218 0.0853,-0.0434 0.12868,-0.0636 0.0279,-0.0125 0.0572,-0.0214 0.0848,-0.0346 0.0176,-0.008 0.0331,-0.0151 0.0496,-0.0227 h 5.1e-4 l 5.2e-4,-5.1e-4 c 0.014,-0.012 0.0461,-0.0262 0.061,-0.0331 0.0855,-0.0301 0.17598,-0.044 0.26458,-0.0625 0.005,-0.001 0.0111,-0.002 0.0165,-0.003 0.0459,-0.03 0.0933,-0.0571 0.14108,-0.0837 0.069,-0.0416 0.15115,-0.0605 0.22065,-0.10025 0.0829,-0.0388 0.16635,-0.0749 0.25115,-0.10904 0.13191,-0.0524 0.26705,-0.0965 0.40101,-0.14315 0.12054,-0.0396 0.24051,-0.0814 0.36174,-0.11885 0.0764,-0.0263 0.15084,-0.0565 0.22634,-0.0853 0.0709,-0.0282 0.13624,-0.0661 0.20464,-0.0997 0.0938,-0.0474 0.18847,-0.0935 0.28577,-0.13333 0.10016,-0.0432 0.20128,-0.085 0.30282,-0.12557 0.13419,-0.0619 0.26991,-0.1197 0.4067,-0.1757 0.12159,-0.0562 0.24796,-0.1022 0.37,-0.1571 0.1018,-0.0417 0.20436,-0.0827 0.30386,-0.12971 0.10892,-0.0514 0.21841,-0.10056 0.32969,-0.14676 0.13766,-0.0581 0.28103,-0.10048 0.42271,-0.14728 0.15394,-0.0455 0.30432,-0.10109 0.45579,-0.15399 0.16143,-0.0536 0.31498,-0.12702 0.46922,-0.19792 0.18758,-0.0889 0.37111,-0.18595 0.55656,-0.27905 0.17549,-0.085 0.34786,-0.17585 0.52503,-0.25735 0.22457,-0.10755 0.45634,-0.19937 0.68626,-0.29456 0.19451,-0.0819 0.38973,-0.16201 0.5855,-0.24081 0.1329,-0.0575 0.27011,-0.1061 0.39894,-0.1726 0.11326,-0.0603 0.22885,-0.11543 0.34468,-0.17053 0.11082,-0.0652 0.2307,-0.11228 0.34417,-0.17208 0.12084,-0.0598 0.24263,-0.11767 0.36483,-0.17467 0.12286,-0.0545 0.24537,-0.11067 0.36949,-0.16227 0.14325,-0.0598 0.28127,-0.13137 0.42064,-0.19947 0.23428,-0.11017 0.46862,-0.22017 0.70074,-0.33486 0.27815,-0.13159 0.55715,-0.26142 0.83664,-0.39016 0.22846,-0.11286 0.46274,-0.21249 0.6935,-0.32039 0.1721,-0.0709 0.33826,-0.15563 0.50643,-0.23513 0.13014,-0.0647 0.2604,-0.13105 0.3855,-0.20515 0.0915,-0.054 0.1839,-0.10612 0.27492,-0.16072 l 5.2e-4,-5.1e-4 c 0.0532,-0.0447 0.11566,-0.10846 0.15606,-0.13746 0.045,-0.0473 0.0912,-0.0961 0.14159,-0.13953 0.01,-0.008 0.0457,-0.0494 0.0734,-0.0791 v -5.2e-4 c 0.001,-9.1e-4 0.003,-0.003 0.004,-0.004 h 5.1e-4 c 0.0435,-0.0536 0.0279,-0.031 0.0946,-0.11937 0.0463,-0.0562 0.0718,-0.0864 0.0946,-0.11369 0.0336,-0.0579 0.0433,-0.0453 0.0832,-0.11472 0.0161,-0.0208 0.0349,-0.0576 0.0553,-0.0739 0.0176,-0.0244 0.0391,-0.0511 0.0522,-0.0677 l 0.006,-0.006 5.1e-4,-5.1e-4 5.2e-4,-5.2e-4 c 0.004,-0.006 0.007,-0.0134 0.0119,-0.0212 0.0194,-0.0321 0.0485,-0.0942 0.0801,-0.13642 0.035,-0.0543 0.0518,-0.0852 0.0708,-0.12764 0.0367,-0.0606 0.0222,-0.0584 0.0496,-0.11834 0.0176,-0.0548 0.0516,-0.15022 0.061,-0.1602 h 5.2e-4 v -5.2e-4 h 5.1e-4 5.2e-4 c 0.008,-0.0235 0.0177,-0.0467 0.0284,-0.0692 0.0476,-0.0957 0.0503,-0.0809 0.0724,-0.13591 0.037,-0.0688 0.0321,-0.06 0.0868,-0.15296 0.0151,-0.0286 0.0206,-0.0378 0.0222,-0.0403 0.028,-0.0574 0.0592,-0.11172 0.0961,-0.16382 0.004,-0.006 0.007,-0.012 0.0119,-0.0181 9.9e-4,-0.005 0.002,-0.0109 0.004,-0.0171 v -5.1e-4 -5.2e-4 c 0.003,-0.0229 0.008,-0.0452 0.0134,-0.0677 3.2e-4,-0.0102 1.6e-4,-0.0216 0.003,-0.0346 0.003,-0.0224 0.008,-0.0449 0.0176,-0.0656 v -5.1e-4 -5.2e-4 l 5.2e-4,-5.2e-4 v -5.1e-4 c 0.002,-0.0146 0.006,-0.0293 0.0103,-0.0434 0.002,-0.006 0.006,-0.0185 0.009,-0.0274 0.003,-0.0123 0.006,-0.0246 0.0103,-0.0367 -0.002,-0.0132 -0.001,-0.0267 0.004,-0.0388 0.007,-0.0173 0.0139,-0.0349 0.0207,-0.0522 -0.003,-7e-5 -0.005,4e-5 -0.007,-5.2e-4 l -5.1e-4,-5.2e-4 h -5.2e-4 v -5.1e-4 -5.2e-4 h 5.2e-4 c 0.001,-2.5e-4 0.004,-4.6e-4 0.008,0 2.39462,-6.141108 -2.87213,-12.678498 -9.21598,-11.404468 -0.63806,0.12814 -3.02787,0.96715 -5.31078,1.86397 -9.894438,3.88689 -12.757558,4.85187 -13.806908,4.65501 -0.9551,-0.17918 -4.88432,-4.65165 -11.24686,-12.80128 -0.76832,-0.98413 -2.18823,-2.78698 -3.15537,-4.00648 -0.96715,-1.21949 -1.7246,-2.25095 -1.6831,-2.29185 0.0415,-0.0409 0.66072,-0.22541 1.37563,-0.41031 6.20826,-1.60571 10.06061,-5.81214 11.32541,-12.366175 0.41414,-2.146039 0.4144,-2.146398 1.7048,-3.417879 3.85562,-3.7991 3.99131,-6.985391 0.8878,-8.090462 -0.001,-0.0028 -0.003,-0.0069 -0.006,-0.0093 -0.003,-0.0028 -0.006,-0.0067 -0.009,-0.0093 -0.0363,-0.0072 -0.0727,-0.01391 -0.10904,-0.02067 -0.0508,-0.0097 -0.10195,-0.01792 -0.15245,-0.02894 -0.0383,-0.0067 -0.0758,-0.01527 -0.11368,-0.02377 -0.0364,-0.0065 -0.0711,-0.01974 -0.10594,-0.03204 -0.0212,-0.0066 -0.041,-0.01652 -0.0625,-0.02222 -0.0256,-0.01 -0.0527,-0.01534 -0.0791,-0.02274 -0.0216,-0.0088 -0.0445,-0.01132 -0.0672,-0.01602 -0.0267,-0.0075 -0.0539,-0.01145 -0.0811,-0.01705 -0.0269,-0.0076 -0.0554,-0.01104 -0.0827,-0.01654 -0.0227,-0.0059 -0.0449,-0.0094 -0.0682,-0.0124 -0.0274,-0.0013 -0.054,-0.0093 -0.0806,-0.01499 -0.0263,-0.0023 -0.0517,-0.0078 -0.0775,-0.01344 -0.017,-0.0038 -0.0344,-0.0048 -0.0517,-0.0062 -0.025,-6e-4 -0.0496,-0.003 -0.0744,-0.0062 -0.0149,-0.0038 -0.0296,-0.0083 -0.045,-0.0093 -0.031,-0.0021 -0.0617,-0.0095 -0.0925,-0.01344 -0.0469,-0.01027 -0.0951,-0.01586 -0.14263,-0.02325 -0.14844,-0.02089 -0.29707,-0.03787 -0.44596,-0.05529 -0.0302,-0.0035 -0.0571,-0.0096 -0.0811,-0.01757 -0.50282,-0.03466 -1.04882,-0.03607 -1.63814,-0.0031 -2.20436,0.122888 -2.20431,0.122824 -2.6479,-0.847494 -1.0282,-2.249116 -1.61368,-3.524197 -2.30115,-5.012097 -0.16003,-0.346359 -0.28493,-0.616806 -0.37517,-0.831991 -0.0263,-0.03449 -0.039,-0.04846 -0.0625,-0.077 v -5.16e-4 h -5.2e-4 v -5.17e-4 -5.17e-4 l -5.1e-4,-5.17e-4 -5.2e-4,-5.16e-4 h -5.2e-4 c -0.002,-0.002 -0.003,-0.004 -0.005,-0.0062 -0.0192,-0.02155 -0.0373,-0.04394 -0.0543,-0.06718 a 19.92494,20.439438 0 0 0 -0.30747,-0.548804 19.92494,20.439438 0 0 0 -0.005,-0.0088 c -0.0495,-0.09218 -0.097,-0.185382 -0.14367,-0.279052 -0.0671,-0.131145 -0.14379,-0.257159 -0.21859,-0.383956 -0.14167,-0.228894 -0.27029,-0.465295 -0.40152,-0.700216 -0.01,-0.01735 -0.0197,-0.03483 -0.0295,-0.05219 -0.13644,-0.243697 -0.26984,-0.488756 -0.40566,-0.732772 -0.0182,-0.02517 -0.0358,-0.05131 -0.0527,-0.077 -0.0497,-0.08359 -0.10179,-0.165947 -0.15399,-0.248047 -0.0618,-0.09642 -0.12947,-0.188979 -0.19947,-0.279569 -0.0588,-0.07269 -0.11931,-0.14437 -0.17881,-0.216524 v -5.17e-4 h -5.1e-4 c -5.2e-4,-3.14e-4 -0.002,-0.0015 -0.003,-0.0021 h -5.2e-4 c -0.0248,-0.01685 -0.0496,-0.03373 -0.0744,-0.05064 -1.53717,-1.731609 -2.20963,-2.326574 -2.38797,-2.478919 a 19.92494,20.439438 0 0 0 -13.23795,-5.197956 z m -17.71158,1.207162 c -0.0053,0.0049 -0.0098,0.0096 -0.01499,0.01447 v 5.17e-4 h 5.17e-4 5.16e-4 c 0.0048,-0.0051 0.0092,-0.0099 0.01395,-0.01499 z M 166.45561,206.13574 c -0.0377,0.0972 -0.0759,0.19443 -0.11421,0.29145 0.17158,-0.0833 0.34129,-0.16772 0.5085,-0.25321 -0.13144,-0.0125 -0.26301,-0.0253 -0.39429,-0.0382 z"
       inkscape:label="Figure"
       sodipodi:insensitive="true" />
  </g>
</svg>
