<?xml version="1.0" encoding="UTF-8" standalone="no"?>
<!-- Created with Inkscape (http://www.inkscape.org/) -->

<svg
   width="210mm"
   height="297mm"
   viewBox="0 0 210 297"
   version="1.1"
   id="svg1"
   inkscape:version="1.4.2 (ebf0e940, 2025-05-08)"
   sodipodi:docname="suitcase.svg"
   xmlns:inkscape="http://www.inkscape.org/namespaces/inkscape"
   xmlns:sodipodi="http://sodipodi.sourceforge.net/DTD/sodipodi-0.dtd"
   xmlns="http://www.w3.org/2000/svg"
   xmlns:svg="http://www.w3.org/2000/svg">
  <sodipodi:namedview
     id="namedview1"
     pagecolor="#ffffff"
     bordercolor="#000000"
     borderopacity="0.25"
     inkscape:showpageshadow="2"
     inkscape:pageopacity="0.0"
     inkscape:pagecheckerboard="0"
     inkscape:deskcolor="#d1d1d1"
     inkscape:document-units="mm"
     inkscape:zoom="0.70199214"
     inkscape:cx="396.72809"
     inkscape:cy="561.25984"
     inkscape:window-width="976"
     inkscape:window-height="937"
     inkscape:window-x="0"
     inkscape:window-y="25"
     inkscape:window-maximized="0"
     inkscape:current-layer="layer1" />
  <defs
     id="defs1" />
  <g
     inkscape:label="Layer 1"
     inkscape:groupmode="layer"
     id="layer1">
    <path
       id="path1-9-5"
       style="display:inline;fill:#000000"
       d="m 50.867202,95.249993 c -0.0225,2.1e-4 -0.0446,2.9e-4 -0.0672,5.1e-4 0.0105,0.01 0.021,0.0194 0.0315,0.0289 0.012,-0.01 0.0236,-0.0199 0.0356,-0.0294 z m 32.97887,7.231077 c -0.22764,10e-4 -0.45556,-0.003 -0.68316,0.002 -0.26561,0.0102 -0.53123,0.0138 -0.79685,0.0238 -0.0991,0.005 -0.19808,0.011 -0.29714,0.0176 -0.14245,0.0331 -0.28443,0.0692 -0.42582,0.10645 -0.327,0.0891 -0.65486,0.17584 -0.97978,0.27234 -0.32812,0.0907 -0.64524,0.21171 -0.9617,0.33589 -0.29381,0.11541 -0.58694,0.23269 -0.88005,0.34985 -0.27121,0.11274 -0.54809,0.2107 -0.82114,0.31885 -0.26991,0.10794 -0.53629,0.22443 -0.79995,0.34675 -0.2261,0.10615 -0.45524,0.20551 -0.68368,0.30644 -0.25802,0.10872 -0.51839,0.21126 -0.77876,0.31419 -0.31329,0.11744 -0.62883,0.22845 -0.94103,0.34882 -0.43393,0.16367 -0.86792,0.32745 -1.30328,0.48731 -0.19576,0.0714 -0.39188,0.14235 -0.58756,0.21394 -0.12332,0.0938 -0.24631,0.1876 -0.36897,0.28215 -0.25987,0.20658 -0.5218,0.41164 -0.76378,0.63924 -0.12633,0.13533 -0.25062,0.27267 -0.35192,0.42839 -0.10907,0.16746 -0.209,0.34099 -0.31212,0.51212 -0.14263,0.2464 -0.28618,0.49212 -0.42892,0.73845 -0.10004,0.18335 -0.19236,0.36995 -0.26716,0.56534 -0.0726,0.18483 -0.14392,0.37035 -0.18862,0.56431 -0.0346,0.12625 -0.0687,0.25292 -0.0966,0.38086 -0.0158,0.0608 -0.024,0.12298 -0.0367,0.18448 -0.0178,0.0878 -0.0346,0.17547 -0.0481,0.26407 -0.01,0.0521 -0.0188,0.10416 -0.0269,0.15658 0.031,0.10767 -0.004,0.32861 -0.0517,0.68626 -0.10718,0.79905 0.9361,3.94225 1.40457,4.23178 0.44787,0.2768 -0.0248,0.52027 -3.15536,1.62523 -4.63058,1.63441 -5.32179,2.09507 -6.01462,4.00699 -0.4245,1.17143 -0.48485,2.20096 -0.092,3.84111 l 0.004,0.0527 0.0646,0.1788 c 0.34612,1.35251 0.9496,3.06497 2.03192,5.78156 0.78736,1.97625 2.16527,5.66379 3.06183,8.19433 4.14577,11.7014 4.78265,11.83006 23.37532,4.74028 2.42796,-0.92584 6.30873,-2.36957 8.62376,-3.20859 13.813628,-5.00635 13.760018,-4.88954 8.580868,-18.9668 -0.89326,-2.42796 -2.12802,-5.84553 -2.74402,-7.59592 -2.84893,-8.09531 -4.06786,-8.82278 -11.194148,-6.67401 -2.05986,0.6211 -3.80793,1.12913 -3.88503,1.12913 -0.16127,0 -0.61523,-1.00142 -1.25522,-2.77089 -0.58663,-1.62193 -1.79936,-2.8619 -3.12488,-3.19567 -0.20772,-0.0523 -0.38956,-0.11271 -0.5333,-0.17467 -0.0832,-0.006 -0.16615,-0.0154 -0.24908,-0.0233 -0.10368,-0.009 -0.20758,-0.0125 -0.31161,-0.0145 -0.23545,-0.004 -0.47094,-0.004 -0.70641,-0.004 z m -2.27738,4.0504 v 5.2e-4 5.1e-4 h 5.1e-4 c 0.0368,1e-5 0.0738,0.001 0.11059,0.003 0.0649,0.003 0.13001,0.008 0.19431,0.0181 0.0285,0.005 0.057,0.01 0.0853,0.0155 0.0208,-1.6e-4 0.0418,-2.4e-4 0.0631,5.2e-4 l -0.001,0.001 h 0.001 c 1.24677,0.0506 3.19548,1.72619 3.56929,3.35949 0.13981,0.61088 0.494,0.44128 -6.13606,2.94556 -1.581,0.59716 -3.03569,1.15071 -3.23236,1.23041 -0.22273,0.0903 -0.39632,0.0403 -0.45992,-0.13281 -0.33883,-0.92179 -0.60218,-1.63441 -0.75138,-2.20761 -0.064,-0.0745 -0.1053,-0.18979 -0.10128,-0.3483 -0.001,-0.003 -0.002,-0.007 -0.004,-0.0103 -0.015,-0.0423 -0.0286,-0.0854 -0.0336,-0.13022 -0.002,-0.0168 -0.037,-0.10023 -0.031,-0.12093 -0.002,-0.012 -0.003,-0.024 -0.006,-0.0357 -0.0162,-0.0577 -0.0273,-0.11695 -0.0243,-0.17725 7e-5,-0.024 1.7e-4,-0.0477 5.2e-4,-0.0724 0,-0.034 4.4e-4,-0.0682 0.003,-0.10232 0.004,-0.057 0.009,-0.11418 0.0258,-0.16898 0.004,-0.0115 0.007,-0.0227 0.0114,-0.0341 0.002,-0.005 0.003,-0.009 0.004,-0.0114 0.008,-0.0505 0.0182,-0.10076 0.0362,-0.14882 3.1e-4,-10e-4 10e-4,-0.003 0.002,-0.005 v -5.2e-4 l 5.1e-4,-5.2e-4 5.2e-4,-5.1e-4 c 1.1e-4,-1.8e-4 4.2e-4,-8.9e-4 5.2e-4,-0.001 v -5.1e-4 -5.2e-4 -5.2e-4 -5.1e-4 l 5.1e-4,-5.2e-4 v -5.2e-4 -5.1e-4 h 5.2e-4 v -5.2e-4 h 5.2e-4 v -5.2e-4 -5.1e-4 h 5.1e-4 v -5.2e-4 c 0.007,-0.0299 0.0165,-0.0588 0.0274,-0.0873 l 5.2e-4,-5.2e-4 v -5.2e-4 h 5.2e-4 v -5.1e-4 -5.2e-4 -5.2e-4 -5.1e-4 -5.2e-4 c 0.004,-0.0324 0.009,-0.0643 0.0171,-0.0961 0.016,-0.065 0.0322,-0.11395 0.0501,-0.17725 0.0251,-0.0642 0.0235,-0.0585 0.0579,-0.13229 0.006,-0.0106 0.022,-0.0512 0.0258,-0.0584 l 5.2e-4,-10e-4 h 5.1e-4 c -1.3e-4,9e-4 -0.001,0.004 -0.002,0.007 0.0181,-0.0475 0.0413,-0.0887 0.0703,-0.12971 0.0162,-0.0258 0.034,-0.0506 0.0501,-0.0765 0.0607,-0.0953 -0.0538,0.0845 0.0357,-0.0563 10e-4,-0.002 0.0204,-0.0282 0.0269,-0.0362 v -5.2e-4 h 5.2e-4 v -5.2e-4 h 5.2e-4 l 5.1e-4,-5.1e-4 5.2e-4,-5.2e-4 h 5.2e-4 c 0.0234,-0.0363 0.0487,-0.0708 0.0739,-0.10594 0.0733,-0.0865 -0.0202,0.0234 0.0377,-0.045 v -5.1e-4 h 5.1e-4 v -5.2e-4 -5.2e-4 h 5.2e-4 5.2e-4 v -5.1e-4 -5.2e-4 c 0.005,-0.009 0.0107,-0.0182 0.0191,-0.0238 0.0111,-0.0143 0.0607,-0.0864 0.0687,-0.093 v -5.2e-4 h 5.1e-4 c 0.0263,-0.0327 0.0525,-0.0649 0.0853,-0.0987 0.037,-0.039 0.0734,-0.0716 0.10335,-0.0956 0.0365,-0.0283 0.0734,-0.0569 0.11886,-0.0889 0.041,-0.0275 0.0832,-0.0518 0.12351,-0.0801 0.0431,-0.0268 0.0879,-0.0513 0.13332,-0.0739 0.0632,-0.0319 0.12324,-0.0705 0.18914,-0.0971 0.071,-0.0303 0.14062,-0.0629 0.21032,-0.0961 0.0684,-0.0306 0.13579,-0.0633 0.20309,-0.0961 0.0668,-0.0289 0.13265,-0.0598 0.19895,-0.0899 0.0549,-0.0245 0.10928,-0.0495 0.16278,-0.077 0.0599,-0.0363 0.12237,-0.0678 0.18087,-0.10645 0.0832,-0.046 0.16583,-0.0938 0.25373,-0.13075 0.0961,-0.0422 0.19132,-0.0867 0.29042,-0.12144 0.085,-0.0315 0.1719,-0.0568 0.2589,-0.0822 0.0951,-0.0289 0.19072,-0.0566 0.28422,-0.0904 0.0954,-0.0323 0.19139,-0.0613 0.28629,-0.0951 0.0782,-0.0308 0.15806,-0.0565 0.23616,-0.0878 0.078,-0.0348 0.15706,-0.067 0.23616,-0.0992 0.0701,-0.0331 0.14126,-0.0645 0.21136,-0.0971 0.0684,-0.0313 0.13732,-0.0616 0.20722,-0.0894 0.081,-0.036 0.16396,-0.0671 0.24546,-0.1018 0.0728,-0.0293 0.14443,-0.0606 0.21653,-0.0915 0.0641,-0.0256 0.12587,-0.0581 0.19017,-0.0832 0.0747,-0.0317 0.15026,-0.0605 0.22686,-0.0873 0.0726,-0.0274 0.14432,-0.0583 0.21652,-0.0868 0.0854,-0.0348 0.17065,-0.0693 0.25735,-0.10077 0.0813,-0.0333 0.16326,-0.0655 0.24546,-0.0966 0.0646,-0.0252 0.12859,-0.0516 0.19069,-0.0827 0.0445,-0.0223 0.0865,-0.0492 0.13384,-0.0656 0.067,-0.0269 0.13543,-0.0471 0.20826,-0.0501 z m -12.37341,4.32945 c 3.7e-4,0.003 9.8e-4,0.005 10e-4,0.008 l 5.1e-4,-5.1e-4 h 5.2e-4 5.2e-4 l 5.1e-4,-5.2e-4 c -9.5e-4,-0.002 -0.002,-0.004 -0.003,-0.007 z m -3.51038,47.78675 v 5.2e-4 h -5.1e-4 v 5.1e-4 c -0.003,0.0202 0.0361,0.18313 0.0465,0.2465 9.1e-4,0.006 0.002,0.0117 0.003,0.0176 4.8e-4,-0.002 0.001,-0.005 0.002,-0.007 0.0211,-0.0799 -0.006,-0.16953 -0.0408,-0.24443 -0.003,-0.007 -0.006,-0.0106 -0.007,-0.0124 h -5.1e-4 -5.2e-4 l -5.2e-4,-0.001 -0.001,-5.2e-4 z m -5.37951,7.1608 c -0.0169,0.001 -0.0412,0.0227 -0.062,0.046 0.0205,-0.0152 0.0411,-0.0306 0.062,-0.046 z m 70.035508,39.21776 c -0.0377,0.0972 -0.0759,0.19444 -0.1142,0.29146 0.17158,-0.0833 0.34129,-0.16773 0.5085,-0.25322 -0.13144,-0.0125 -0.26302,-0.0253 -0.3943,-0.0382 z"
       inkscape:label="suitcase"
       sodipodi:insensitive="true" />
  </g>
</svg>
