<?xml version="1.0" encoding="UTF-8" standalone="no"?>
<svg
   width="759.69153"
   height="432"
   viewBox="0 0 759.69155 432.00001"
   role="img"
   artist="Katerina Limpitsouni"
   source="https://undraw.co/"
   version="1.1"
   id="svg60"
   sodipodi:docname="undraw_vault_tyfh.svg"
   inkscape:version="1.4.2 (ebf0e940, 2025-05-08)"
   xmlns:inkscape="http://www.inkscape.org/namespaces/inkscape"
   xmlns:sodipodi="http://sodipodi.sourceforge.net/DTD/sodipodi-0.dtd"
   xmlns="http://www.w3.org/2000/svg"
   xmlns:svg="http://www.w3.org/2000/svg">
  <defs
     id="defs60" />
  <sodipodi:namedview
     id="namedview60"
     pagecolor="#ffffff"
     bordercolor="#000000"
     borderopacity="0.25"
     inkscape:showpageshadow="2"
     inkscape:pageopacity="0.0"
     inkscape:pagecheckerboard="0"
     inkscape:deskcolor="#d1d1d1"
     inkscape:zoom="1.4142136"
     inkscape:cx="476.23642"
     inkscape:cy="166.8772"
     inkscape:window-width="1688"
     inkscape:window-height="937"
     inkscape:window-x="35"
     inkscape:window-y="99"
     inkscape:window-maximized="0"
     inkscape:current-layer="svg60" />
  <path
     d="m 36.172023,409.81401 c -22.523,-14.678 -38.8992495,-41.06206 -35.54762952,-67.73564 A 123.86333,123.86333 0 0 0 77.059083,379.356 c 11.2188,1.12255 23.813707,1.203 31.780817,9.181 4.95743,4.964 7.06374,12.21938 7.17209,19.23382 0.10818,7.01478 -1.57724,13.919 -3.25174,20.7319 l 0.41151,1.70229 C 86.306473,429.21223 58.695023,424.492 36.172023,409.81401 Z"
     fill="#f0f0f0"
     id="path1" />
  <path
     d="m 1.1884635,342.0726 a 105.8698,105.8698 0 0 0 42.0132295,49.7772 45.59136,45.59136 0 0 0 13.05747,5.79236 26.14868,26.14868 0 0 0 13.75175,-0.52792 c 4.17968,-1.22258 8.31345,-2.95716 12.71753,-3.14244 a 16.01086,16.01086 0 0 1 12.09044,5.02735 c 3.96164,3.99276 6.252337,9.17088 8.316487,14.3125 2.29184,5.70878 4.5819,11.67473 9.24952,15.903 0.56555,0.51231 -0.26246,1.3599 -0.82716,0.84835 -8.12086,-7.35651 -9.01471,-19.15919 -15.398057,-27.6937 -2.9786,-3.98236 -7.17537,-7.09121 -12.306,-7.22264 -4.48656,-0.11493 -8.75087,1.67014 -12.97218,2.9446 a 27.90252,27.90252 0 0 1 -13.427,1.01719 42.148,42.148 0 0 1 -13.232,-5.269 102.71281,102.71281 0 0 1 -24.765,-20.42666 107.7473,107.7473 0 0 1 -19.41146952,-31.02514 c -0.28775,-0.704 0.85653,-1.01448 1.14241002,-0.315 z"
     fill="#ffffff"
     id="path2" />
  <path
     d="m 77.451943,293.26622 c 0.0584,0.47341 0.11673,0.94682 0.18388,1.42507 a 118.40619,118.40619 0 0 0 3.986,18.78915 c 0.13435,0.47733 0.27769,0.95906 0.42547,1.43154 a 124.82721,124.82721 0 0 0 21.468057,40.63524 121.2228,121.2228 0 0 0 12.52975,13.5 c 6.23281,5.76649 13.44959,11.52292 17.30008,18.79753 a 20.798,20.798 0 0 1 1.08726,2.33295 l -19.21583,39.39325 c -0.0886,0.0676 -0.16847,0.14 -0.25728,0.20807 l -0.69531,1.60793 c -0.24779,-0.1991 -0.50051,-0.41093 -0.7483,-0.61 -0.14422,-0.1149 -0.28416,-0.23858 -0.42838,-0.35347 -0.0948,-0.0794 -0.18942,-0.15923 -0.27949,-0.22544 -0.0317,-0.0263 -0.0631,-0.053 -0.0858,-0.075 -0.0901,-0.0662 -0.16671,-0.13728 -0.24779,-0.1991 q -2.12385,-1.77024 -4.23021,-3.5765 c -0.009,-0.004 -0.009,-0.004 -0.0137,-0.0176 -10.676207,-9.2025 -20.677937,-19.37715 -28.817397,-30.74642 -0.24477,-0.34214 -0.49876,-0.68823 -0.73475,-1.04837 a 115.67336,115.67336 0 0 1 -9.60945,-16.24781 102.26243,102.26243 0 0 1 -4.01577,-9.53594 85.03679,85.03679 0 0 1 -4.997,-26.114 c -0.5678,-17.76774 4.55317,-35.51929 16.47547,-48.39615 0.30517,-0.32928 0.60627,-0.65012 0.9205,-0.97497 z"
     fill="#f0f0f0"
     id="path6" />
  <path
     d="m 77.908723,293.59867 a 105.86971,105.86971 0 0 0 3.5759,65.03916 45.59123,45.59123 0 0 0 6.93826,12.48638 26.14854,26.14854 0 0 0 11.29785,7.858 c 4.073307,1.54029 8.418227,2.64414 12.046187,5.14777 a 16.01082,16.01082 0 0 1 6.62673,11.29334 c 0.75923,5.57317 -0.52935,11.08677 -1.97686,16.43482 -1.60717,5.938 -3.37061,12.08024 -2.18949,18.26653 0.1431,0.74956 -1.02832,0.92778 -1.17121,0.17936 -2.05493,-10.76309 4.33741,-20.725 4.379,-31.38257 0.0194,-4.973 -1.45972,-9.982 -5.47715,-13.176 -3.51307,-2.793 -7.99263,-3.93512 -12.130417,-5.459 a 27.90252,27.90252 0 0 1 -11.33314,-7.27183 42.14812,42.14812 0 0 1 -7.3927,-12.17356 102.71241,102.71241 0 0 1 -7.47521,-31.21979 107.747,107.747 0 0 1 3.18042,-36.45885 c 0.19411,-0.73538 1.29468,-0.29432 1.10183,0.43626 z"
     fill="#ffffff"
     id="path7" />
  <path
     d="m 78.515923,352.10307 a 15.88383,15.88383 0 0 1 -18.32338,-9.343 c -0.291,-0.70464 0.79034,-1.18989 1.08169,-0.48431 a 14.70807,14.70807 0 0 0 17.06233,8.65614 c 0.741,-0.17934 0.91615,0.9929 0.17936,1.17121 z"
     fill="#ffffff"
     id="path8" />
  <path
     d="m 97.552533,378.47322 a 30.61477,30.61477 0 0 0 4.184627,-21.91524 c -0.14045,-0.75 1.03093,-0.92849 1.17121,-0.17936 a 31.844,31.844 0 0 1 -4.400837,22.79594 c -0.40871,0.64539 -1.36149,-0.0595 -0.955,-0.70134 z"
     fill="#ffffff"
     id="path9" />
  <path
     d="m 74.088663,317.87746 a 8.991,8.991 0 0 0 7.397,-4.25086 c 0.40033,-0.65025 1.35272,0.0553 0.955,0.70134 a 10.07517,10.07517 0 0 1 -8.17261,4.72073 0.61235,0.61235 0 0 1 -0.67529,-0.49593 0.59543,0.59543 0 0 1 0.49593,-0.67528 z"
     fill="#ffffff"
     id="path10" />
  <path
     d="m 723.51952,409.81401 c 22.523,-14.678 38.8993,-41.06206 35.5477,-67.73564 A 123.8633,123.8633 0 0 1 682.63251,379.356 c -11.21881,1.12255 -23.81372,1.203 -31.78083,9.181 -4.95742,4.964 -7.06373,12.21938 -7.17208,19.23382 -0.10818,7.01478 1.57723,13.919 3.25173,20.7319 l -0.41151,1.70229 c 26.86529,-0.99278 54.47672,-5.71301 76.9997,-20.391 z"
     fill="#f0f0f0"
     id="path11" />
  <path
     d="m 758.50312,342.0726 a 105.86975,105.86975 0 0 1 -42.0132,49.7772 45.59136,45.59136 0 0 1 -13.0575,5.79236 26.14869,26.14869 0 0 1 -13.75175,-0.52792 c -4.17967,-1.22258 -8.31345,-2.95716 -12.71753,-3.14244 a 16.01088,16.01088 0 0 0 -12.09044,5.02735 c -3.96163,3.99276 -6.25234,9.17088 -8.31649,14.3125 -2.29184,5.70878 -4.58189,11.67473 -9.24952,15.903 -0.56554,0.51231 0.26247,1.3599 0.82716,0.84835 8.12087,-7.35651 9.01471,-19.15919 15.39807,-27.6937 2.97859,-3.98236 7.17536,-7.09121 12.306,-7.22264 4.48656,-0.11493 8.75087,1.67014 12.97219,2.9446 a 27.90248,27.90248 0 0 0 13.427,1.01719 42.148,42.148 0 0 0 13.23201,-5.269 102.713,102.713 0 0 0 24.765,-20.42666 107.7473,107.7473 0 0 0 19.4114,-31.02519 c 0.2877,-0.704 -0.8566,-1.01448 -1.1425,-0.315 z"
     fill="#ffffff"
     id="path12" />
  <path
     d="m 722.79462,388.41954 a 15.88383,15.88383 0 0 0 20.2553,3.572 c 0.6566,-0.38743 0.085,-1.42589 -0.5721,-1.03794 a 14.70808,14.70808 0 0 1 -18.8349,-3.36126 c -0.4837,-0.58934 -1.3292,0.24119 -0.8483,0.82716 z"
     fill="#ffffff"
     id="path13" />
  <path
     d="m 691.71829,398.01325 a 30.61478,30.61478 0 0 1 9.8533,-20.01752 c 0.56371,-0.51431 -0.26413,-1.362 -0.82716,-0.84836 a 31.844,31.844 0 0 0 -10.21091,20.85089 c -0.0622,0.76138 1.12288,0.77223 1.18477,0.015 z"
     fill="#ffffff"
     id="path14" />
  <path
     d="m 746.93572,363.7578 a 8.991,8.991 0 0 1 -3.3468,-7.84756 c 0.072,-0.76022 -1.1134,-0.77026 -1.1847,-0.015 a 10.07515,10.07515 0 0 0 3.6831,8.68971 0.61235,0.61235 0 0 0 0.8378,0.0106 0.59543,0.59543 0 0 0 0.011,-0.83776 z"
     fill="#ffffff"
     id="path15" />
  <path
     d="m 682.23965,293.26622 c -0.0584,0.47341 -0.11674,0.94682 -0.18388,1.42507 a 118.40733,118.40733 0 0 1 -3.986,18.78915 c -0.13434,0.47733 -0.27768,0.95906 -0.42547,1.43154 a 124.82719,124.82719 0 0 1 -21.46805,40.63524 121.22469,121.22469 0 0 1 -12.52975,13.5 c -6.23282,5.76649 -13.44959,11.52292 -17.30009,18.79753 a 20.79612,20.79612 0 0 0 -1.08725,2.33295 l 19.21586,39.39321 c 0.0886,0.0676 0.16847,0.14 0.25728,0.20807 l 0.69532,1.60793 c 0.24779,-0.1991 0.50051,-0.41093 0.7483,-0.61 0.14422,-0.1149 0.28415,-0.23858 0.42837,-0.35347 0.0948,-0.0794 0.18942,-0.15923 0.2795,-0.22544 0.0317,-0.0263 0.0631,-0.053 0.0858,-0.075 0.0901,-0.0662 0.16671,-0.13728 0.24779,-0.1991 q 2.12386,-1.77024 4.23022,-3.5765 c 0.009,-0.004 0.009,-0.004 0.0137,-0.0176 10.6762,-9.2025 20.67794,-19.37715 28.81739,-30.74642 0.24478,-0.34214 0.49876,-0.68823 0.73476,-1.04837 a 115.6733,115.6733 0 0 0 9.60944,-16.24781 102.25973,102.25973 0 0 0 4.01577,-9.53594 85.03649,85.03649 0 0 0 4.997,-26.114 c 0.5678,-17.76774 -4.55316,-35.51929 -16.47547,-48.39615 -0.30517,-0.32924 -0.60632,-0.65008 -0.92054,-0.97493 z"
     fill="#f0f0f0"
     id="path16" />
  <path
     d="m 681.78286,293.59867 a 105.86971,105.86971 0 0 1 -3.5759,65.03916 45.59123,45.59123 0 0 1 -6.93826,12.48638 26.14857,26.14857 0 0 1 -11.29784,7.858 c -4.07332,1.54029 -8.41824,2.64414 -12.0462,5.14777 a 16.01082,16.01082 0 0 0 -6.62673,11.29334 c -0.75923,5.57317 0.52936,11.08677 1.97686,16.43482 1.60718,5.938 3.37061,12.08024 2.1895,18.26653 -0.14311,0.74956 1.02831,0.92778 1.17121,0.17936 2.05493,-10.76309 -4.33742,-20.725 -4.379,-31.38257 -0.0194,-4.973 1.45973,-9.982 5.47716,-13.176 3.51307,-2.793 7.99262,-3.93512 12.13041,-5.459 a 27.90245,27.90245 0 0 0 11.33314,-7.27183 42.1479,42.1479 0 0 0 7.39269,-12.17356 102.71241,102.71241 0 0 0 7.47521,-31.21979 107.74669,107.74669 0 0 0 -3.18042,-36.45885 c -0.19411,-0.73538 -1.29467,-0.29432 -1.10183,0.43626 z"
     fill="#ffffff"
     id="path17" />
  <path
     d="m 681.17566,352.10307 a 15.88383,15.88383 0 0 0 18.32336,-9.343 c 0.291,-0.70464 -0.79034,-1.18989 -1.08169,-0.48431 A 14.70807,14.70807 0 0 1 681.355,350.9319 c -0.741,-0.17934 -0.91615,0.9929 -0.17936,1.17121 z"
     fill="#ffffff"
     id="path18" />
  <path
     d="m 662.13902,378.47322 a 30.61482,30.61482 0 0 1 -4.18463,-21.91524 c 0.14045,-0.75 -1.03093,-0.92849 -1.17121,-0.17936 a 31.844,31.844 0 0 0 4.40084,22.79594 c 0.40872,0.64539 1.36149,-0.0595 0.955,-0.70134 z"
     fill="#ffffff"
     id="path19" />
  <path
     d="m 685.60293,317.87746 a 8.991,8.991 0 0 1 -7.397,-4.25086 c -0.40033,-0.65025 -1.35272,0.0553 -0.955,0.70134 a 10.07519,10.07519 0 0 0 8.17262,4.72073 0.61235,0.61235 0 0 0 0.67528,-0.49593 0.59542,0.59542 0 0 0 -0.49592,-0.67528 z"
     fill="#ffffff"
     id="path20" />
  <path
     d="M 641.85402,432 H 120.3657 A 20.27914,20.27914 0 0 1 100.10935,411.74414 V 20.25586 A 20.27913,20.27913 0 0 1 120.3657,0 h 521.48832 a 20.279,20.279 0 0 1 20.25586,20.25586 V 411.74414 A 20.279,20.279 0 0 1 641.85402,432 Z"
     fill="#e4e4e4"
     id="path27" />
  <path
     d="M 510.60575,179.74979 H 430.1055 a 15,15 0 0 1 0,-30 h 80.50025 a 15,15 0 0 1 0,30 z"
     fill="#ffffff"
     id="path28" />
  <path
     d="m 440.10561,220.74982 h -19 a 5.5,5.5 0 0 1 0,-11 h 19 a 5.5,5.5 0 0 1 0,11 z"
     fill="#ffffff"
     id="path29" />
  <path
     d="m 519.10561,220.74982 h -19 a 5.5,5.5 0 0 1 0,-11 h 19 a 5.5,5.5 0 0 1 0,11 z"
     fill="#ffffff"
     id="path30" />
  <path
     d="m 479.10561,220.74982 h -19 a 5.5,5.5 0 0 1 0,-11 h 19 a 5.5,5.5 0 0 1 0,11 z"
     fill="#ffffff"
     id="path31" />
  <path
     d="m 440.10561,241.74982 h -19 a 5.5,5.5 0 0 1 0,-11 h 19 a 5.5,5.5 0 0 1 0,11 z"
     fill="#ffffff"
     id="path32" />
  <path
     d="m 519.10561,241.74982 h -19 a 5.5,5.5 0 0 1 0,-11 h 19 a 5.5,5.5 0 0 1 0,11 z"
     fill="#ffffff"
     id="path33" />
  <path
     d="m 479.10561,241.74982 h -19 a 5.5,5.5 0 0 1 0,-11 h 19 a 5.5,5.5 0 0 1 0,11 z"
     fill="#ffffff"
     id="path34" />
  <path
     d="m 440.10561,262.74982 h -19 a 5.5,5.5 0 0 1 0,-11 h 19 a 5.5,5.5 0 0 1 0,11 z"
     fill="#ffffff"
     id="path35" />
  <path
     d="m 519.10561,262.74982 h -19 a 5.5,5.5 0 0 1 0,-11 h 19 a 5.5,5.5 0 0 1 0,11 z"
     fill="#ffffff"
     id="path36" />
  <path
     d="m 479.10561,262.74982 h -19 a 5.5,5.5 0 0 1 0,-11 h 19 a 5.5,5.5 0 0 1 0,11 z"
     fill="#ffffff"
     id="path37" />
  <path
     d="m 440.10561,283.74982 h -19 a 5.5,5.5 0 0 1 0,-11 h 19 a 5.5,5.5 0 1 1 0,11 z"
     fill="#ffffff"
     id="path38" />
  <path
     d="m 519.10561,283.74982 h -19 a 5.5,5.5 0 0 1 0,-11 h 19 a 5.5,5.5 0 1 1 0,11 z"
     fill="#ffffff"
     id="path39" />
  <path
     d="m 479.10561,283.74982 h -19 a 5.5,5.5 0 0 1 0,-11 h 19 a 5.5,5.5 0 1 1 0,11 z"
     fill="#ffffff"
     id="path40" />
  <circle
     cx="311.60562"
     cy="210.74982"
     r="51"
     fill="#cacaca"
     id="circle40" />
  <path
     d="m 311.60563,273.24979 a 15.017,15.017 0 0 1 -15,-15 v -95 a 14.99994,14.99994 0 1 1 29.99987,0 v 95 a 15.017,15.017 0 0 1 -14.99987,15 z"
     fill="#ffffff"
     id="path41" />
  <path
     d="m 444.84183,173.30887 h -14 a 2,2 0 0 1 0,-4 h 14 a 2,2 0 1 1 0,4 z"
     fill="#e4e4e4"
     id="path42" />
  <path
     d="m 466.84183,173.80887 h -14 a 2,2 0 0 1 0,-4 h 14 a 2,2 0 1 1 0,4 z"
     fill="#e4e4e4"
     id="path43" />
  <path
     d="m 488.84183,174.30887 h -14 a 2,2 0 0 1 0,-4 h 14 a 2,2 0 1 1 0,4 z"
     fill="#e4e4e4"
     id="path44" />
  <path
     d="m 510.84183,174.80887 h -14 a 2,2 0 0 1 0,-4 h 14 a 2,2 0 1 1 0,4 z"
     fill="#e4e4e4"
     id="path45" />
  <path
     d="m 166.60556,370.24886 a 18.69348,18.69348 0 0 0 5.56006,13.31 h -8.26077 A 18.55905,18.55905 0 0 1 145.34579,364.9998 V 64.11791 a 18.55905,18.55905 0 0 1 18.55906,-18.55905 h 12.021 a 18.74383,18.74383 0 0 0 -9.32031,16.2 z"
     fill="#cacaca"
     id="path46" />
  <path
     d="m 164.60556,128.26888 v 99.81 c 0.67041,-0.22 1.34033,-0.43 2,-0.63 v -98.27 c -0.66992,-0.31002 -1.32954,-0.61001 -2,-0.91 z m 0,0 v 99.81 c 0.67041,-0.22 1.34033,-0.43 2,-0.63 v -98.27 c -0.66992,-0.31002 -1.32954,-0.61001 -2,-0.91 z m 0,0 v 99.81 c 0.67041,-0.22 1.34033,-0.43 2,-0.63 v -98.27 c -0.66992,-0.31002 -1.32954,-0.61001 -2,-0.91 z m 0,7.29 v 115.01 c 0.67041,-0.16 1.34033,-0.31 2,-0.46 v -113.98 c -0.66992,-0.20003 -1.33985,-0.39003 -2,-0.57002 z m 0,0 v 115.01 c 0.67041,-0.16 1.34033,-0.31 2,-0.46 v -113.98 c -0.66992,-0.20003 -1.33985,-0.39003 -2,-0.57002 z m 0,0 v 115.01 c 0.67041,-0.16 1.34033,-0.31 2,-0.46 v -113.98 c -0.66992,-0.20003 -1.33985,-0.39003 -2,-0.57002 z m 0,0 v 115.01 c 0.67041,-0.16 1.34033,-0.31 2,-0.46 v -113.98 c -0.66992,-0.20003 -1.33985,-0.39003 -2,-0.57002 z m 0,0 v 116.05 c 0.67041,-0.16 1.33008,-0.32 2,-0.47 v -115.01 c -0.66992,-0.20003 -1.33985,-0.39003 -2,-0.57002 z m 436.25,-94.56 H 185.36581 a 20.79476,20.79476 0 0 0 -20.76025,20.76 v 308.49 a 20.78542,20.78542 0 0 0 20.76025,20.75 h 415.48975 a 20.77527,20.77527 0 0 0 20.75,-20.75 v -308.49 a 20.77739,20.77739 0 0 0 -20.75,-20.76002 z m 18.75,329.25 a 18.76944,18.76944 0 0 1 -18.75,18.75 H 185.36581 a 18.77786,18.77786 0 0 1 -18.76025,-18.75 v -308.49 a 18.78835,18.78835 0 0 1 18.76025,-18.76 h 415.48975 a 18.77157,18.77157 0 0 1 18.75,18.76 z m -455,-234.69 v 114 c 0.67041,-0.16 1.33008,-0.32 2,-0.48 v -112.95 c -0.66992,-0.20003 -1.33985,-0.39003 -2,-0.57002 z m 0,0 v 115.01 c 0.67041,-0.16 1.34033,-0.31 2,-0.46 v -113.98 c -0.66992,-0.20003 -1.33985,-0.39003 -2,-0.57002 z m 0,0 v 115.01 c 0.67041,-0.16 1.34033,-0.31 2,-0.46 v -113.98 c -0.66992,-0.20003 -1.33985,-0.39003 -2,-0.57002 z m 0,0 v 115.01 c 0.67041,-0.16 1.34033,-0.31 2,-0.46 v -113.98 c -0.66992,-0.20003 -1.33985,-0.39003 -2,-0.57002 z m 0,-7.29 v 99.81 c 0.67041,-0.22 1.34033,-0.43 2,-0.63 v -98.27 c -0.66992,-0.31002 -1.32954,-0.61001 -2,-0.91 z m 0,0 v 99.81 c 0.67041,-0.22 1.34033,-0.43 2,-0.63 v -98.27 c -0.66992,-0.31002 -1.32954,-0.61001 -2,-0.91 z"
     fill="#2f2e41"
     id="path58" />
</svg>
