<?xml version="1.0" encoding="utf-8"?>
<!-- Generator: Adobe Illustrator 24.0.1, SVG Export Plug-In . SVG Version: 6.00 Build 0)  -->
<svg version="1.1"
	 id="svg23" inkscape:version="1.4.2 (ebf0e940, 2025-05-08)" sodipodi:docname="emptyNumbersIcon.svg" xmlns:inkscape="http://www.inkscape.org/namespaces/inkscape" xmlns:sodipodi="http://sodipodi.sourceforge.net/DTD/sodipodi-0.dtd" xmlns:svg="http://www.w3.org/2000/svg"
	 xmlns="http://www.w3.org/2000/svg" xmlns:xlink="http://www.w3.org/1999/xlink" x="0px" y="0px" viewBox="0 0 391.6 118"
	 style="enable-background:new 0 0 391.6 118;" xml:space="preserve">
<style type="text/css">
	.st0{fill:#008080;}
	.st1{fill:#B3B3B3;}
</style>
<sodipodi:namedview  bordercolor="#000000" borderopacity="0.25" id="namedview23" inkscape:current-layer="svg23" inkscape:cx="229.39043" inkscape:cy="-10.907123" inkscape:deskcolor="#d1d1d1" inkscape:pagecheckerboard="0" inkscape:pageopacity="0.0" inkscape:showpageshadow="2" inkscape:window-height="937" inkscape:window-maximized="0" inkscape:window-width="1920" inkscape:window-x="0" inkscape:window-y="25" inkscape:zoom="1.4669313" pagecolor="#ffffff">
	</sodipodi:namedview>
<path id="path10" class="st0" d="M169.4,32c-3.5,0-6.4-2.9-6.4-6.4V6.4c0-3.5,2.9-6.4,6.4-6.4s6.4,2.9,6.4,6.4v19.2
	C175.8,29.2,172.9,32,169.4,32z"/>
<path id="path11" class="st0" d="M186.5,32c-3.5,0-6.4-2.9-6.4-6.4V6.4c0-3.5,2.9-6.4,6.4-6.4c3.5,0,6.4,2.9,6.4,6.4v19.2
	C192.9,29.2,190,32,186.5,32z"/>
<path id="path12" class="st0" d="M203.5,32c-3.5,0-6.4-2.9-6.4-6.4V6.4c0-3.5,2.9-6.4,6.4-6.4s6.4,2.9,6.4,6.4v19.2
	C210,29.2,207.1,32,203.5,32z"/>
<path id="path13" class="st0" d="M229.9,32c-3.5,0-6.4-2.9-6.4-6.4V6.4c0-3.5,2.9-6.4,6.4-6.4c3.5,0,6.4,2.9,6.4,6.4v19.2
	C236.3,29.2,233.4,32,229.9,32z"/>
<path id="path14" class="st0" d="M247,32c-3.5,0-6.4-2.9-6.4-6.4V6.4c0-3.5,2.9-6.4,6.4-6.4s6.4,2.9,6.4,6.4v19.2
	C253.4,29.2,250.5,32,247,32z"/>
<path id="path15" class="st0" d="M264.1,32c-3.5,0-6.4-2.9-6.4-6.4V6.4c0-3.5,2.9-6.4,6.4-6.4c3.5,0,6.4,2.9,6.4,6.4v19.2
	C270.5,29.2,267.6,32,264.1,32L264.1,32z"/>
<path id="path16" class="st0" d="M290.4,32c-3.5,0-6.4-2.9-6.4-6.4V6.4c0-3.5,2.9-6.4,6.4-6.4c3.5,0,6.4,2.9,6.4,6.4v19.2
	C296.8,29.2,294,32,290.4,32L290.4,32z"/>
<path id="path17" class="st0" d="M307.5,32c-3.5,0-6.4-2.9-6.4-6.4V6.4c0-3.5,2.9-6.4,6.4-6.4c3.5,0,6.4,2.9,6.4,6.4v19.2
	C313.9,29.2,311.1,32,307.5,32L307.5,32z"/>
<path id="path18" class="st0" d="M324.6,32c-3.5,0-6.4-2.9-6.4-6.4V6.4c0-3.5,2.9-6.4,6.4-6.4c3.5,0,6.4,2.9,6.4,6.4v19.2
	C331,29.2,328.2,32,324.6,32L324.6,32z"/>
<path id="path19" class="st0" d="M351,32c-3.5,0-6.4-2.9-6.4-6.4V6.4c0-3.5,2.9-6.4,6.4-6.4c3.5,0,6.4,2.9,6.4,6.4v19.2
	C357.4,29.2,354.5,32,351,32L351,32z"/>
<path id="path20" class="st0" d="M368.1,32c-3.5,0-6.4-2.9-6.4-6.4V6.4c0-3.5,2.9-6.4,6.4-6.4c3.5,0,6.4,2.9,6.4,6.4v19.2
	C374.5,29.2,371.6,32,368.1,32L368.1,32z"/>
<path id="path21" class="st0" d="M385.2,32c-3.5,0-6.4-2.9-6.4-6.4V6.4c0-3.5,2.9-6.4,6.4-6.4c3.5,0,6.4,2.9,6.4,6.4v19.2
	C391.6,29.2,388.7,32,385.2,32L385.2,32z"/>
<path id="path10-39" class="st0" d="M169.8,118c-3.5,0-6.4-2.9-6.4-6.4V92.4c0-3.5,2.9-6.4,6.4-6.4s6.4,2.9,6.4,6.4v19.2
	C176.2,115.1,173.3,118,169.8,118z"/>
<path id="path11-8" class="st0" d="M186.9,118c-3.5,0-6.4-2.9-6.4-6.4V92.4c0-3.5,2.9-6.4,6.4-6.4c3.5,0,6.4,2.9,6.4,6.4v19.2
	C193.3,115.1,190.4,118,186.9,118z"/>
<path id="path12-6" class="st0" d="M203.9,118c-3.5,0-6.4-2.9-6.4-6.4V92.4c0-3.5,2.9-6.4,6.4-6.4s6.4,2.9,6.4,6.4v19.2
	C210.4,115.1,207.5,118,203.9,118z"/>
<path id="path13-57" class="st0" d="M230.3,118c-3.5,0-6.4-2.9-6.4-6.4V92.4c0-3.5,2.9-6.4,6.4-6.4c3.5,0,6.4,2.9,6.4,6.4v19.2
	C236.7,115.1,233.8,118,230.3,118z"/>
<path id="path14-6" class="st0" d="M247.4,118c-3.5,0-6.4-2.9-6.4-6.4V92.4c0-3.5,2.9-6.4,6.4-6.4s6.4,2.9,6.4,6.4v19.2
	C253.8,115.1,250.9,118,247.4,118z"/>
<path id="path15-27" class="st0" d="M264.5,118c-3.5,0-6.4-2.9-6.4-6.4V92.4c0-3.5,2.9-6.4,6.4-6.4c3.5,0,6.4,2.9,6.4,6.4v19.2
	C270.9,115.1,268,118,264.5,118L264.5,118z"/>
<path id="path16-0" class="st0" d="M290.8,118c-3.5,0-6.4-2.9-6.4-6.4V92.4c0-3.5,2.9-6.4,6.4-6.4c3.5,0,6.4,2.9,6.4,6.4v19.2
	C297.2,115.1,294.4,118,290.8,118L290.8,118z"/>
<path id="path17-39" class="st0" d="M307.9,118c-3.5,0-6.4-2.9-6.4-6.4V92.4c0-3.5,2.9-6.4,6.4-6.4c3.5,0,6.4,2.9,6.4,6.4v19.2
	C314.3,115.1,311.5,118,307.9,118L307.9,118z"/>
<path id="path18-9" class="st0" d="M325,118c-3.5,0-6.4-2.9-6.4-6.4V92.4c0-3.5,2.9-6.4,6.4-6.4c3.5,0,6.4,2.9,6.4,6.4v19.2
	C331.4,115.1,328.6,118,325,118L325,118z"/>
<path id="path19-91" class="st0" d="M351.4,118c-3.5,0-6.4-2.9-6.4-6.4V92.4c0-3.5,2.9-6.4,6.4-6.4c3.5,0,6.4,2.9,6.4,6.4v19.2
	C357.8,115.1,354.9,118,351.4,118L351.4,118z"/>
<path id="path20-7" class="st0" d="M368.5,118c-3.5,0-6.4-2.9-6.4-6.4V92.4c0-3.5,2.9-6.4,6.4-6.4c3.5,0,6.4,2.9,6.4,6.4v19.2
	C374.9,115.1,372,118,368.5,118L368.5,118z"/>
<path id="path10-3" class="st0" d="M169.4,74.6c-3.5,0-6.4-2.9-6.4-6.4V48.9c0-3.5,2.9-6.4,6.4-6.4s6.4,2.9,6.4,6.4v19.2
	C175.8,71.7,172.9,74.5,169.4,74.6z"/>
<path id="path11-9" class="st0" d="M186.5,74.6c-3.5,0-6.4-2.9-6.4-6.4V48.9c0-3.5,2.9-6.4,6.4-6.4c3.5,0,6.4,2.9,6.4,6.4v19.2
	C192.9,71.7,190,74.5,186.5,74.6z"/>
<path id="path12-0" class="st0" d="M203.6,74.6c-3.5,0-6.4-2.9-6.4-6.4V48.9c0-3.5,2.9-6.4,6.4-6.4s6.4,2.9,6.4,6.4v19.2
	C210,71.7,207.1,74.5,203.6,74.6z"/>
<path id="path13-5" class="st0" d="M229.9,74.6c-3.5,0-6.4-2.9-6.4-6.4V48.9c0-3.5,2.9-6.4,6.4-6.4c3.5,0,6.4,2.9,6.4,6.4v19.2
	C236.3,71.7,233.5,74.5,229.9,74.6z"/>
<path id="path14-2" class="st0" d="M247,74.6c-3.5,0-6.4-2.9-6.4-6.4V48.9c0-3.5,2.9-6.4,6.4-6.4s6.4,2.9,6.4,6.4v19.2
	C253.4,71.7,250.6,74.5,247,74.6z"/>
<path id="path15-2" class="st0" d="M264.1,74.6c-3.5,0-6.4-2.9-6.4-6.4V48.9c0-3.5,2.9-6.4,6.4-6.4c3.5,0,6.4,2.9,6.4,6.4l0,0v19.2
	C270.5,71.7,267.7,74.5,264.1,74.6L264.1,74.6z"/>
<path id="path16-7" class="st0" d="M290.5,74.6c-3.5,0-6.4-2.9-6.4-6.4V48.9c0-3.5,2.9-6.4,6.4-6.4c3.5,0,6.4,2.9,6.4,6.4v19.2
	C296.9,71.7,294,74.5,290.5,74.6L290.5,74.6z"/>
<path id="path17-3" class="st0" d="M307.6,74.6c-3.5,0-6.4-2.9-6.4-6.4V48.9c0-3.5,2.9-6.4,6.4-6.4c3.5,0,6.4,2.9,6.4,6.4l0,0v19.2
	C314,71.7,311.1,74.5,307.6,74.6L307.6,74.6z"/>
<path id="path18-7" class="st0" d="M324.6,74.6c-3.5,0-6.4-2.9-6.4-6.4V48.9c0-3.5,2.9-6.4,6.4-6.4c3.5,0,6.4,2.9,6.4,6.4v19.2
	C331.1,71.7,328.2,74.5,324.6,74.6L324.6,74.6z"/>
<path id="path22" class="st1" d="M135.5,28.6H6c-3.3,0-6-2.7-6-6s2.7-6,6-6h129.4c3.3,0,6,2.7,6,6S138.8,28.6,135.5,28.6
	C135.5,28.6,135.5,28.6,135.5,28.6z"/>
<path id="path23" class="st1" d="M61.9,12.8H15.5c-3.3,0-6-2.7-6-6s2.7-6,6-6h46.4c3.3,0,6,2.7,6,6S65.3,12.8,61.9,12.8z"/>
<path id="path22-6" class="st1" d="M138.9,69.8H9.5c-3.3,0-6.1-2.7-6.1-6s2.7-6.1,6-6.1c0,0,0,0,0,0h129.4c3.3,0,6.1,2.7,6.1,6
	S142.3,69.8,138.9,69.8C138.9,69.8,138.9,69.8,138.9,69.8z"/>
<path id="path23-5" class="st1" d="M65.4,54H18.9c-3.3,0-6-2.7-6.1-6c0-3.3,2.7-6,6-6.1c0,0,0,0,0,0h46.4c3.3,0,6,2.7,6.1,6
	C71.4,51.3,68.7,54,65.4,54C65.4,54,65.4,54,65.4,54z"/>
<path id="path22-8" class="st1" d="M137,113.5H7.6c-3.3,0-6.1-2.7-6.1-6c0-3.3,2.7-6.1,6-6.1c0,0,0,0,0,0H137c3.3,0,6.1,2.7,6.1,6
	C143.1,110.8,140.4,113.5,137,113.5C137.1,113.5,137.1,113.5,137,113.5z"/>
<path id="path23-1" class="st1" d="M63.5,97.7H17.1c-3.3,0-6-2.7-6-6c0-3.3,2.7-6,6-6c0,0,0,0,0,0h46.4c3.3,0,6,2.7,6,6
	C69.6,95,66.9,97.7,63.5,97.7C63.5,97.7,63.5,97.7,63.5,97.7z"/>
</svg>
