<?xml version="1.0" encoding="UTF-8" standalone="no"?>
<!-- Generator: Adobe Illustrator 24.0.1, SVG Export Plug-In . SVG Version: 6.00 Build 0)  -->

<svg
   version="1.1"
   id="svg23"
   inkscape:version="1.4.2 (ebf0e940, 2025-05-08)"
   sodipodi:docname="emptyNumbersIcon.svg"
   x="0px"
   y="0px"
   viewBox="0 0 202.89999 118"
   xml:space="preserve"
   width="202.89999"
   height="118"
   xmlns:inkscape="http://www.inkscape.org/namespaces/inkscape"
   xmlns:sodipodi="http://sodipodi.sourceforge.net/DTD/sodipodi-0.dtd"
   xmlns="http://www.w3.org/2000/svg"
   xmlns:svg="http://www.w3.org/2000/svg"><defs
   id="defs1" />
<style
   type="text/css"
   id="style1">
	.st0{fill:#008080;}
	.st1{fill:#B3B3B3;}
</style>
<sodipodi:namedview
   bordercolor="#000000"
   borderopacity="0.25"
   id="namedview23"
   inkscape:current-layer="svg23"
   inkscape:cx="214.39313"
   inkscape:cy="-10.907123"
   inkscape:deskcolor="#d1d1d1"
   inkscape:pagecheckerboard="0"
   inkscape:pageopacity="0.0"
   inkscape:showpageshadow="2"
   inkscape:window-height="937"
   inkscape:window-maximized="0"
   inkscape:window-width="1920"
   inkscape:window-x="0"
   inkscape:window-y="25"
   inkscape:zoom="1.4669313"
   pagecolor="#ffffff">
	</sodipodi:namedview>
<path
   id="path10"
   class="st0"
   d="M 101.4,32 C 97.9,32 95,29.1 95,25.6 V 6.4 C 95,2.9 97.9,0 101.4,0 c 3.5,0 6.4,2.9 6.4,6.4 v 19.2 c 0,3.6 -2.9,6.4 -6.4,6.4 z" />
<path
   id="path11"
   class="st0"
   d="m 118.5,32 c -3.5,0 -6.4,-2.9 -6.4,-6.4 V 6.4 c 0,-3.5 2.9,-6.4 6.4,-6.4 3.5,0 6.4,2.9 6.4,6.4 v 19.2 c 0,3.6 -2.9,6.4 -6.4,6.4 z" />
<path
   id="path12"
   class="st0"
   d="m 135.5,32 c -3.5,0 -6.4,-2.9 -6.4,-6.4 V 6.4 c 0,-3.5 2.9,-6.4 6.4,-6.4 3.5,0 6.4,2.9 6.4,6.4 v 19.2 c 0.1,3.6 -2.8,6.4 -6.4,6.4 z" />
<path
   id="path13"
   class="st0"
   d="m 161.9,32 c -3.5,0 -6.4,-2.9 -6.4,-6.4 V 6.4 c 0,-3.5 2.9,-6.4 6.4,-6.4 3.5,0 6.4,2.9 6.4,6.4 v 19.2 c 0,3.6 -2.9,6.4 -6.4,6.4 z" />
<path
   id="path14"
   class="st0"
   d="m 179,32 c -3.5,0 -6.4,-2.9 -6.4,-6.4 V 6.4 c 0,-3.5 2.9,-6.4 6.4,-6.4 3.5,0 6.4,2.9 6.4,6.4 v 19.2 c 0,3.6 -2.9,6.4 -6.4,6.4 z" />
<path
   id="path15"
   class="st0"
   d="m 196.1,32 c -3.5,0 -6.4,-2.9 -6.4,-6.4 V 6.4 c 0,-3.5 2.9,-6.4 6.4,-6.4 3.5,0 6.4,2.9 6.4,6.4 v 19.2 c 0,3.6 -2.9,6.4 -6.4,6.4 z" />






<path
   id="path10-39"
   class="st0"
   d="m 101.8,118 c -3.5,0 -6.4,-2.9 -6.4,-6.4 V 92.4 c 0,-3.5 2.9,-6.4 6.4,-6.4 3.5,0 6.4,2.9 6.4,6.4 v 19.2 c 0,3.5 -2.9,6.4 -6.4,6.4 z" />
<path
   id="path11-8"
   class="st0"
   d="m 118.9,118 c -3.5,0 -6.4,-2.9 -6.4,-6.4 V 92.4 c 0,-3.5 2.9,-6.4 6.4,-6.4 3.5,0 6.4,2.9 6.4,6.4 v 19.2 c 0,3.5 -2.9,6.4 -6.4,6.4 z" />
<path
   id="path12-6"
   class="st0"
   d="m 135.9,118 c -3.5,0 -6.4,-2.9 -6.4,-6.4 V 92.4 c 0,-3.5 2.9,-6.4 6.4,-6.4 3.5,0 6.4,2.9 6.4,6.4 v 19.2 c 0.1,3.5 -2.8,6.4 -6.4,6.4 z" />
<path
   id="path13-57"
   class="st0"
   d="m 162.3,118 c -3.5,0 -6.4,-2.9 -6.4,-6.4 V 92.4 c 0,-3.5 2.9,-6.4 6.4,-6.4 3.5,0 6.4,2.9 6.4,6.4 v 19.2 c 0,3.5 -2.9,6.4 -6.4,6.4 z" />
<path
   id="path14-6"
   class="st0"
   d="m 179.4,118 c -3.5,0 -6.4,-2.9 -6.4,-6.4 V 92.4 c 0,-3.5 2.9,-6.4 6.4,-6.4 3.5,0 6.4,2.9 6.4,6.4 v 19.2 c 0,3.5 -2.9,6.4 -6.4,6.4 z" />
<path
   id="path15-27"
   class="st0"
   d="m 196.5,118 c -3.5,0 -6.4,-2.9 -6.4,-6.4 V 92.4 c 0,-3.5 2.9,-6.4 6.4,-6.4 3.5,0 6.4,2.9 6.4,6.4 v 19.2 c 0,3.5 -2.9,6.4 -6.4,6.4 z" />





<path
   id="path10-3"
   class="st0"
   d="M 101.4,74.6 C 97.9,74.6 95,71.7 95,68.2 V 48.9 c 0,-3.5 2.9,-6.4 6.4,-6.4 3.5,0 6.4,2.9 6.4,6.4 v 19.2 c 0,3.6 -2.9,6.4 -6.4,6.5 z" />
<path
   id="path11-9"
   class="st0"
   d="m 118.5,74.6 c -3.5,0 -6.4,-2.9 -6.4,-6.4 V 48.9 c 0,-3.5 2.9,-6.4 6.4,-6.4 3.5,0 6.4,2.9 6.4,6.4 v 19.2 c 0,3.6 -2.9,6.4 -6.4,6.5 z" />
<path
   id="path12-0"
   class="st0"
   d="m 135.6,74.6 c -3.5,0 -6.4,-2.9 -6.4,-6.4 V 48.9 c 0,-3.5 2.9,-6.4 6.4,-6.4 3.5,0 6.4,2.9 6.4,6.4 v 19.2 c 0,3.6 -2.9,6.4 -6.4,6.5 z" />
<path
   id="path13-5"
   class="st0"
   d="m 161.9,74.6 c -3.5,0 -6.4,-2.9 -6.4,-6.4 V 48.9 c 0,-3.5 2.9,-6.4 6.4,-6.4 3.5,0 6.4,2.9 6.4,6.4 v 19.2 c 0,3.6 -2.8,6.4 -6.4,6.5 z" />
<path
   id="path14-2"
   class="st0"
   d="m 179,74.6 c -3.5,0 -6.4,-2.9 -6.4,-6.4 V 48.9 c 0,-3.5 2.9,-6.4 6.4,-6.4 3.5,0 6.4,2.9 6.4,6.4 v 19.2 c 0,3.6 -2.8,6.4 -6.4,6.5 z" />
<path
   id="path15-2"
   class="st0"
   d="m 196.1,74.6 c -3.5,0 -6.4,-2.9 -6.4,-6.4 V 48.9 c 0,-3.5 2.9,-6.4 6.4,-6.4 3.5,0 6.4,2.9 6.4,6.4 v 0 19.2 c 0,3.6 -2.8,6.4 -6.4,6.5 z" />




<path
   id="path23"
   class="st1"
   d="M 71.780826,32 H 8.2191784 C 3.6986298,32 0,24.799999 0,16 0,7.1999999 3.6986298,0 8.2191784,0 H 71.780826 C 76.30137,0 80,7.1999999 80,16 c 0,8.799999 -3.561645,16 -8.219174,16 z"
   style="fill:#cccccc;stroke-width:1.91128" /><path
   id="path23-9"
   class="st1"
   d="M 71.780826,74.5 H 8.2191784 C 3.6986298,74.5 0,67.299999 0,58.5 0,49.7 3.6986298,42.5 8.2191784,42.5 H 71.780826 C 76.30137,42.5 80,49.7 80,58.5 c 0,8.799999 -3.561645,16 -8.219174,16 z"
   style="fill:#cccccc;stroke-width:1.91128" /><path
   id="path23-9-9"
   class="st1"
   d="M 71.780825,118 H 8.2191792 C 3.6986301,118 0,110.8 0,102 0,93.2 3.6986301,86 8.2191792,86 H 71.780825 C 76.30137,86 80,93.2 80,102 c 0,8.8 -3.561645,16 -8.219175,16 z"
   style="fill:#cccccc;stroke-width:1.91128" />




</svg>
