<?xml version="1.0" encoding="UTF-8" standalone="no"?>
<svg
   width="391.55963"
   height="117.9912"
   viewBox="0 0 391.55962 117.9912"
   role="img"
   artist="Katerina Limpitsouni"
   source="https://undraw.co/"
   version="1.1"
   id="svg23"
   sodipodi:docname="emptyNumbersIcon.svg"
   inkscape:version="1.4.2 (ebf0e940, 2025-05-08)"
   xmlns:inkscape="http://www.inkscape.org/namespaces/inkscape"
   xmlns:sodipodi="http://sodipodi.sourceforge.net/DTD/sodipodi-0.dtd"
   xmlns="http://www.w3.org/2000/svg"
   xmlns:svg="http://www.w3.org/2000/svg">
  <defs
     id="defs23" />
  <sodipodi:namedview
     id="namedview23"
     pagecolor="#ffffff"
     bordercolor="#000000"
     borderopacity="0.25"
     inkscape:showpageshadow="2"
     inkscape:pageopacity="0.0"
     inkscape:pagecheckerboard="0"
     inkscape:deskcolor="#d1d1d1"
     inkscape:zoom="1.4669313"
     inkscape:cx="229.39043"
     inkscape:cy="-10.907123"
     inkscape:window-width="1920"
     inkscape:window-height="937"
     inkscape:window-x="0"
     inkscape:window-y="25"
     inkscape:window-maximized="0"
     inkscape:current-layer="svg23" />
  <path
     d="m 169.36162,32.04779 a 6.4169007,6.4169007 0 0 1 -6.40956,-6.40956 V 6.40956 a 6.40956,6.40956 0 0 1 12.81912,0 v 19.22867 a 6.4169078,6.4169078 0 0 1 -6.40956,6.40956 z"
     fill="#6c63ff"
     id="path10"
     style="fill:#008080;stroke-width:0.712173" />
  <path
     d="m 186.45377,32.04779 a 6.4169007,6.4169007 0 0 1 -6.40955,-6.40956 V 6.40956 a 6.4095582,6.4095582 0 0 1 12.81911,0 v 19.22867 a 6.4169078,6.4169078 0 0 1 -6.40956,6.40956 z"
     fill="#6c63ff"
     id="path11"
     style="fill:#008080;stroke-width:0.712173" />
  <path
     d="m 203.54593,32.04779 a 6.4169007,6.4169007 0 0 1 -6.40956,-6.40956 V 6.40956 a 6.40956,6.40956 0 0 1 12.81912,0 v 19.22867 a 6.4169078,6.4169078 0 0 1 -6.40956,6.40956 z"
     fill="#6c63ff"
     id="path12"
     style="fill:#008080;stroke-width:0.712173" />
  <path
     d="m 229.89633,32.04779 a 6.4169007,6.4169007 0 0 1 -6.40955,-6.40956 V 6.40956 a 6.4095582,6.4095582 0 0 1 12.81911,0 v 19.22867 a 6.4169078,6.4169078 0 0 1 -6.40956,6.40956 z"
     fill="#6c63ff"
     id="path13"
     style="fill:#008080;stroke-width:0.712173" />
  <path
     d="m 246.98849,32.04779 a 6.4169007,6.4169007 0 0 1 -6.40956,-6.40956 V 6.40956 a 6.40956,6.40956 0 0 1 12.81912,0 v 19.22867 a 6.4169078,6.4169078 0 0 1 -6.40956,6.40956 z"
     fill="#6c63ff"
     id="path14"
     style="fill:#008080;stroke-width:0.712173" />
  <path
     d="m 264.08065,32.04779 a 6.4169007,6.4169007 0 0 1 -6.40956,-6.40956 V 6.40956 a 6.4095582,6.4095582 0 0 1 12.81911,0 v 19.22867 a 6.4169078,6.4169078 0 0 1 -6.40955,6.40956 z"
     fill="#6c63ff"
     id="path15"
     style="fill:#008080;stroke-width:0.712173" />
  <path
     d="m 290.43105,32.04779 a 6.4169007,6.4169007 0 0 1 -6.40956,-6.40956 V 6.40956 a 6.40956,6.40956 0 0 1 12.81912,0 v 19.22867 a 6.4169078,6.4169078 0 0 1 -6.40956,6.40956 z"
     fill="#6c63ff"
     id="path16"
     style="fill:#008080;stroke-width:0.712173" />
  <path
     d="m 307.52321,32.04779 a 6.4169007,6.4169007 0 0 1 -6.40956,-6.40956 V 6.40956 a 6.4095582,6.4095582 0 0 1 12.81911,0 v 19.22867 a 6.4169078,6.4169078 0 0 1 -6.40955,6.40956 z"
     fill="#6c63ff"
     id="path17"
     style="fill:#008080;stroke-width:0.712173" />
  <path
     d="M 324.61536,32.04779 A 6.4169007,6.4169007 0 0 1 318.2058,25.63823 V 6.40956 a 6.40956,6.40956 0 0 1 12.81912,0 v 19.22867 a 6.4169078,6.4169078 0 0 1 -6.40956,6.40956 z"
     fill="#6c63ff"
     id="path18"
     style="fill:#008080;stroke-width:0.712173" />
  <path
     d="m 350.96577,32.04779 a 6.4169007,6.4169007 0 0 1 -6.40956,-6.40956 V 6.40956 a 6.40956,6.40956 0 0 1 12.81912,0 v 19.22867 a 6.4169078,6.4169078 0 0 1 -6.40956,6.40956 z"
     fill="#6c63ff"
     id="path19"
     style="fill:#008080;stroke-width:0.712173" />
  <path
     d="m 368.05792,32.04779 a 6.4169007,6.4169007 0 0 1 -6.40956,-6.40956 V 6.40956 a 6.40956,6.40956 0 0 1 12.81912,0 v 19.22867 a 6.4169078,6.4169078 0 0 1 -6.40956,6.40956 z"
     fill="#6c63ff"
     id="path20"
     style="fill:#008080;stroke-width:0.712173" />
  <path
     d="m 385.15008,32.04779 a 6.4169007,6.4169007 0 0 1 -6.40956,-6.40956 V 6.40956 a 6.40956,6.40956 0 0 1 12.81912,0 v 19.22867 a 6.4169078,6.4169078 0 0 1 -6.40956,6.40956 z"
     fill="#6c63ff"
     id="path21"
     style="fill:#008080;stroke-width:0.712173" />
  <path
     d="m 169.76166,117.9912 a 6.4169007,6.4169007 0 0 1 -6.40956,-6.40956 V 92.352973 a 6.40956,6.40956 0 0 1 12.81912,0 v 19.228667 a 6.4169078,6.4169078 0 0 1 -6.40956,6.40956 z"
     fill="#6c63ff"
     id="path10-39"
     style="fill:#008080;stroke-width:0.712173" />
  <path
     d="m 186.85381,117.9912 a 6.4169007,6.4169007 0 0 1 -6.40955,-6.40956 V 92.352973 a 6.4095582,6.4095582 0 0 1 12.81911,0 v 19.228667 a 6.4169078,6.4169078 0 0 1 -6.40956,6.40956 z"
     fill="#6c63ff"
     id="path11-8"
     style="fill:#008080;stroke-width:0.712173" />
  <path
     d="m 203.94597,117.9912 a 6.4169007,6.4169007 0 0 1 -6.40956,-6.40956 V 92.352973 a 6.40956,6.40956 0 0 1 12.81912,0 v 19.228667 a 6.4169078,6.4169078 0 0 1 -6.40956,6.40956 z"
     fill="#6c63ff"
     id="path12-6"
     style="fill:#008080;stroke-width:0.712173" />
  <path
     d="m 230.29637,117.9912 a 6.4169007,6.4169007 0 0 1 -6.40955,-6.40956 V 92.352973 a 6.4095582,6.4095582 0 0 1 12.81911,0 v 19.228667 a 6.4169078,6.4169078 0 0 1 -6.40956,6.40956 z"
     fill="#6c63ff"
     id="path13-57"
     style="fill:#008080;stroke-width:0.712173" />
  <path
     d="m 247.38853,117.9912 a 6.4169007,6.4169007 0 0 1 -6.40956,-6.40956 V 92.352973 a 6.40956,6.40956 0 0 1 12.81912,0 v 19.228667 a 6.4169078,6.4169078 0 0 1 -6.40956,6.40956 z"
     fill="#6c63ff"
     id="path14-6"
     style="fill:#008080;stroke-width:0.712173" />
  <path
     d="m 264.48069,117.9912 a 6.4169007,6.4169007 0 0 1 -6.40956,-6.40956 V 92.352973 a 6.4095582,6.4095582 0 0 1 12.81911,0 v 19.228667 a 6.4169078,6.4169078 0 0 1 -6.40955,6.40956 z"
     fill="#6c63ff"
     id="path15-27"
     style="fill:#008080;stroke-width:0.712173" />
  <path
     d="m 290.83109,117.9912 a 6.4169007,6.4169007 0 0 1 -6.40956,-6.40956 V 92.352973 a 6.40956,6.40956 0 0 1 12.81912,0 v 19.228667 a 6.4169078,6.4169078 0 0 1 -6.40956,6.40956 z"
     fill="#6c63ff"
     id="path16-0"
     style="fill:#008080;stroke-width:0.712173" />
  <path
     d="m 307.92325,117.9912 a 6.4169007,6.4169007 0 0 1 -6.40956,-6.40956 V 92.352973 a 6.4095582,6.4095582 0 0 1 12.81911,0 v 19.228667 a 6.4169078,6.4169078 0 0 1 -6.40955,6.40956 z"
     fill="#6c63ff"
     id="path17-39"
     style="fill:#008080;stroke-width:0.712173" />
  <path
     d="m 325.0154,117.9912 a 6.4169007,6.4169007 0 0 1 -6.40956,-6.40956 V 92.352973 a 6.40956,6.40956 0 0 1 12.81912,0 v 19.228667 a 6.4169078,6.4169078 0 0 1 -6.40956,6.40956 z"
     fill="#6c63ff"
     id="path18-9"
     style="fill:#008080;stroke-width:0.712173" />
  <path
     d="m 351.36581,117.9912 a 6.4169007,6.4169007 0 0 1 -6.40956,-6.40956 V 92.352973 a 6.40956,6.40956 0 0 1 12.81912,0 v 19.228667 a 6.4169078,6.4169078 0 0 1 -6.40956,6.40956 z"
     fill="#6c63ff"
     id="path19-91"
     style="fill:#008080;stroke-width:0.712173" />
  <path
     d="m 368.45796,117.9912 a 6.4169007,6.4169007 0 0 1 -6.40956,-6.40956 V 92.352973 a 6.40956,6.40956 0 0 1 12.81912,0 v 19.228667 a 6.4169078,6.4169078 0 0 1 -6.40956,6.40956 z"
     fill="#6c63ff"
     id="path20-7"
     style="fill:#008080;stroke-width:0.712173" />
  <path
     d="m 169.39557,74.553873 a 6.4169007,6.4169007 0 0 1 -6.40956,-6.40956 V 48.915647 a 6.40956,6.40956 0 0 1 12.81912,0 v 19.228666 a 6.4169078,6.4169078 0 0 1 -6.40956,6.40956 z"
     fill="#6c63ff"
     id="path10-3"
     style="fill:#008080;stroke-width:0.712173" />
  <path
     d="m 186.48772,74.553873 a 6.4169007,6.4169007 0 0 1 -6.40955,-6.40956 V 48.915647 a 6.4095582,6.4095582 0 0 1 12.81911,0 v 19.228666 a 6.4169078,6.4169078 0 0 1 -6.40956,6.40956 z"
     fill="#6c63ff"
     id="path11-9"
     style="fill:#008080;stroke-width:0.712173" />
  <path
     d="m 203.57988,74.553873 a 6.4169007,6.4169007 0 0 1 -6.40956,-6.40956 V 48.915647 a 6.40956,6.40956 0 0 1 12.81912,0 v 19.228666 a 6.4169078,6.4169078 0 0 1 -6.40956,6.40956 z"
     fill="#6c63ff"
     id="path12-0"
     style="fill:#008080;stroke-width:0.712173" />
  <path
     d="m 229.93028,74.553873 a 6.4169007,6.4169007 0 0 1 -6.40955,-6.40956 V 48.915647 a 6.4095582,6.4095582 0 0 1 12.81911,0 v 19.228666 a 6.4169078,6.4169078 0 0 1 -6.40956,6.40956 z"
     fill="#6c63ff"
     id="path13-5"
     style="fill:#008080;stroke-width:0.712173" />
  <path
     d="m 247.02244,74.553873 a 6.4169007,6.4169007 0 0 1 -6.40956,-6.40956 V 48.915647 a 6.40956,6.40956 0 0 1 12.81912,0 v 19.228666 a 6.4169078,6.4169078 0 0 1 -6.40956,6.40956 z"
     fill="#6c63ff"
     id="path14-2"
     style="fill:#008080;stroke-width:0.712173" />
  <path
     d="m 264.1146,74.553873 a 6.4169007,6.4169007 0 0 1 -6.40956,-6.40956 V 48.915647 a 6.4095582,6.4095582 0 0 1 12.81911,0 v 19.228666 a 6.4169078,6.4169078 0 0 1 -6.40955,6.40956 z"
     fill="#6c63ff"
     id="path15-2"
     style="fill:#008080;stroke-width:0.712173" />
  <path
     d="m 290.465,74.553873 a 6.4169007,6.4169007 0 0 1 -6.40956,-6.40956 V 48.915647 a 6.40956,6.40956 0 0 1 12.81912,0 v 19.228666 a 6.4169078,6.4169078 0 0 1 -6.40956,6.40956 z"
     fill="#6c63ff"
     id="path16-7"
     style="fill:#008080;stroke-width:0.712173" />
  <path
     d="m 307.55716,74.553873 a 6.4169007,6.4169007 0 0 1 -6.40956,-6.40956 V 48.915647 a 6.4095582,6.4095582 0 0 1 12.81911,0 v 19.228666 a 6.4169078,6.4169078 0 0 1 -6.40955,6.40956 z"
     fill="#6c63ff"
     id="path17-3"
     style="fill:#008080;stroke-width:0.712173" />
  <path
     d="m 324.64931,74.553873 a 6.4169007,6.4169007 0 0 1 -6.40956,-6.40956 V 48.915647 a 6.40956,6.40956 0 0 1 12.81912,0 v 19.228666 a 6.4169078,6.4169078 0 0 1 -6.40956,6.40956 z"
     fill="#6c63ff"
     id="path18-7"
     style="fill:#008080;stroke-width:0.712173" />
  <path
     d="M 135.48767,28.59707 H 6.0473602 a 6.04736,6.04736 0 1 1 0,-12.09472 H 135.48767 a 6.04736,6.04736 0 1 1 0,12.09472 z"
     fill="#e6e6e6"
     id="path22"
     style="fill:#b3b3b3" />
  <path
     d="M 61.947993,12.822495 H 15.507685 a 6.04736,6.04736 0 1 1 0,-12.09472 h 46.440308 a 6.04736,6.04736 0 1 1 0,12.09472 z"
     fill="#e6e6e6"
     id="path23"
     style="fill:#b3b3b3" />
  <path
     d="M 138.91912,69.775733 H 9.4788162 a 6.04736,6.04736 0 1 1 0,-12.09471 H 138.91912 a 6.04736,6.04736 0 1 1 0,12.09471 z"
     fill="#e6e6e6"
     id="path22-6"
     style="fill:#b3b3b3" />
  <path
     d="M 65.379443,54.001163 H 18.939136 a 6.04736,6.04736 0 1 1 0,-12.094716 h 46.440307 a 6.04736,6.04736 0 1 1 0,12.094716 z"
     fill="#e6e6e6"
     id="path23-5"
     style="fill:#b3b3b3" />
  <path
     d="M 137.04626,113.49169 H 7.6059572 a 6.04736,6.04736 0 1 1 0,-12.09471 H 137.04626 a 6.04736,6.04736 0 1 1 0,12.09471 z"
     fill="#e6e6e6"
     id="path22-8"
     style="fill:#b3b3b3" />
  <path
     d="M 63.506583,97.717123 H 17.066282 a 6.04736,6.04736 0 1 1 0,-12.09472 h 46.440301 a 6.04736,6.04736 0 1 1 0,12.09472 z"
     fill="#e6e6e6"
     id="path23-1"
     style="fill:#b3b3b3" />
</svg>
